<svg width="105" height="128" viewBox="0 0 105 128" fill="none" xmlns="http://www.w3.org/2000/svg">
<mask id="path-1-inside-1_31_5" fill="white">
<path fill-rule="evenodd" clip-rule="evenodd" d="M46.2421 0C42.9284 0 40.2421 2.68629 40.2421 6V36.6998H6.00915C1.36225 36.6998 -1.52082 41.7546 0.844853 45.7543L47.3052 124.305C49.6281 128.233 55.3109 128.233 57.6338 124.305L104.094 45.7543C106.46 41.7546 103.577 36.6998 98.9299 36.6998H65.8614V6C65.8614 2.68629 63.1751 0 59.8614 0H46.2421Z"/>
</mask>
<path fill-rule="evenodd" clip-rule="evenodd" d="M46.2421 0C42.9284 0 40.2421 2.68629 40.2421 6V36.6998H6.00915C1.36225 36.6998 -1.52082 41.7546 0.844853 45.7543L47.3052 124.305C49.6281 128.233 55.3109 128.233 57.6338 124.305L104.094 45.7543C106.46 41.7546 103.577 36.6998 98.9299 36.6998H65.8614V6C65.8614 2.68629 63.1751 0 59.8614 0H46.2421Z" fill="#505050"/>
<path d="M40.2421 36.6998V37.6998H41.2421V36.6998H40.2421ZM0.844853 45.7543L-0.0158631 46.2634H-0.015863L0.844853 45.7543ZM47.3052 124.305L48.166 123.796L47.3052 124.305ZM57.6338 124.305L58.4945 124.814L57.6338 124.305ZM104.094 45.7543L104.955 46.2634L104.094 45.7543ZM65.8614 36.6998H64.8614V37.6998H65.8614V36.6998ZM41.2421 6C41.2421 3.23858 43.4807 1 46.2421 1V-1C42.3762 -1 39.2421 2.13401 39.2421 6H41.2421ZM41.2421 36.6998V6H39.2421V36.6998H41.2421ZM6.00915 37.6998H40.2421V35.6998H6.00915V37.6998ZM1.70557 45.2452C-0.265823 41.9122 2.13673 37.6998 6.00915 37.6998V35.6998C0.587761 35.6998 -2.77581 41.5971 -0.0158631 46.2634L1.70557 45.2452ZM48.166 123.796L1.70557 45.2452L-0.015863 46.2634L46.4445 124.814L48.166 123.796ZM56.7731 123.796C54.8374 127.069 50.1017 127.069 48.166 123.796L46.4445 124.814C49.1545 129.396 55.7845 129.396 58.4945 124.814L56.7731 123.796ZM103.233 45.2452L56.7731 123.796L58.4945 124.814L104.955 46.2634L103.233 45.2452ZM98.9299 37.6998C102.802 37.6998 105.205 41.9122 103.233 45.2452L104.955 46.2634C107.715 41.5971 104.351 35.6998 98.9299 35.6998V37.6998ZM65.8614 37.6998H98.9299V35.6998H65.8614V37.6998ZM64.8614 6V36.6998H66.8614V6H64.8614ZM59.8614 1C62.6229 1 64.8614 3.23858 64.8614 6H66.8614C66.8614 2.13401 63.7274 -1 59.8614 -1V1ZM46.2421 1H59.8614V-1H46.2421V1Z" fill="black" mask="url(#path-1-inside-1_31_5)"/>
</svg>
