<svg width="447" height="129" viewBox="0 0 447 129" fill="none" xmlns="http://www.w3.org/2000/svg">
<path d="M59.8477 3.82102C59.8477 2.63073 60.4437 2.03558 61.6358 2.03558H67.5363C68.7283 2.03558 69.3244 2.63073 69.3244 3.82102V125.231C69.3244 126.421 68.7283 127.016 67.5363 127.016H61.6358C60.4437 127.016 59.8477 126.421 59.8477 125.231V69.3466C59.8477 68.8705 59.6093 68.6325 59.1325 68.6325H10.8552C10.3784 68.6325 10.14 68.8705 10.14 69.3466V125.231C10.14 126.421 9.54397 127.016 8.35193 127.016H2.45138C1.25935 127.016 0.66333 126.421 0.66333 125.231V3.82102C0.66333 2.63073 1.25935 2.03558 2.45138 2.03558H8.35193C9.54397 2.03558 10.14 2.63073 10.14 3.82102V59.5267C10.14 60.0028 10.3784 60.2409 10.8552 60.2409H59.1325C59.6093 60.2409 59.8477 60.0028 59.8477 59.5267V3.82102Z" fill="white"/>
<path d="M167.939 8.6417C167.939 9.832 167.343 10.4271 166.151 10.4271H111.258C110.781 10.4271 110.543 10.6652 110.543 11.1413V59.5267C110.543 60.0028 110.781 60.2409 111.258 60.2409H148.807C149.999 60.2409 150.595 60.836 150.595 62.0263V66.847C150.595 68.0373 149.999 68.6325 148.807 68.6325H111.258C110.781 68.6325 110.543 68.8705 110.543 69.3466V117.911C110.543 118.387 110.781 118.625 111.258 118.625H166.151C167.343 118.625 167.939 119.22 167.939 120.41V125.231C167.939 126.421 167.343 127.016 166.151 127.016H102.854C101.662 127.016 101.066 126.421 101.066 125.231V3.82102C101.066 2.63073 101.662 2.03558 102.854 2.03558H166.151C167.343 2.03558 167.939 2.63073 167.939 3.82102V8.6417Z" fill="white"/>
<path d="M255.832 127.016C254.878 127.016 254.222 126.54 253.865 125.588L230.441 68.9895C230.322 68.6325 230.084 68.4539 229.726 68.4539H203.978C203.501 68.4539 203.263 68.692 203.263 69.1681V125.231C203.263 126.421 202.667 127.016 201.475 127.016H195.574C194.382 127.016 193.786 126.421 193.786 125.231V3.82102C193.786 2.63073 194.382 2.03558 195.574 2.03558H231.872C241.05 2.03558 248.441 5.13034 254.044 11.3199C259.765 17.5094 262.626 25.6034 262.626 35.6018C262.626 43.9339 260.6 50.9566 256.547 56.67C252.494 62.2644 246.951 65.8948 239.918 67.5612C239.441 67.7993 239.322 68.0968 239.56 68.4539L263.341 124.874L263.52 125.588C263.52 126.54 262.984 127.016 261.911 127.016H255.832ZM203.978 10.4271C203.501 10.4271 203.263 10.6652 203.263 11.1413V59.8838C203.263 60.3599 203.501 60.598 203.978 60.598H230.978C237.653 60.598 243.017 58.3364 247.07 53.8133C251.123 49.1712 253.15 43.1007 253.15 35.6018C253.15 28.103 251.064 22.0325 246.891 17.3904C242.839 12.7482 237.534 10.4271 230.978 10.4271H203.978Z" fill="white"/>
<path d="M338.871 61.8478C338.394 62.2049 338.394 62.562 338.871 62.9191C344.593 65.4187 349.003 69.2871 352.103 74.5244C355.202 79.6427 356.811 85.8917 356.93 93.2715C356.93 103.865 353.831 112.138 347.633 118.089C341.553 124.041 333.447 127.016 323.315 127.016H289.342C288.15 127.016 287.554 126.421 287.554 125.231V3.82102C287.554 2.63073 288.15 2.03558 289.342 2.03558H322.064C332.553 2.03558 340.778 4.89228 346.739 10.6057C352.818 16.2001 355.858 24.1155 355.858 34.352C355.858 41.0177 354.368 46.6716 351.387 51.3137C348.527 55.9558 344.354 59.4672 338.871 61.8478ZM297.746 10.4271C297.269 10.4271 297.031 10.6652 297.031 11.1413V57.9198C297.031 58.3959 297.269 58.634 297.746 58.634H322.242C329.752 58.634 335.653 56.551 339.944 52.385C344.354 48.0999 346.56 42.2675 346.56 34.8877C346.56 27.2698 344.354 21.3183 339.944 17.0333C335.653 12.6292 329.752 10.4271 322.242 10.4271H297.746ZM322.958 118.446C330.467 118.446 336.427 116.125 340.838 111.483C345.249 106.841 347.454 100.532 347.454 92.5573C347.454 84.5824 345.189 78.2738 340.659 73.6317C336.249 68.8705 330.229 66.4899 322.6 66.4899H297.746C297.269 66.4899 297.031 66.728 297.031 67.2041V117.732C297.031 118.208 297.269 118.446 297.746 118.446H322.958Z" fill="white"/>
<path d="M411.847 128.445C401 128.445 392.357 125.528 385.921 119.696C379.484 113.864 376.265 106.186 376.265 96.6638V91.8432C376.265 90.6529 376.861 90.0577 378.053 90.0577H383.596C384.788 90.0577 385.384 90.6529 385.384 91.8432V96.1282C385.384 103.27 387.768 109.043 392.536 113.447C397.424 117.851 403.92 120.053 412.026 120.053C419.774 120.053 425.854 118.03 430.264 113.983C434.794 109.817 437.059 104.282 437.059 97.378C437.059 92.9739 436.045 89.165 434.019 85.9512C431.993 82.6184 429.012 79.5832 425.079 76.8455C421.264 74.1078 415.781 70.8345 408.629 67.0256C401 62.8595 395.159 59.3482 391.106 56.4915C387.053 53.5157 383.775 50.0044 381.272 45.9574C378.768 41.7914 377.517 36.6731 377.517 30.6026C377.517 21.1993 380.437 13.879 386.278 8.6417C392.238 3.28539 400.225 0.607239 410.238 0.607239C421.085 0.607239 429.668 3.58296 435.986 9.53442C442.304 15.3669 445.463 23.1633 445.463 32.9237V37.2087C445.463 38.399 444.867 38.9942 443.674 38.9942H437.774C436.582 38.9942 435.986 38.399 435.986 37.2087V33.2808C435.986 25.901 433.661 20.009 429.012 15.6049C424.364 11.2008 418.046 8.9988 410.059 8.9988C402.788 8.9988 397.066 10.9033 392.894 14.7122C388.841 18.4021 386.815 23.6989 386.815 30.6026C386.815 35.0067 387.709 38.6966 389.497 41.6723C391.404 44.6481 394.086 47.3262 397.543 49.7068C401.119 52.0874 406.543 55.2417 413.814 59.1696C421.801 63.5737 427.999 67.3827 432.41 70.5964C436.939 73.8102 440.396 77.5001 442.78 81.6662C445.284 85.7132 446.535 90.6529 446.535 96.4853C446.535 106.127 443.376 113.864 437.059 119.696C430.86 125.528 422.456 128.445 411.847 128.445Z" fill="white"/>
</svg>
