<svg width="34" height="34" viewBox="0 0 34 34" fill="none" xmlns="http://www.w3.org/2000/svg">
<g clip-path="url(#clip0_13_30)">
<path d="M30.9715 5.87103C26.2935 4.58926 21.588 2.59343 17.3637 0.0993449C17.1394 -0.0331353 16.8609 -0.0331353 16.6366 0.0993449C12.2905 2.66508 7.83925 4.55294 3.02846 5.87103C2.71768 5.9561 2.50226 6.23859 2.50226 6.56086V13.8686C2.50226 21.3939 5.9739 26.3752 8.88634 29.2287C12.0218 32.301 15.6741 34 17.0002 34C18.3261 34 21.9784 32.301 25.1139 29.2287C28.0262 26.3753 31.4977 21.394 31.4977 13.8686V6.56079C31.4977 6.23859 31.2823 5.9561 30.9715 5.87103ZM30.0673 13.8685C30.0673 20.8971 26.8293 25.5452 24.1127 28.2069C21.0294 31.2281 17.7328 32.5695 17.0002 32.5695C16.2675 32.5695 12.9707 31.2281 9.88735 28.2069C7.17087 25.5452 3.93271 20.8971 3.93271 13.8685V7.10373C8.5332 5.79752 12.8176 3.97461 17.0003 1.54394C21.0786 3.91013 25.5767 5.82369 30.0673 7.10346V13.8685Z" fill="#C99846"/>
<path d="M10.6607 7.02371C10.516 6.65615 10.1007 6.4756 9.73311 6.62043C8.45545 7.12385 7.14406 7.58723 5.8354 7.99776C5.53717 8.09139 5.33423 8.36764 5.33423 8.68015V11.442C5.33423 11.837 5.65451 12.1572 6.04942 12.1572C6.44434 12.1572 6.76462 11.837 6.76462 11.442V9.20283C7.93861 8.82299 9.11134 8.40283 10.2574 7.95121C10.625 7.80651 10.8056 7.39127 10.6607 7.02371Z" fill="#C99846"/>
<path d="M12.0193 7.15938C12.1153 7.15938 12.2127 7.14005 12.3061 7.09928L12.3193 7.09357C12.6811 6.93499 12.8441 6.51378 12.6855 6.15206C12.5268 5.79022 12.1032 5.62653 11.7417 5.78497L11.7302 5.78995C11.3681 5.94806 11.2046 6.36895 11.3628 6.73086C11.4801 6.99954 11.7434 7.15938 12.0193 7.15938Z" fill="#C99846"/>
<path d="M25.5214 23.0617C25.1909 22.8457 24.7477 22.9386 24.5314 23.2692C23.942 24.1713 23.2506 25.0351 22.476 25.8364C21.8391 26.4953 21.1488 27.1094 20.4245 27.6616C20.1105 27.9011 20.0501 28.3498 20.2895 28.664C20.4303 28.8485 20.6433 28.9456 20.8587 28.9456C21.01 28.9456 21.1624 28.8979 21.2919 28.7991C22.0731 28.2033 22.8176 27.5411 23.5043 26.8307C24.3418 25.9645 25.0902 25.0295 25.7289 24.0516C25.945 23.7209 25.852 23.2777 25.5214 23.0617Z" fill="#C99846"/>
<path d="M18.7636 28.7833L18.7225 28.8074C18.3808 29.0054 18.2639 29.4429 18.4618 29.7847C18.5944 30.0138 18.8345 30.1417 19.0815 30.1417C19.203 30.1417 19.3264 30.1107 19.4391 30.0452L19.4864 30.0174C19.8273 29.8178 19.9418 29.3797 19.7421 29.0389C19.5424 28.6981 19.1042 28.5838 18.7636 28.7833Z" fill="#C99846"/>
<path d="M12.125 15.5403C11.6859 15.1011 11.1019 14.8594 10.4807 14.8594C9.85953 14.8594 9.27542 15.1012 8.83608 15.5403C7.92944 16.4471 7.92944 17.9227 8.83608 18.8295L13.0592 23.0525C13.4985 23.4916 14.0825 23.7334 14.7037 23.7334C15.325 23.7334 15.909 23.4916 16.3483 23.0524L25.1644 14.2362C26.071 13.3291 26.071 11.8538 25.1643 10.9473C24.7251 10.508 24.141 10.2663 23.5197 10.2663C22.8985 10.2663 22.3145 10.5081 21.8752 10.9473L14.7037 18.1188L12.125 15.5403ZM22.8867 11.9588C23.0557 11.7898 23.2806 11.6967 23.5198 11.6967C23.7591 11.6967 23.9838 11.7898 24.153 11.9588C24.5019 12.3077 24.5019 12.8758 24.1529 13.2249L15.3368 22.0409C15.1678 22.2099 14.9429 22.303 14.7037 22.303C14.4645 22.303 14.2396 22.2099 14.0705 22.0409L9.84751 17.818C9.49841 17.4689 9.49841 16.9009 9.84738 16.5519C10.0164 16.3829 10.2414 16.2898 10.4806 16.2898C10.7199 16.2898 10.9447 16.3828 11.1137 16.5518L14.1979 19.6361C14.3321 19.7702 14.5139 19.8455 14.7037 19.8455C14.8934 19.8455 15.0752 19.7702 15.2093 19.6361L22.8867 11.9588Z" fill="#C99846"/>
</g>
<defs>
<clipPath id="clip0_13_30">
<rect width="34" height="34" fill="white"/>
</clipPath>
</defs>
</svg>
