<svg width="36" height="36" viewBox="0 0 36 36" fill="none" xmlns="http://www.w3.org/2000/svg">
<g clip-path="url(#clip0_13_0)">
<path d="M35.8931 20.1565C35.8038 19.9779 35.5806 19.8886 35.402 19.844C34.3752 19.844 25.5359 19.4868 25.5359 9.21893C25.5359 8.90642 25.268 8.63857 24.9555 8.63857C24.643 8.63857 24.3752 8.90642 24.3752 9.21893C24.3752 19.4868 15.5358 19.844 14.5537 19.844C14.4197 19.844 14.2858 19.8886 14.1965 19.9779C14.1072 20.0226 14.0626 20.1118 14.0179 20.1565C13.9287 20.3351 13.9287 20.5583 14.0179 20.7369C14.1072 20.9154 14.3304 21.0494 14.5537 21.0494C14.5537 21.0494 14.5537 21.0494 14.5983 21.0494C15.6251 21.0494 24.4198 21.4065 24.4198 31.6744C24.4198 31.9869 24.6877 32.2548 25.0002 32.2548C25.3127 32.2548 25.5805 31.9869 25.5805 31.6744C25.5805 21.4511 34.3752 21.0494 35.402 21.0494C35.6252 21.0494 35.8038 20.9154 35.9377 20.7369C36.027 20.5583 36.027 20.3351 35.8931 20.1565ZM24.9555 27.2994C23.6609 23.0583 20.4912 21.2279 17.9912 20.4244C20.4912 19.6208 23.6609 17.7904 24.9555 13.5493C26.2502 17.7904 29.4198 19.6208 31.9198 20.4244C29.4198 21.2279 26.2502 23.0583 24.9555 27.2994Z" fill="#C99846"/>
<path d="M17.5894 8.54928C17.9019 8.54928 18.1697 8.28142 18.1697 7.92427C18.1697 7.61177 17.9019 7.34391 17.5894 7.34391C17.0537 7.34391 12.2322 7.16534 12.2322 1.54031C12.2322 1.2278 11.9644 0.959946 11.6519 0.959946C11.3394 0.959946 11.0715 1.2278 11.0715 1.54031C11.0715 7.16534 6.25004 7.34391 5.71432 7.34391C5.66968 7.34391 5.66968 7.34391 5.66968 7.34391C5.35718 7.38856 5.13396 7.61177 5.13396 7.92427C5.13396 8.23677 5.40182 8.50463 5.71432 8.50463C6.29469 8.50463 11.0715 8.68321 11.0715 14.3082C11.0715 14.6207 11.3394 14.8886 11.6519 14.8886C11.9197 14.9332 12.1876 14.6654 12.1876 14.3529C12.1876 8.72785 17.009 8.54928 17.5447 8.54928H17.5894ZM11.6072 11.0939C10.8929 9.3975 9.59827 8.45999 8.39291 7.92427C9.68756 7.38855 10.8929 6.36176 11.6072 4.75461C12.3215 6.45105 13.6162 7.38855 14.8215 7.92427C13.5269 8.45999 12.3215 9.48678 11.6072 11.0939Z" fill="#C99846"/>
<path d="M12.4554 27.478C11.9197 27.478 7.09826 27.2994 7.09826 21.6744C7.09826 21.3619 6.8304 21.094 6.5179 21.094C6.2054 21.094 5.93754 21.3619 5.93754 21.6744C5.93754 27.2994 1.11608 27.478 0.580361 27.478C0.535718 27.478 0.535718 27.478 0.535718 27.478C0.223216 27.5226 0 27.7458 0 28.0583C0 28.3708 0.267859 28.6387 0.580361 28.6387C1.16072 28.6387 5.93754 28.8173 5.93754 34.4423C5.93754 34.7548 6.2054 35.0226 6.5179 35.0226C6.78576 35.1119 7.05362 34.8441 7.05362 34.4869C7.05362 28.8619 11.8751 28.6833 12.4108 28.6833H12.4554C12.7679 28.6833 13.0358 28.4155 13.0358 28.0583C13.0358 27.7458 12.7679 27.478 12.4554 27.478ZM6.47326 31.2726C5.71432 29.5762 4.46431 28.6387 3.25895 28.103C4.5536 27.5672 5.75897 26.5405 6.47326 24.9333C7.18755 26.6297 8.4822 27.5672 9.68756 28.103C8.39291 28.6387 7.18755 29.6655 6.47326 31.2726Z" fill="#C99846"/>
</g>
<defs>
<clipPath id="clip0_13_0">
<rect width="36" height="36" fill="white"/>
</clipPath>
</defs>
</svg>
