<svg width="37" height="37" viewBox="0 0 37 37" fill="none" xmlns="http://www.w3.org/2000/svg">
<path d="M33.2393 27.2083C33.2792 27.1617 33.3101 27.1081 33.3304 27.0502C34.8348 24.4518 35.627 21.5025 35.627 18.5C35.627 15.4975 34.8348 12.5482 33.3304 9.94982C33.3101 9.89193 33.2792 9.83832 33.2393 9.7917C31.0144 6.03966 27.4469 3.27319 23.2591 2.05234C23.2165 2.03292 23.1714 2.01959 23.125 2.01274C20.1007 1.15973 16.8994 1.15973 13.875 2.01274C13.8294 2.01922 13.7849 2.03186 13.7426 2.05032C9.55376 3.27109 5.98551 6.03841 3.76072 9.7917C3.72084 9.83832 3.68997 9.89193 3.66967 9.94982C2.16525 12.5482 1.37305 15.4975 1.37305 18.5C1.37305 21.5025 2.16525 24.4518 3.66967 27.0502C3.68997 27.1081 3.72084 27.1617 3.76072 27.2083C5.98381 30.9587 9.54839 33.7248 13.7334 34.9471C13.7776 34.9668 13.8244 34.9801 13.8724 34.9867C16.8977 35.8402 20.1001 35.8402 23.1253 34.9867C23.1758 34.9803 23.225 34.9664 23.2713 34.9453C27.4542 33.7223 31.0169 30.957 33.2393 27.2083V27.2083ZM19.0059 34.6025V27.3887H25.9182C25.1667 30.1376 24.0853 32.4218 22.77 34.0371C21.5422 34.3742 20.2786 34.564 19.0059 34.6025V34.6025ZM14.23 34.0365C12.9148 32.4218 11.8334 30.1379 11.0818 27.3881H17.9942V34.6019C16.7215 34.5634 15.4578 34.3736 14.23 34.0365V34.0365ZM2.3975 19.0053H4.62502V22.9805C4.62509 23.1146 4.67841 23.2432 4.77326 23.3381C4.86811 23.4329 4.99674 23.4862 5.13088 23.4863H9.26881C9.40293 24.4758 9.57695 25.4433 9.78912 26.3769H4.44869C3.17903 24.1219 2.47518 21.5926 2.3975 19.0059V19.0053ZM4.44984 10.6225H9.78941C9.57695 11.5561 9.40293 12.5239 9.2691 13.5131H5.13088C5.06441 13.5131 4.9986 13.5263 4.9372 13.5517C4.87581 13.5772 4.82003 13.6145 4.77306 13.6615C4.72609 13.7086 4.68884 13.7644 4.66343 13.8258C4.63803 13.8872 4.62498 13.9531 4.62502 14.0195V17.9941H2.3975C2.47518 15.4074 3.17903 12.8781 4.44869 10.623L4.44984 10.6225ZM17.9942 2.39749V9.61133H11.0818C11.8334 6.86234 12.9148 4.57817 14.23 2.96289C15.4578 2.62583 16.7215 2.43602 17.9942 2.39749V2.39749ZM22.77 2.96347C24.0853 4.57817 25.1667 6.86205 25.9182 9.6119H19.0059V2.39749C20.2786 2.43621 21.5422 2.62621 22.77 2.96347V2.96347ZM34.6025 17.9947H32.375V14.0195C32.3749 13.8854 32.3216 13.7568 32.2268 13.6619C32.1319 13.5671 32.0033 13.5137 31.8692 13.5137H27.7312C27.5971 12.5242 27.4231 11.5567 27.2109 10.623H32.5513C33.821 12.8781 34.5249 15.4074 34.6025 17.9941V17.9947ZM32.5502 26.3775H27.2106C27.4231 25.4439 27.5971 24.4761 27.7309 23.4869H31.8692C31.9356 23.4869 32.0014 23.4737 32.0628 23.4483C32.1242 23.4228 32.18 23.3855 32.227 23.3384C32.2739 23.2914 32.3112 23.2356 32.3366 23.1742C32.362 23.1128 32.3751 23.0469 32.375 22.9805V19.0059H34.6025C34.5249 21.5926 33.821 24.1219 32.5513 26.3769L32.5502 26.3775ZM19.0047 26.3775V23.4869H26.7094C26.5709 24.4787 26.3914 25.4465 26.1712 26.3775H19.0047ZM5.63674 22.4746V14.5254H31.3633V22.4746H5.63674ZM26.7094 13.5137H19.0059V10.623H26.172C26.3914 11.5538 26.5715 12.5219 26.7094 13.5137V13.5137ZM17.9933 10.623V13.5137H10.2906C10.4291 12.5219 10.6086 11.5541 10.8289 10.623H17.9933ZM10.2906 23.4863H17.9942V26.3769H10.828C10.6086 25.4459 10.4285 24.4781 10.2906 23.4863V23.4863ZM24.4131 33.4879C25.5744 31.5992 26.4355 29.5416 26.9655 27.3887H31.9342C30.1071 30.1406 27.4826 32.2684 24.4122 33.4867L24.4131 33.4879ZM31.9342 9.61133H26.9646C26.4343 7.4585 25.5733 5.40096 24.4122 3.51211C27.4823 4.73107 30.1066 6.85919 31.9333 9.61133H31.9342ZM12.5887 3.51211C11.4275 5.40093 10.5665 7.45847 10.0363 9.61133H5.0667C6.89351 6.85942 9.51777 4.73159 12.5878 3.51298L12.5887 3.51211ZM5.0667 27.3887H10.0354C10.5654 29.5415 11.4263 31.5991 12.5875 33.4879C9.51754 32.2689 6.8934 30.1408 5.0667 27.3887V27.3887Z" fill="#C99846"/>
<path d="M13.2359 19.4215L12.2305 16.3682H11.3864L10.375 19.4215L9.46273 16.3682H8.6123L9.9654 20.6318H10.7349L11.8085 17.4669L12.876 20.6318H13.6518L14.9983 16.3682H14.1481L13.2359 19.4215Z" fill="#C99846"/>
<path d="M19.5707 20.6318H20.3462L21.693 16.3682H20.8426L19.9306 19.4215L18.9252 16.3682H18.0811L17.0694 19.4215L16.1574 16.3682H15.307L16.6598 20.6318H17.4296L18.5032 17.4669L19.5707 20.6318Z" fill="#C99846"/>
<path d="M24.1243 20.6318L25.1976 17.4669L26.2651 20.6318H27.0409L28.3877 16.3682H27.5373L26.625 19.4215L25.6196 16.3682H24.7756L23.7641 19.4215L22.8518 16.3682H22.0017L23.3545 20.6318H24.1243Z" fill="#C99846"/>
</svg>
