<svg width="191" height="146" viewBox="0 0 191 146" fill="none" xmlns="http://www.w3.org/2000/svg">
<path d="M24.1557 95.1092C37.4706 100.574 52.9849 95.3687 65.9814 91.601C84.4392 86.2064 102.941 81.2245 121.377 75.6235C122.18 75.329 121.961 74.0584 121.071 74.3205C103.449 79.3336 86.0447 84.8244 68.4772 89.9569C53.9065 94.2267 39.4992 98.8547 24.3504 94.5875C23.9702 94.5446 23.8079 94.9794 24.1557 95.1092Z" fill="white" fill-opacity="0.5"/>
<path d="M23.5471 94.882C26.1414 93.77 29.0861 94.3738 31.7907 94.2935C33.496 94.2366 35.1144 94.1472 36.7327 94.0578C40.8273 93.7038 45.0193 93.089 49.0698 92.3224C57.1163 90.6697 64.9552 88.2461 72.7396 85.7031C88.6017 80.6275 104.311 74.9005 121.047 73.3212C121.873 73.233 121.621 72.0494 120.796 72.1376C104.037 73.5105 88.1761 79.379 72.3905 84.7804C64.1285 87.5413 55.812 90.1829 47.2659 91.8472C43.2154 92.6139 39.1104 93.2611 34.9613 93.4957C31.2794 93.8055 26.6723 92.8785 23.1876 94.2525C22.8294 94.416 23.1019 95.013 23.5471 94.882Z" fill="white" fill-opacity="0.5"/>
<path d="M120.865 75.1355C121.66 75.9272 126.619 80.1559 126.31 76.474C126.221 75.6486 125.286 74.705 124.872 73.9562C124.054 72.1651 123.389 70.2327 123.136 68.2561C122.477 63.6514 122.991 59.0884 126.375 55.5964C126.559 55.368 126.396 55.0098 126.125 55.2057C122.728 57.4052 122.159 61.8488 122.317 65.6721C122.386 67.8771 122.835 70.1249 123.522 72.2637C123.74 72.7413 125.505 75.9756 125.408 76.2364C124.607 78.1169 121.909 75.5249 120.985 75.081C120.93 74.9616 120.811 75.0161 120.865 75.1355Z" fill="white" fill-opacity="0.5"/>
<path d="M126.745 55.9325C125.154 52.7631 120.612 59.0921 119.974 60.5378C118.112 64.9942 118.081 72.5111 121.595 76.1011C121.932 76.5242 122.626 75.9909 122.202 75.5353C119.884 72.9862 119.476 68.7723 119.775 65.3175C119.881 63.9704 120.107 62.5688 120.594 61.2646C121.016 60.1343 124.536 53.6222 126.593 56.0739C126.561 56.1609 126.799 56.0519 126.745 55.9325Z" fill="white" fill-opacity="0.5"/>
<path d="M121.224 74.972C121.635 74.135 121.927 73.3524 122.165 72.4505C122.424 71.7549 122.836 70.9178 122.748 70.0924C122.78 70.0055 122.606 69.9406 122.574 70.0275C122.021 70.7127 121.87 71.6471 121.665 72.4621C121.373 73.2447 121.168 74.0597 121.017 74.9941C120.985 75.081 121.191 75.059 121.224 74.972Z" fill="white" fill-opacity="0.5"/>
<path d="M121.025 73.1149C121.339 72.5387 121.567 71.93 122 71.2993C122.314 70.7231 122.802 70.2119 123.116 69.6357C123.149 69.5487 123.094 69.4293 122.975 69.4838C121.781 70.0288 120.752 71.7249 120.59 72.9526C120.493 73.2135 120.873 73.2563 121.025 73.1149Z" fill="white" fill-opacity="0.5"/>
<path d="M125.45 75.8562C124.917 75.1618 124.145 74.5764 123.579 73.969C122.981 73.4486 122.535 72.7866 121.904 72.3531C121.73 72.2882 121.578 72.4297 121.72 72.5815C122.101 73.4173 122.873 74.0027 123.526 74.6426C124.124 75.1631 124.69 75.7705 125.473 76.0625C125.44 76.1495 125.505 75.9756 125.45 75.8562Z" fill="white" fill-opacity="0.5"/>
<path d="M121.585 69.7575C121.096 69.4759 120.726 69.1397 120.301 68.6842C119.964 68.261 119.714 67.8704 119.463 67.4797C119.376 67.4473 119.289 67.4148 119.257 67.5018C119.335 68.6205 120.357 69.5965 121.401 69.9859C121.661 70.0833 121.726 69.9094 121.585 69.7575Z" fill="white" fill-opacity="0.5"/>
<path d="M119.559 66.4259C120.159 67.7393 121.812 69.1489 123.256 68.9945C123.343 69.027 123.408 68.8531 123.321 68.8206C122.745 68.5065 122.017 68.3339 121.473 67.9328C120.843 67.4993 120.277 66.8919 119.798 66.3169C119.744 66.1975 119.537 66.2195 119.559 66.4259Z" fill="white" fill-opacity="0.5"/>
<path d="M121.024 65.6855C121.024 65.6855 120.939 65.6535 121.024 65.6855C120.992 65.7712 121.024 65.6855 121.024 65.6855Z" fill="white" fill-opacity="0.5"/>
<path d="M122.742 66.1276C122.404 65.7045 122.002 65.4553 121.6 65.2061C120.969 64.7726 120.577 64.2301 120.066 63.7421C119.783 63.4383 119.447 63.8082 119.643 64.0794C120.23 64.8932 121.59 66.2924 122.709 66.2146C122.709 66.2146 122.828 66.1601 122.742 66.1276Z" fill="white" fill-opacity="0.5"/>
<path d="M120.139 61.689C120.877 61.5683 121.452 61.0895 122.027 60.6107C122.569 60.2188 123.166 59.9463 123.568 59.4025C123.632 59.2286 123.491 59.0768 123.372 59.1313C122.633 59.2519 122.058 59.7308 121.483 60.2096C120.941 60.6015 120.344 60.874 119.943 61.4177C119.823 61.4722 120.019 61.7435 120.139 61.689Z" fill="white" fill-opacity="0.5"/>
<path d="M121.211 59.6126C121.917 59.5789 122.633 59.252 123.176 58.8601C123.686 58.5551 124.283 58.2826 124.423 57.6415C124.455 57.5546 124.314 57.4027 124.227 57.3703C123.662 57.5558 123.294 58.0126 122.784 58.3176C122.274 58.6225 121.677 58.895 121.08 59.1675C120.895 59.3959 121.004 59.6347 121.211 59.6126Z" fill="white" fill-opacity="0.5"/>
<path d="M125.843 55.695C124.336 57.6091 122.634 60.0449 122.399 62.5327C122.334 62.7066 122.595 62.804 122.747 62.6626C123.971 60.4447 124.673 58.0322 126.158 55.9117C126.256 55.6509 125.94 55.4341 125.843 55.695Z" fill="white" fill-opacity="0.5"/>
<path d="M124.21 74.4026C130.251 75.4686 136.443 75.6002 142.494 76.3729C147.992 77.0379 153.305 77.9312 158.737 78.7701C166.647 80.1374 177.154 81.9786 184.229 77.0904C184.5 76.8945 184.282 76.4168 183.956 76.4934C179.147 77.9673 174.76 79.1037 169.687 78.8944C165.114 78.6733 160.648 77.8981 156.182 77.123C145.849 75.3467 134.734 73.2783 124.253 74.0223C123.927 74.0989 124.004 74.4246 124.21 74.4026Z" fill="white" fill-opacity="0.5"/>
<path d="M176.388 77.928C178.669 78.1852 181.59 77.7896 183.38 76.1792C183.651 75.9833 183.466 75.4187 183.021 75.5498C181.924 75.8339 180.904 76.4438 179.775 76.8148C178.646 77.1859 177.549 77.47 176.365 77.7217C176.192 77.6568 176.214 77.8631 176.388 77.928Z" fill="white" fill-opacity="0.5"/>
<path d="M176.907 76.5369C178.569 76.8602 181.067 76.802 182.206 75.3447C182.39 75.1163 182.162 74.932 182.042 74.9865C181.217 75.0747 180.523 75.608 179.665 75.7831C178.774 76.0452 177.862 76.1009 176.95 76.1566C176.776 76.0917 176.646 76.4395 176.907 76.5369Z" fill="white" fill-opacity="0.5"/>
<path d="M177.818 75.6882C178.589 75.4806 179.653 75.2834 180.434 74.7826C180.554 74.7281 180.499 74.6087 180.38 74.6632C179.554 74.7513 178.599 75.1873 177.763 75.5688C177.644 75.6233 177.699 75.7427 177.818 75.6882Z" fill="white" fill-opacity="0.5"/>
<path d="M177.111 74.9289C177.708 74.6564 178.533 74.5682 179.185 74.4152C179.717 74.3166 180.358 74.4568 180.639 73.9675C180.672 73.8806 180.737 73.7067 180.563 73.6418C180.139 73.1862 179.542 73.4587 178.977 73.6443C178.206 73.8518 177.631 74.3307 176.915 74.6576C176.882 74.7446 176.904 74.951 177.111 74.9289Z" fill="white" fill-opacity="0.5"/>
<path d="M179.453 72.6333C169.56 74.1911 160.381 73.836 150.472 72.5153C141.411 71.3127 132.176 70.0453 123.086 71.3085C122.467 71.3746 122.729 72.265 123.229 72.2533C133.221 71.2276 143.064 72.7223 152.983 73.7497C161.707 74.5292 171.126 75.5682 179.453 72.6333C179.54 72.6658 179.573 72.5788 179.453 72.6333Z" fill="white" fill-opacity="0.5"/>
<path d="M28.0182 92.1921C35.2418 92.2135 43.0586 89.5835 50.0293 87.6283C57.5969 85.4007 65.0556 82.9342 72.6012 80.5002C87.6599 75.7192 103.111 71.4806 119.047 72.5748C119.927 72.606 120.001 71.3459 119.122 71.3146C103.619 70.3828 88.5919 74.2839 73.9134 79.1078C66.3678 81.5418 58.9636 84.1277 51.3635 86.4423C47.5634 87.5996 43.5895 88.692 39.6804 89.6105C35.7714 90.529 31.7638 90.9154 27.9092 91.9533C27.7678 91.8014 27.7249 92.1816 28.0182 92.1921Z" fill="white" fill-opacity="0.5"/>
<path d="M30.7645 90.9386C30.4063 91.1021 30.0481 91.2656 29.7768 91.4616C29.7443 91.5485 29.7444 91.5485 29.8313 91.581C30.244 91.5369 30.6022 91.3734 30.9604 91.2099C31.0798 91.1554 31.0033 90.8296 30.7645 90.9386Z" fill="white" fill-opacity="0.5"/>
<path d="M28.3648 91.5289C29.5772 88.8115 32.9553 88.7845 35.5938 88.0852C39.5678 86.9928 43.4548 85.868 47.3418 84.7431C54.4318 82.7335 62.185 81.0704 68.7625 77.7797C69.0013 77.6707 68.8703 77.2256 68.5445 77.3021C61.9205 78.5942 55.5052 81.45 49.0887 83.513C42.2271 85.7069 35.115 87.5103 28.1988 89.5848C28.0794 89.6393 28.047 89.7263 28.069 89.9326C28.1352 90.5517 28.1468 91.0513 28.2129 91.6704C28.2454 91.5834 28.3648 91.5289 28.3648 91.5289Z" fill="white" fill-opacity="0.5"/>
<path d="M68.8819 77.7253C77.0037 75.6054 84.744 72.6497 93.0514 71.0943C101.684 69.4625 110.341 68.8299 119.096 68.7295C119.889 68.7282 119.995 67.3811 119.17 67.4693C110.534 67.5153 101.922 68.5605 93.4953 70.1703C85.2425 71.8451 76.3706 73.5859 68.8599 77.5189C68.6535 77.5409 68.7625 77.7797 68.8819 77.7253Z" fill="white" fill-opacity="0.5"/>
<path d="M31.5066 93.1969C31.517 92.9036 31.4729 92.4908 31.4833 92.1975C31.4613 91.9912 31.5262 91.8173 31.3848 91.6654C31.3303 91.546 31.2433 91.5136 31.1888 91.3942C31.1019 91.3617 31.0149 91.3293 30.9825 91.4162C30.95 91.5032 30.8306 91.5577 30.8527 91.764C30.7877 91.9379 30.8422 92.0573 30.8643 92.2637C30.9084 92.6764 30.898 92.9697 30.9421 93.3824C30.9641 93.5887 31.4962 93.4902 31.5066 93.1969Z" fill="white" fill-opacity="0.5"/>
<path d="M36.1131 86.694C34.0391 87.2078 31.9107 87.6021 29.6837 87.4644C27.7175 87.424 25.8267 86.9164 23.871 86.5827C23.784 86.5502 23.7191 86.7241 23.806 86.7566C27.4151 88.4998 32.4765 88.2095 36.1896 87.0198C36.309 86.9653 36.3194 86.672 36.1131 86.694Z" fill="white" fill-opacity="0.5"/>
<path d="M24.8923 86.7657C25.204 84.6036 26.6056 84.8296 28.5172 84.7506C30.7546 84.595 32.9051 84.4071 35.0011 84.0997C39.193 83.4849 43.276 82.6313 47.2499 81.5389C55.046 79.4955 62.602 76.7682 70.267 74.2797C85.7489 69.1613 101.916 64.5958 118.322 67.3511C118.877 67.4589 118.908 66.579 118.354 66.4712C85.8015 61.0579 56.8223 83.2295 24.8341 84.2675C24.6278 84.2895 24.5084 84.344 24.5304 84.5504C24.4447 85.3109 24.4784 86.0169 24.3926 86.7774C24.3822 87.0707 24.7949 87.0266 24.8923 86.7657Z" fill="white" fill-opacity="0.5"/>
<path d="M122.822 68.8323C131.63 68.0583 139.919 68.6755 148.665 69.6613C156.389 70.464 164.809 71.5264 172.355 69.0924C172.474 69.0379 172.452 68.8315 172.333 68.886C163.633 69.8988 155.389 69.6943 146.61 68.7955C138.886 67.9928 130.498 66.8435 122.745 68.5066C122.539 68.5286 122.615 68.8544 122.822 68.8323Z" fill="white" fill-opacity="0.5"/>
<path d="M170.959 72.8312C172.654 73.0675 174.305 72.8912 175.956 72.7148C177.607 72.5384 179.344 72.3945 180.81 71.6536C180.929 71.5991 180.907 71.3928 180.733 71.3279C179.18 71.2434 177.605 71.7455 176.074 71.8673C174.304 72.0982 172.544 72.0357 170.861 72.2991C170.622 72.408 170.666 72.8208 170.959 72.8312Z" fill="white" fill-opacity="0.5"/>
<path d="M172.489 71.9163C173.63 72.0449 174.749 71.9672 175.9 71.8024C176.932 71.6922 178.257 71.5924 179.277 70.9825C179.516 70.8735 179.472 70.4608 179.178 70.4504C178.092 70.4412 177.05 70.8448 175.986 71.0419C174.835 71.2067 173.597 71.3389 172.478 71.4167C172.239 71.5257 172.283 71.9384 172.489 71.9163Z" fill="white" fill-opacity="0.5"/>
<path d="M172.532 71.5361C173.738 71.4908 174.889 71.3261 176.04 71.1613C177.105 70.9642 178.223 70.8864 179.124 70.331C179.308 70.1026 179.112 69.8314 178.938 69.7665C177.885 69.6703 176.842 70.0739 175.865 70.3035C174.714 70.4682 173.563 70.6329 172.466 70.917C172.173 70.9066 172.152 71.4932 172.532 71.5361Z" fill="white" fill-opacity="0.5"/>
<path d="M172.183 70.6133C173.009 70.5251 173.921 70.4694 174.746 70.3812C175.452 70.3476 176.332 70.3788 177.049 70.0518C177.288 69.9428 177.211 69.617 177.037 69.5521C176.342 69.2925 175.451 69.5546 174.745 69.5883C173.833 69.644 172.921 69.6997 172.095 69.7879C171.476 69.854 171.684 70.625 172.183 70.6133Z" fill="white" fill-opacity="0.5"/>
<path d="M171.422 69.7346C172.443 69.9177 173.442 69.8944 174.474 69.7842C175.299 69.696 176.505 69.6507 177.145 68.998C177.297 68.8565 177.155 68.7047 177.068 68.6722C176.221 68.5541 175.298 68.9031 174.473 68.9913C173.441 69.1015 172.442 69.1248 171.475 69.0611C170.975 69.0727 170.922 69.7463 171.422 69.7346Z" fill="white" fill-opacity="0.5"/>
<path d="M171.269 69.0831C172.681 69.0158 174.299 68.9264 175.634 68.5333C175.873 68.4243 175.829 68.0116 175.536 68.0012C174.102 67.8622 172.56 68.2773 171.202 68.4641C170.757 68.5951 170.856 69.1272 171.269 69.0831Z" fill="white" fill-opacity="0.5"/>
<path d="M123.178 67.0829C133.073 67.111 142.753 68.2475 152.607 69.4488C152.814 69.4267 152.944 69.0789 152.65 69.0685C143.088 67.0847 132.975 66.5789 123.166 66.5833C122.873 66.5728 122.852 67.1594 123.178 67.0829Z" fill="white" fill-opacity="0.5"/>
<path d="M25.335 85.0488C22.1399 84.0544 18.3411 86.0046 16.0871 82.4887C16.0326 82.3693 15.8263 82.3914 15.8483 82.5977C16.5929 86.4418 22.6732 84.7488 25.2376 85.3096C25.4115 85.3745 25.5089 85.1137 25.335 85.0488Z" fill="white" fill-opacity="0.5"/>
<path d="M16.7178 82.9222C16.348 82.586 16.2494 82.0539 16.4117 81.6192C16.509 81.3583 16.0743 81.1961 15.9769 81.4569C15.7497 82.0656 15.9898 82.7495 16.5335 83.1506C16.6205 83.183 16.8917 82.9871 16.7178 82.9222Z" fill="white" fill-opacity="0.5"/>
<path d="M16.4453 82.3252C25.8518 82.0717 35.3972 80.3841 44.5404 78.4473C53.5966 76.478 63.3043 74.3557 71.6949 70.4539C71.8143 70.3994 71.7377 70.0737 71.6183 70.1282C62.5193 72.4777 53.6823 75.7175 44.4197 77.7088C35.1572 79.7001 25.8389 80.7791 16.4882 81.945C16.2494 82.054 16.239 82.3473 16.4453 82.3252Z" fill="white" fill-opacity="0.5"/>
<path d="M72.7034 69.3444C80.5007 68.094 88.0683 65.8664 95.9746 64.8548C104.207 63.7667 112.223 63.7868 120.437 64.8712C120.817 64.9141 120.957 64.273 120.577 64.2301C112.993 62.7863 105.172 63.0374 97.5917 63.9724C89.2727 65.0281 80.6396 66.66 72.6813 69.1381C72.475 69.1601 72.497 69.3665 72.7034 69.3444Z" fill="white" fill-opacity="0.5"/>
<path d="M122.163 64.2277C122.076 64.1952 122.043 64.2822 122.043 64.2822C122.13 64.3146 122.163 64.2277 122.163 64.2277Z" fill="white" fill-opacity="0.5"/>
<path d="M122.12 64.6079C125.955 64.9496 130.005 64.1829 133.905 64.3507C137.838 64.4315 141.847 64.8381 145.801 65.1252C152.797 65.7553 161.642 67.2732 168.449 64.9598C168.688 64.8508 168.698 64.5575 168.405 64.5471C164.331 64.3144 160.193 65.0486 156 64.8704C151.981 64.7572 148.059 64.3831 144.105 64.0959C140.15 63.8088 136.196 63.5216 132.231 63.5277C128.972 63.5002 125.16 63.3649 122.066 64.4885C122.033 64.5754 122.001 64.6624 122.12 64.6079Z" fill="white" fill-opacity="0.5"/>
<path d="M167.171 67.8512C169.997 68.5094 174.004 68.123 176.599 67.011C176.599 67.011 176.631 66.9241 176.544 66.8916C175.045 66.9265 173.568 67.1678 172.124 67.3221C170.506 67.4115 168.865 67.2945 167.214 67.4709C167.062 67.6123 167.085 67.8187 167.171 67.8512Z" fill="white" fill-opacity="0.5"/>
<path d="M168.256 67.0674C169.549 67.0545 170.787 66.9223 172.145 66.7355C173.589 66.5812 175.088 66.5463 176.424 66.1532C176.543 66.0987 176.489 65.9793 176.402 65.9468C175.141 65.8727 173.871 66.092 172.513 66.2787C171.069 66.433 169.624 66.5873 168.234 66.8611C168.202 66.948 168.137 67.1219 168.256 67.0674Z" fill="white" fill-opacity="0.5"/>
<path d="M167.592 65.9279C168.678 65.9371 169.732 66.0332 170.731 66.0099C171.644 65.9542 172.698 66.0503 173.675 65.8207C173.881 65.7986 173.892 65.5053 173.718 65.4404C172.816 65.2029 171.784 65.3131 170.872 65.3688C169.785 65.3596 168.754 65.4698 167.635 65.5476C167.342 65.5372 167.299 65.9175 167.592 65.9279Z" fill="white" fill-opacity="0.5"/>
<path d="M164.311 65.694C167.222 65.5917 170.297 65.8477 173.196 65.2457C173.315 65.1912 173.293 64.9849 173.174 65.0394C170.306 64.7614 167.2 65.3854 164.311 65.694C164.344 65.607 164.311 65.694 164.311 65.694Z" fill="white" fill-opacity="0.5"/>
<path d="M165.168 64.7259C166.634 64.7779 168.22 64.7755 169.719 64.7406C171.044 64.6408 172.478 64.7798 173.781 64.4736C174.02 64.3646 174.031 64.0713 173.737 64.0609C172.423 63.8674 170.946 64.1087 169.621 64.2085C168.089 64.3303 166.645 64.4846 165.081 64.6935C165.113 64.6065 165.168 64.7259 165.168 64.7259Z" fill="white" fill-opacity="0.5"/>
<path d="M166.285 63.8552C167.459 63.8968 168.49 63.7866 169.609 63.7088C170.641 63.5986 171.988 63.7051 172.943 63.2691C173.182 63.1602 173.105 62.8344 172.899 62.8564C171.91 62.5864 170.9 62.903 169.869 63.0132C168.631 63.1455 167.393 63.2777 166.209 63.5294C166.003 63.5515 165.992 63.8448 166.285 63.8552Z" fill="white" fill-opacity="0.5"/>
<path d="M165.654 62.6287C168.097 62.4511 170.596 62.3929 173.039 62.2153C173.05 61.922 173.028 61.7157 173.038 61.4224C172.625 61.4665 172.267 61.63 171.854 61.6741C171.648 61.6961 171.757 61.9349 171.844 61.9674C172.311 62.0427 172.572 62.14 173.039 62.2153C173.507 62.2907 173.625 61.4432 173.125 61.4548C170.572 61.3936 168.009 61.6257 165.587 62.0096C165.142 62.1407 165.328 62.7052 165.654 62.6287Z" fill="white" fill-opacity="0.5"/>
<path d="M165.901 61.4334C166.901 61.4102 167.987 61.4194 168.986 61.3961C169.866 61.4273 170.746 61.4585 171.582 61.0771C171.701 61.0226 171.712 60.7293 171.538 60.6643C170.668 60.3398 169.724 60.4825 168.724 60.5058C167.812 60.5615 166.813 60.5848 165.9 60.6405C165.488 60.6846 165.521 61.3906 165.901 61.4334Z" fill="white" fill-opacity="0.5"/>
<path d="M169.485 60.5915C170.071 60.6123 170.69 60.5462 171.277 60.567C171.777 60.5553 172.363 60.5762 172.808 60.4451C173.047 60.3361 172.971 60.0104 172.797 59.9455C172.275 59.7508 171.743 59.8493 171.243 59.861C170.657 59.8402 170.07 59.8193 169.538 59.9179C169.038 59.9296 168.985 60.6031 169.485 60.5915Z" fill="white" fill-opacity="0.5"/>
<path d="M178.666 69.1694C179.655 69.4395 181.164 69.1113 181.499 67.9485C181.532 67.8615 181.39 67.7097 181.358 67.7966C180.967 68.0471 180.631 68.4169 180.24 68.6673C179.763 68.8853 179.23 68.9839 178.731 68.9955C178.644 68.9631 178.579 69.137 178.666 69.1694Z" fill="white" fill-opacity="0.5"/>
<path d="M177.817 68.2583C179.001 68.0067 180.184 67.755 181.205 67.1451C181.324 67.0906 181.27 66.9712 181.183 66.9388C179.977 66.9841 178.902 67.4746 177.741 67.9326C177.589 68.074 177.611 68.2804 177.817 68.2583Z" fill="white" fill-opacity="0.5"/>
<path d="M177.294 67.2707C177.859 67.0851 178.423 66.8996 178.956 66.801C179.401 66.67 179.933 66.5714 180.237 66.2885C180.356 66.234 180.247 65.9952 180.128 66.0497C179.66 65.9744 179.15 66.2793 178.618 66.3779C178.141 66.5959 177.608 66.6945 177.131 66.9125C176.924 66.9345 177.088 67.2927 177.294 67.2707Z" fill="white" fill-opacity="0.5"/>
<path d="M176.978 66.2609C177.868 65.9989 178.813 65.8562 179.594 65.3553C179.627 65.2684 179.659 65.1814 179.54 65.2359C178.66 65.2047 177.792 65.6731 176.901 65.9352C176.662 66.0442 176.739 66.3699 176.978 66.2609Z" fill="white" fill-opacity="0.5"/>
<path d="M176.444 65.5666C176.977 65.468 177.476 65.4564 177.921 65.3253C178.334 65.2812 178.921 65.3021 179.311 65.0516C179.463 64.9102 179.441 64.7038 179.267 64.6389C178.8 64.5636 178.322 64.7816 177.91 64.8257C177.378 64.9243 176.932 65.0553 176.4 65.1539C176.075 65.2304 176.206 65.6756 176.444 65.5666Z" fill="white" fill-opacity="0.5"/>
<path d="M176.084 64.1441C176.496 64.1 176.996 64.0884 177.409 64.0443C177.822 64.0002 178.289 64.0755 178.647 63.912C178.766 63.8576 178.712 63.7382 178.625 63.7057C178.277 63.5759 177.832 63.7069 177.419 63.751C176.92 63.7627 176.474 63.8937 175.975 63.9053C175.801 63.8404 175.877 64.1662 176.084 64.1441Z" fill="white" fill-opacity="0.5"/>
<path d="M175.593 63.0695C176.212 63.0034 176.799 63.0242 177.331 62.9256C177.45 62.8711 177.428 62.6648 177.309 62.7193C176.722 62.6985 176.103 62.7646 175.484 62.8307C175.365 62.8852 175.474 63.124 175.593 63.0695Z" fill="white" fill-opacity="0.5"/>
<path d="M174.95 61.3434C175.569 61.2773 176.188 61.2112 176.807 61.145C177.307 61.1334 177.926 61.0673 178.316 60.8168C178.436 60.7623 178.381 60.6429 178.207 60.578C177.773 60.4157 177.208 60.6013 176.676 60.6999C176.024 60.8529 175.492 60.9515 174.841 61.1046C174.754 61.0722 174.83 61.3979 174.95 61.3434Z" fill="white" fill-opacity="0.5"/>
<path d="M174.763 59.9859C175.643 60.0171 176.99 60.1237 177.662 59.384C177.814 59.2425 177.673 59.0907 177.466 59.1127C177.054 59.1568 176.663 59.4072 176.218 59.5383C175.773 59.6693 175.241 59.7679 174.773 59.6926C174.654 59.7471 174.644 60.0404 174.763 59.9859Z" fill="white" fill-opacity="0.5"/>
<path d="M175.077 59.4097C175.49 59.3656 175.989 59.354 176.402 59.3099C176.728 59.2334 177.228 59.2217 177.444 58.9064C177.596 58.7649 177.52 58.4392 177.313 58.4612C177.139 58.3963 176.868 58.5923 176.662 58.6143C176.542 58.6688 176.477 58.8427 176.651 58.9076C176.825 58.9725 177.064 58.8635 177.238 58.9284C177.151 58.896 177.151 58.896 177.097 58.7766C177.129 58.6896 177.074 58.5702 177.107 58.4833C177.074 58.5702 176.749 58.6468 176.662 58.6143C176.455 58.6364 176.336 58.6909 176.13 58.7129C175.804 58.7894 175.424 58.7466 175.098 58.8231C174.827 59.0191 174.784 59.3993 175.077 59.4097Z" fill="white" fill-opacity="0.5"/>
<path d="M174.859 58.9321C175.13 58.7361 175.489 58.5727 175.814 58.4961C176.14 58.4196 176.401 58.5169 176.64 58.4079C176.759 58.3534 176.824 58.1795 176.65 58.1146C175.987 57.7681 175.119 58.2365 174.663 58.6608C174.598 58.8347 174.707 59.0735 174.859 58.9321Z" fill="white" fill-opacity="0.5"/>
<path d="M166.726 60.5523C158.84 60.9773 151.312 60.4458 143.403 59.8715C136.548 59.3933 129.096 59.1876 122.572 61.8047C122.246 61.8812 122.432 62.4458 122.757 62.3692C130.293 60.2285 137.668 60.1085 145.435 60.531C152.41 60.9547 159.83 62.0403 166.661 60.7262C166.835 60.7911 166.813 60.5848 166.726 60.5523Z" fill="white" fill-opacity="0.5"/>
<path d="M125.908 55.5211C133.134 57.1284 140.845 56.6385 148.09 56.0733C156.659 55.4083 165.109 54.7978 173.69 54.6324C173.983 54.6428 174.026 54.2626 173.733 54.2522C166.128 53.395 158.396 54.4714 150.793 55.2001C142.365 56.017 134.349 55.9968 125.886 55.3147C125.744 55.1629 125.734 55.4562 125.908 55.5211Z" fill="white" fill-opacity="0.5"/>
<path d="M165.8 59.3154C167.277 59.0742 168.754 58.8329 170.199 58.6786C171.643 58.5243 173.229 58.5219 174.597 58.0418C174.716 57.9873 174.781 57.8134 174.607 57.7485C173.206 57.5225 171.783 57.8832 170.393 58.1569C168.83 58.3657 167.288 58.7809 165.746 59.196C165.659 59.1636 165.681 59.3699 165.8 59.3154Z" fill="white" fill-opacity="0.5"/>
<path d="M166.135 58.1527C168.927 58.1049 172.044 57.9806 174.77 57.3137C174.889 57.2593 174.986 56.9984 174.78 57.0204C171.967 56.8619 168.926 57.3119 166.178 57.7724C165.852 57.849 165.929 58.1747 166.135 58.1527Z" fill="white" fill-opacity="0.5"/>
<path d="M167.198 57.1625C168.295 56.8784 169.479 56.6267 170.597 56.549C171.716 56.4712 172.944 56.6322 174.095 56.4675C174.214 56.413 174.279 56.2391 174.105 56.1742C172.019 55.3953 169.174 56.1167 167.144 57.0431C167.057 57.0107 167.079 57.217 167.198 57.1625Z" fill="white" fill-opacity="0.5"/>
<path d="M167.588 56.1191C168.771 55.8675 170.042 55.6482 171.248 55.6029C172.247 55.5796 173.41 55.9146 174.387 55.685C174.593 55.6629 174.604 55.3696 174.43 55.3047C173.506 54.8608 172.213 54.8736 171.181 54.9839C169.856 55.0837 168.673 55.3353 167.424 55.7609C167.186 55.8699 167.349 56.2281 167.588 56.1191Z" fill="white" fill-opacity="0.5"/>
<path d="M167.336 54.9355C168.303 54.9991 169.27 55.0628 170.269 55.0396C171.062 55.0383 171.91 55.1565 172.713 54.862C172.832 54.8075 172.81 54.6011 172.636 54.5362C171.854 54.2441 170.822 54.3544 169.997 54.4425C169.084 54.4983 168.204 54.467 167.292 54.5228C167.086 54.5448 167.13 54.9575 167.336 54.9355Z" fill="white" fill-opacity="0.5"/>
<path d="M165.184 54.3306C167.541 54.1205 169.888 54.2038 172.234 54.2871C174.081 54.382 176.146 54.9545 178.003 54.7561C178.122 54.7016 178.187 54.5277 178.013 54.4628C176.252 53.6074 173.786 53.5786 171.907 53.5706C169.648 53.5198 167.378 53.7623 165.162 54.1242C165.043 54.1787 165.065 54.3851 165.184 54.3306Z" fill="white" fill-opacity="0.5"/>
<path d="M170.181 54.2142C171.593 54.1468 173.027 54.2858 174.309 54.5662C175.711 54.7922 176.983 55.3659 178.33 55.4725C178.504 55.5374 178.601 55.2765 178.46 55.1247C176.133 53.6618 172.722 53.7757 170.159 54.0078C169.953 54.0299 169.975 54.2362 170.181 54.2142Z" fill="white" fill-opacity="0.5"/>
<path d="M173.105 55.4045C174.072 55.4682 175.038 55.5319 175.94 55.7694C176.755 55.9746 177.506 56.3536 178.266 56.4393C178.353 56.4718 178.537 56.2434 178.363 56.1785C177.711 55.5386 176.689 55.3555 175.842 55.2373C174.907 55.0867 173.941 55.023 172.941 55.0463C172.909 55.1333 172.898 55.4266 173.105 55.4045Z" fill="white" fill-opacity="0.5"/>
<path d="M174.475 56.5104C174.997 56.7051 175.551 56.8129 176.105 56.9206C176.605 56.909 177.159 57.0168 177.582 56.6794C177.701 56.6249 177.647 56.5055 177.56 56.473C177.125 56.3108 176.593 56.4093 176.18 56.4534C175.594 56.4326 175.127 56.3573 174.573 56.2495C174.344 56.0652 174.214 56.413 174.475 56.5104Z" fill="white" fill-opacity="0.5"/>
<path d="M176.366 57.018C176.421 57.1374 176.594 57.2023 176.681 57.2348C176.768 57.2672 176.801 57.1803 176.714 57.1478C176.659 57.0284 176.605 56.909 176.431 56.8441C176.431 56.8441 176.279 56.9855 176.366 57.018Z" fill="white" fill-opacity="0.5"/>
<path d="M180.691 65.0712C181.223 64.9726 181.701 64.7546 182.146 64.6236C182.504 64.4601 183.036 64.3615 183.198 63.9268C183.231 63.8398 183.176 63.7204 183.089 63.688C182.655 63.5257 182.231 63.8631 181.873 64.0266C181.396 64.2446 181.005 64.495 180.582 64.8324C180.376 64.8544 180.485 65.0932 180.691 65.0712Z" fill="white" fill-opacity="0.5"/>
<path d="M180.026 63.9317C180.472 63.8007 180.971 63.789 181.416 63.658C181.742 63.5814 182.242 63.5698 182.459 63.2545C182.491 63.1675 182.524 63.0806 182.35 63.0157C182.034 62.7989 181.644 63.0493 181.318 63.1259C180.873 63.2569 180.395 63.4749 179.863 63.5735C179.831 63.6604 179.907 63.9862 180.026 63.9317Z" fill="white" fill-opacity="0.5"/>
<path d="M180.177 62.9973C180.503 62.9207 180.948 62.7897 181.274 62.7132C181.513 62.6042 181.925 62.5601 182.023 62.2992C182.088 62.1253 182.033 62.0059 181.946 61.9735C181.685 61.8761 181.327 62.0396 181.088 62.1486C180.73 62.3121 180.372 62.4756 180.046 62.5521C179.807 62.6611 179.971 63.0193 180.177 62.9973Z" fill="white" fill-opacity="0.5"/>
<path d="M179.97 62.2264C180.502 62.1278 181.208 62.0941 181.544 61.7243C181.576 61.6373 181.609 61.5504 181.522 61.5179C181 61.3232 180.371 61.6826 179.806 61.8682C179.6 61.8902 179.676 62.216 179.97 62.2264Z" fill="white" fill-opacity="0.5"/>
<path d="M180.186 61.911C180.512 61.8344 180.696 61.6061 180.881 61.3777C181.065 61.1493 181.043 60.9429 180.847 60.6716C180.792 60.5522 180.673 60.6067 180.641 60.6937C180.576 60.8676 180.543 60.9545 180.478 61.1284C180.413 61.3023 180.262 61.4438 180.142 61.4983C179.816 61.5748 179.947 62.02 180.186 61.911Z" fill="white" fill-opacity="0.5"/>
<path d="M180.533 61.2479C180.511 61.0415 180.576 60.8676 180.554 60.6613C180.532 60.4549 180.151 60.4121 180.086 60.5859C180.022 60.7598 180.044 60.9662 179.979 61.1401C179.903 61.6073 180.49 61.6281 180.533 61.2479Z" fill="white" fill-opacity="0.5"/>
<path d="M182.746 73.3669C183.843 73.0828 185.004 72.6247 185.709 71.7981C185.861 71.6567 185.632 71.4723 185.48 71.6138C184.525 72.0498 183.625 72.6051 182.615 72.9217C182.322 72.9113 182.42 73.4434 182.746 73.3669Z" fill="white" fill-opacity="0.5"/>
<path d="M180.714 72.7074C181.571 72.5323 182.375 72.2377 183.211 71.8563C183.927 71.5293 184.73 71.2347 185.218 70.7235C185.251 70.6365 185.196 70.5171 185.077 70.5716C184.338 70.6922 183.644 71.2256 182.96 71.4656C182.157 71.7601 181.408 72.1741 180.605 72.4686C180.485 72.5231 180.594 72.7619 180.714 72.7074Z" fill="white" fill-opacity="0.5"/>
<path d="M180.614 71.3824C181.298 71.1423 181.982 70.9023 182.579 70.6298C183.176 70.3573 183.827 70.2042 184.283 69.7799C184.402 69.7254 184.293 69.4866 184.174 69.5411C183.555 69.6072 182.925 69.9667 182.361 70.1522C181.677 70.3922 181.047 70.7517 180.418 71.1111C180.211 71.1331 180.407 71.4044 180.614 71.3824Z" fill="white" fill-opacity="0.5"/>
<path d="M179.678 70.4388C180.536 70.2636 181.307 70.0561 182.078 69.8485C182.762 69.6084 183.533 69.4009 184.053 68.8026C184.205 68.6612 184.009 68.3899 183.89 68.4444C183.271 68.5106 182.641 68.87 182.044 69.1425C181.241 69.437 180.437 69.7315 179.547 69.9936C179.308 70.1026 179.352 70.5153 179.678 70.4388Z" fill="white" fill-opacity="0.5"/>
<path d="M180.284 69.08C181.023 68.9594 181.707 68.7194 182.478 68.5118C183.042 68.3263 183.661 68.2601 184.204 67.8682C184.356 67.7268 184.247 67.488 184.04 67.51C183.367 67.4568 182.683 67.6968 182.086 67.9693C181.434 68.1224 180.75 68.3624 180.066 68.6024C179.741 68.679 179.959 69.1566 180.284 69.08Z" fill="white" fill-opacity="0.5"/>
<path d="M180.66 73.381C181.627 73.4447 182.604 73.215 183.331 72.5948C183.451 72.5403 183.516 72.3664 183.461 72.247C183.407 72.1276 183.407 72.1276 183.265 71.9757C183.178 71.9433 183.004 71.8783 182.885 71.9328C182.136 72.3468 181.507 72.7062 180.594 72.7619C180.214 72.7191 180.248 73.4251 180.66 73.381Z" fill="white" fill-opacity="0.5"/>
<path d="M125.122 60.28C127.207 59.473 129.292 59.4589 131.507 59.097C131.627 59.0425 131.572 58.9231 131.485 58.8907C129.41 58.6114 127.033 59.4081 125.122 60.28C125.068 60.1606 125.122 60.28 125.122 60.28Z" fill="white" fill-opacity="0.5"/>
<path d="M125.218 59.2262C126.163 59.0835 127.076 59.0278 128.107 58.9176C128.933 58.8294 129.845 58.7737 130.648 58.4792C130.768 58.4247 130.746 58.2183 130.626 58.2728C129.746 58.2416 128.889 58.4167 128.118 58.6243C127.173 58.767 126.228 58.9096 125.283 59.0523C125.022 58.955 125.044 59.1613 125.218 59.2262Z" fill="white" fill-opacity="0.5"/>
<path d="M124.75 58.3579C125.782 58.2477 126.781 58.2244 127.78 58.2012C128.573 58.1999 129.508 58.3506 130.279 58.143C130.398 58.0885 130.463 57.9146 130.289 57.8497C129.539 57.4707 128.388 57.6354 127.475 57.6911C126.563 57.7468 125.618 57.8895 124.673 58.0322C124.608 58.2061 124.663 58.3255 124.75 58.3579Z" fill="white" fill-opacity="0.5"/>
<path d="M125.845 57.2808C126.693 57.399 127.573 57.4302 128.453 57.4614C129.126 57.5147 129.974 57.6329 130.658 57.3929C130.777 57.3384 130.755 57.132 130.668 57.0996C130.005 56.753 129.06 56.8957 128.354 56.9293C127.474 56.8981 126.649 56.9863 125.823 57.0745C125.617 57.0965 125.639 57.3029 125.845 57.2808Z" fill="white" fill-opacity="0.5"/>
<path d="M125.605 56.5969C126.54 56.7476 127.561 56.9306 128.473 56.8749C129.266 56.8737 130.114 56.9919 130.917 56.6973C131.037 56.6428 131.015 56.4365 130.928 56.404C130.113 56.1989 129.255 56.374 128.375 56.3428C127.495 56.3116 126.528 56.2479 125.561 56.1842C125.355 56.2063 125.312 56.5865 125.605 56.5969Z" fill="white" fill-opacity="0.5"/>
<path d="M131.342 57.1528C138.207 57.3377 145.04 57.6096 151.851 57.6751C151.938 57.7075 152.002 57.5336 151.829 57.4687C145.353 56.2404 137.955 56.1541 131.342 57.1528C131.255 57.1204 131.309 57.2398 131.342 57.1528Z" fill="white" fill-opacity="0.5"/>
<path d="M149.416 56.7664C151.882 56.7952 154.457 57.0628 156.933 56.7982C157.02 56.8307 156.998 56.6243 156.911 56.5919C154.455 56.2698 151.892 56.5019 149.394 56.5601C149.307 56.5276 149.242 56.7015 149.416 56.7664Z" fill="white" fill-opacity="0.5"/>
<path d="M164.841 78.0763C168.698 78.6243 173.011 78.748 176.734 77.2649C176.854 77.2104 176.799 77.091 176.712 77.0585C172.759 77.5643 168.915 78.3089 164.873 77.9893C164.787 77.9569 164.722 78.1308 164.841 78.0763Z" fill="white" fill-opacity="0.5"/>
<path d="M164.85 76.9901C167.544 77.2031 170.184 77.2968 172.921 77.1296C173.041 77.0751 173.105 76.9012 172.899 76.9233C170.205 76.7102 167.533 76.7035 164.915 76.8162C164.796 76.8707 164.763 76.9576 164.85 76.9901Z" fill="white" fill-opacity="0.5"/>
<path d="M125.077 73.1412C127.978 73.3322 131.084 73.5012 133.919 73.0732C134.245 72.9966 134.201 72.5839 133.907 72.5735C131.039 72.2956 127.911 72.7132 125.109 73.0542C124.935 72.9893 124.99 73.1087 125.077 73.1412Z" fill="white" fill-opacity="0.5"/>
<path d="M124.598 72.5662C125.63 72.456 126.575 72.3133 127.574 72.29C128.367 72.2888 129.323 72.6458 130.094 72.4382C130.214 72.3837 130.246 72.2967 130.159 72.2643C129.474 71.7114 128.149 71.8112 127.324 71.8994C126.411 71.9551 125.379 72.0653 124.511 72.5337C124.457 72.4143 124.479 72.6207 124.598 72.5662Z" fill="white" fill-opacity="0.5"/>
<path d="M124.445 71.9147C125.564 71.837 126.595 71.7267 127.682 71.7359C128.562 71.7672 129.529 71.8308 130.473 71.6882C130.593 71.6337 130.658 71.4598 130.484 71.3949C128.658 70.7134 126.236 71.0973 124.401 71.502C124.075 71.5786 124.152 71.9043 124.445 71.9147Z" fill="white" fill-opacity="0.5"/>
<path d="M123.009 70.1898C124.182 70.2315 125.268 70.2406 126.441 70.2823C127.44 70.259 128.581 70.3876 129.559 70.158C129.678 70.1035 129.743 69.9296 129.569 69.8647C128.493 69.5622 127.342 69.7269 126.31 69.8371C125.191 69.9149 124.105 69.9057 122.986 69.9835C122.813 69.9186 122.802 70.2119 123.009 70.1898Z" fill="white" fill-opacity="0.5"/>
<path d="M123.159 69.2554C123.963 68.9609 124.701 68.8402 125.526 68.752C126.232 68.7184 126.873 68.8586 127.579 68.8249C127.666 68.8574 127.731 68.6835 127.677 68.5641C126.264 67.8385 124.396 68.3302 123.083 68.9296C122.898 69.158 123.04 69.3099 123.159 69.2554Z" fill="white" fill-opacity="0.5"/>
<path d="M58.1871 73.7336C41.0183 76.7364 24.591 74.5677 8.88312 67.0209C8.53532 66.8911 8.3406 67.4128 8.569 67.5971C23.4735 75.4384 41.8566 77.9409 58.1767 74.0269C58.3831 74.0048 58.3935 73.7115 58.1871 73.7336Z" fill="white" fill-opacity="0.5"/>
<path d="M9.32827 66.8899C9.00925 64.2943 12.4872 65.5924 14.2691 65.8612C16.5181 66.2053 18.7996 66.4625 21.1356 66.839C25.4598 67.4624 29.8165 67.9987 34.1407 68.6221C42.0611 69.696 49.5026 70.195 57.3752 68.4775C57.7879 68.4334 57.6024 67.8688 57.2766 67.9453C53.0626 68.3538 48.8058 69.1425 44.5257 68.9318C40.7997 68.829 37.149 68.2589 33.5853 67.7213C25.3717 66.637 17.158 65.5526 8.91188 64.5551C8.73799 64.4902 8.55368 64.7186 8.60818 64.838C8.72881 65.5765 8.96884 66.2604 9.20887 66.9444C9.14396 67.1183 9.35032 67.0963 9.32827 66.8899Z" fill="white" fill-opacity="0.5"/>
<path d="M9.34908 66.3033C15.5109 68.1077 21.9647 69.1297 28.2888 70.4994C33.6784 71.7185 39.1771 73.1764 44.7926 72.9939C50.1149 72.801 55.1959 71.1312 60.3755 69.9935C66.2936 68.7352 72.4193 68.2477 78.4371 68.3144C78.9368 68.3028 79.0225 67.5423 78.5229 67.5539C73.211 67.4535 67.9107 67.8528 62.5897 68.8387C57.1817 69.7921 51.9488 71.6033 46.4967 72.144C39.9259 72.7625 33.4708 70.9476 27.1468 69.5779C21.2899 68.2834 15.411 66.7827 9.39194 65.923C9.27253 65.9775 9.14273 66.3253 9.34908 66.3033Z" fill="white" fill-opacity="0.5"/>
<path d="M55.8866 68.219C61.5996 67.7757 67.2568 66.42 72.9477 65.7703C79.0513 65.0765 85.1445 64.676 91.2597 64.4819C91.7594 64.4702 91.7257 63.7642 91.313 63.8083C85.5235 63.9259 79.8106 64.3693 74.0327 64.9865C68.0485 65.6258 61.5647 66.2767 55.8321 68.0996C55.7452 68.0672 55.7672 68.2735 55.8866 68.219Z" fill="white" fill-opacity="0.5"/>
<path d="M15.3321 64.871C15.3645 64.7841 15.4839 64.7296 15.5164 64.6426C15.5488 64.5557 15.5813 64.4687 15.6137 64.3818C15.7111 64.1209 15.7215 63.8276 15.6994 63.6213C15.7423 63.241 16.0019 62.5454 15.8384 62.1872C15.7839 62.0678 15.697 62.0354 15.5776 62.0899C15.2739 62.3728 15.3076 63.0788 15.2647 63.459C15.2543 63.7523 15.1569 64.0132 15.1465 64.3065C15.1141 64.3934 15.1361 64.5998 15.1037 64.6867C15.1582 64.8061 15.1582 64.8061 15.2127 64.9255C15.2127 64.9255 15.3866 64.9904 15.3321 64.871Z" fill="white" fill-opacity="0.5"/>
<path d="M16.1642 62.1107C31.1054 65.607 47.6123 63.0505 62.5774 60.9091C79.1933 58.5914 95.538 56.4697 112.311 57.1824C112.517 57.1603 112.495 56.954 112.321 56.8891C96.784 54.4582 80.5276 57.4054 65.0849 59.7647C56.9943 61.0047 48.9362 62.1577 40.8119 62.6917C32.4813 63.2477 24.3662 62.6954 16.1746 61.8174C16.0877 61.785 15.9903 62.0458 16.1642 62.1107Z" fill="white" fill-opacity="0.5"/>
<path d="M113.484 57.2239C115.027 57.6017 116.548 57.7732 118.101 57.8577C119.622 58.0291 121.285 58.3524 122.729 58.1981C122.936 58.1761 122.946 57.8828 122.772 57.8179C121.348 57.3856 119.882 57.3335 118.448 57.1945C116.84 56.9906 115.232 56.7867 113.527 56.8437C113.407 56.8982 113.31 57.159 113.484 57.2239Z" fill="white" fill-opacity="0.5"/>
<path d="M91.147 61.8642C95.9372 61.7699 100.716 61.1759 105.506 61.0816C110.296 60.9873 115.185 61.4251 119.921 61.2114C120.214 61.2218 120.257 60.8415 119.963 60.8311C115.085 60.1 109.85 60.3254 104.853 60.4418C100.237 60.601 95.5337 60.7277 91.0056 61.7124C91.0056 61.7124 91.0276 61.9187 91.147 61.8642Z" fill="white" fill-opacity="0.5"/>
<path d="M89.6481 61.8991C77.9577 60.3096 66.0462 63.2935 54.436 64.4086C42.2937 65.6222 29.961 63.0995 17.8744 65.2255C17.6681 65.2476 17.7122 65.6603 17.951 65.5513C29.7559 63.9145 41.5124 66.1231 53.3835 65.1054C65.5802 64.0111 77.3515 61.6683 89.6377 62.1924C89.8116 62.2573 89.822 61.964 89.6481 61.8991Z" fill="white" fill-opacity="0.5"/>
<path d="M52.4001 61.3702C45.6854 60.2509 39.556 58.3595 33.2736 55.8166C27.7738 53.5657 22.0455 51.1305 16.1029 50.5966C15.8096 50.5862 15.7668 50.9665 16.0276 51.0638C22.5035 52.2921 28.4706 54.6183 34.6985 57.0418C40.2853 59.3251 46.3938 61.8032 52.5091 61.609C52.6285 61.5545 52.6064 61.3482 52.4001 61.3702Z" fill="white" fill-opacity="0.5"/>
<path d="M17.6459 50.9744C16.0576 49.391 21.2072 49.9261 21.3266 49.8716C23.054 50.021 24.7164 50.3443 26.4658 50.7001C29.2365 51.2389 31.9969 52.071 34.6703 52.8707C40.104 54.5025 45.5273 56.4276 51.0688 57.5053C56.4364 58.5181 61.6614 58.586 67.059 57.9259C74.3137 57.0674 81.4062 56.6436 88.6843 56.7845C89.0645 56.8273 89.1178 56.1538 88.7375 56.1109C75.3963 54.6977 62.3686 59.3453 49.1119 56.3786C38.2456 53.908 28.2452 49.383 17.0349 49.1614C16.9479 49.1289 16.796 49.2704 16.7636 49.3573C16.4066 50.3137 16.5701 50.672 17.2228 51.3118C17.5382 51.5286 17.7549 51.2132 17.6459 50.9744Z" fill="white" fill-opacity="0.5"/>
<path d="M22.8788 49.1631C20.7584 47.6783 18.6055 46.2804 16.485 44.7955C16.2566 44.6112 16.0074 45.0135 16.2358 45.1978C18.3887 46.5957 20.5092 48.0806 22.6621 49.4785C22.836 49.5434 23.0203 49.315 22.8788 49.1631Z" fill="white" fill-opacity="0.5"/>
<path d="M15.5414 45.7312C17.548 43.8054 21.6903 46.243 23.6032 46.957C25.69 47.7359 27.8092 48.4278 29.9609 49.0327C33.5363 50.07 37.0896 50.9009 40.7078 51.5579C49.6066 53.1952 58.525 53.453 67.5512 53.1566C76.6644 52.8926 85.6361 52.4768 94.7297 53.5924C103.888 54.5341 112.712 56.6386 121.697 58.3084C122.165 58.3837 122.337 57.6557 121.903 57.4934C112.818 55.2915 103.539 53.6114 94.3262 52.5503C84.4072 51.5228 74.4907 52.0813 64.4976 52.314C54.5915 52.5792 44.6621 51.8451 35.0236 49.5354C30.6553 48.4994 26.3844 47.2025 22.2108 45.6448C19.9501 44.801 17.134 43.0565 15.2909 45.3405C14.9872 45.6234 15.3571 45.9596 15.5414 45.7312Z" fill="white" fill-opacity="0.5"/>
<path d="M124.637 55.7403C108.772 51.8001 92.7562 48.7942 76.8481 45.2343C69.2743 43.4972 61.8199 41.7055 54.5486 38.8926C47.0709 36.1017 40.0372 32.3867 33.2202 28.3565C32.9918 28.1722 32.6557 28.542 32.971 28.7588C45.9651 37.472 60.7673 42.4024 76.0123 45.6158C92.1591 49.0667 108.318 53.0173 124.594 56.1205C124.768 56.1854 124.844 55.7182 124.637 55.7403Z" fill="white" fill-opacity="0.5"/>
<path d="M32.3624 28.5316C32.1248 29.4336 32.0819 29.8138 31.9637 30.6613C31.9313 30.7482 31.9858 30.8676 32.0727 30.9001C49.5674 41.8875 69.6931 47.4179 89.4815 52.5251C90.0356 52.6329 90.3277 51.8504 89.806 51.6556C79.8846 49.0423 69.8437 46.4835 60.1495 43.2615C55.3893 41.6829 50.7265 39.8435 46.161 37.7433C43.5305 36.5634 40.9324 35.2965 38.3992 33.8557C36.2684 32.6641 32.5516 31.475 32.862 28.52C32.9269 28.3461 32.4597 28.2708 32.3624 28.5316Z" fill="white" fill-opacity="0.5"/>
<path d="M67.7019 52.2221C61.5156 48.6254 53.9534 47.3879 47.0103 46.0843C38.6981 44.4678 31.1984 41.4705 23.308 38.7237C23.1341 38.6588 22.9498 38.8872 23.1782 39.0715C29.5384 42.7331 37.2757 44.8285 44.3602 46.2839C48.1199 47.0928 51.8899 47.6083 55.6716 48.6236C59.7466 49.6492 63.562 51.3704 67.6045 52.483C67.7239 52.4285 67.8758 52.287 67.7019 52.2221Z" fill="white" fill-opacity="0.5"/>
<path d="M24.5474 39.3844C24.6527 37.2443 27.3285 39.6299 28.6873 40.2361C30.8286 41.1344 33.0672 41.7718 35.2838 42.2029C39.717 43.065 44.171 43.3405 48.6146 43.9093C54.0796 44.6612 59.0137 46.3047 64.1112 48.3063C68.1654 49.9186 72.8503 51.9643 77.3576 51.5663C77.6509 51.5767 77.6392 51.077 77.3784 50.9797C72.5429 49.8683 68.0007 48.7674 63.3054 47.015C59.3057 45.5221 55.3281 44.2357 51.1233 43.5579C41.7468 42.1385 32.9374 42.1196 24.5333 37.2988C24.3594 37.2339 24.153 37.256 24.1751 37.4623C24.2412 38.0814 24.2204 38.668 24.2541 39.374C24.3086 39.4934 24.4825 39.5583 24.5474 39.3844Z" fill="white" fill-opacity="0.5"/>
<path d="M75.782 51.2755C76.9228 51.4041 78.096 51.4457 79.1823 51.4549C80.1816 51.4316 81.2899 51.6471 82.2996 51.3306C82.5059 51.3085 82.5163 51.0152 82.3424 50.9503C81.3535 50.6803 80.1154 50.8125 78.9967 50.8903C77.9105 50.8811 76.7918 50.9589 75.6731 51.0367C75.6406 51.1236 75.6951 51.243 75.782 51.2755Z" fill="white" fill-opacity="0.5"/>
<path d="M74.5752 50.5278C77.6288 51.3704 80.9537 52.017 84.049 51.6863C84.1684 51.6318 84.2333 51.4579 84.0269 51.4799C80.9084 50.8113 77.6821 50.6968 74.5531 50.3215C74.4662 50.289 74.4013 50.4629 74.5752 50.5278Z" fill="white" fill-opacity="0.5"/>
<path d="M80.9862 51.93C81.9751 52.2 82.964 52.4701 84.0178 52.5662C84.1047 52.5986 84.1372 52.5117 84.0502 52.4792C83.0938 52.1223 82.0724 51.9392 81.0835 51.6691C80.9096 51.6042 80.8123 51.8651 80.9862 51.93Z" fill="white" fill-opacity="0.5"/>
<path d="M108.774 60.0229C112.034 60.8434 116 61.6302 119.355 60.6039C119.474 60.5494 119.452 60.3431 119.333 60.3976C117.605 60.2482 115.835 60.479 114.075 60.4166C112.316 60.3541 110.588 60.2048 108.839 59.849C108.752 59.8165 108.687 59.9904 108.774 60.0229Z" fill="white" fill-opacity="0.5"/>
<path d="M107.611 59.688C109.806 59.9127 111.913 60.1049 114.053 60.2103C115.987 60.3376 118.03 60.7038 119.865 60.299C119.984 60.2445 120.049 60.0706 119.875 60.0057C118.017 59.4112 115.986 59.5447 114.02 59.5042C111.88 59.3989 109.707 59.3806 107.535 59.3622C107.448 59.3298 107.437 59.6231 107.611 59.688Z" fill="white" fill-opacity="0.5"/>
<path d="M109.12 59.3598C112.543 59.7455 116.171 60.1092 119.614 59.9083C119.908 59.9188 119.951 59.5385 119.657 59.5281C116.3 58.9684 112.574 58.8656 109.163 58.9795C108.87 58.9691 108.827 59.3493 109.12 59.3598Z" fill="white" fill-opacity="0.5"/>
<path d="M109.695 58.8809C111.51 59.0628 113.27 59.1252 115.116 59.2201C116.67 59.3046 118.419 59.6604 120.015 59.3646C120.222 59.3426 120.232 59.0493 120.058 58.9844C118.548 58.5196 116.81 58.6635 115.137 58.6335C113.377 58.5711 111.531 58.4762 109.738 58.5007C109.358 58.4578 109.402 58.8705 109.695 58.8809Z" fill="white" fill-opacity="0.5"/>
<path d="M109.531 57.7298C110.823 57.7169 111.997 57.7585 113.311 57.952C114.539 58.113 115.789 58.4804 117.049 58.5545C117.168 58.5 117.32 58.3586 117.146 58.2937C116.081 57.6979 114.734 57.5913 113.56 57.5497C112.213 57.4432 110.866 57.3366 109.596 57.5559C109.248 57.426 109.324 57.7518 109.531 57.7298Z" fill="white" fill-opacity="0.5"/>
<path d="M51.8355 61.5558C55.4745 61.6262 59.4276 61.1204 62.8034 59.5076C62.9228 59.4531 62.8683 59.3337 62.7489 59.3882C59.0786 60.1977 55.5823 61.0721 51.8135 61.3495C51.7265 61.317 51.7485 61.5234 51.8355 61.5558Z" fill="white" fill-opacity="0.5"/>
<path d="M50.9115 61.1119C54.1807 60.8461 57.8846 60.7426 61.0007 59.8253C61.1201 59.7708 61.0981 59.5645 60.9787 59.619C57.6654 59.472 54.0496 60.4009 50.857 60.9924C50.6831 60.9275 50.7376 61.0469 50.9115 61.1119Z" fill="white" fill-opacity="0.5"/>
<path d="M48.1616 59.9864C51.5838 60.3722 55.1684 60.3232 58.4908 59.3839C58.6102 59.3294 58.5557 59.21 58.4363 59.2645C55.0153 59.6717 51.6267 59.9919 48.194 59.8995C48.1071 59.867 48.0746 59.954 48.1616 59.9864Z" fill="white" fill-opacity="0.5"/>
<path d="M45.4453 59.567C48.8351 60.0397 52.8219 60.2399 56.1003 58.8879C56.2197 58.8334 56.1652 58.714 56.0783 58.6815C52.5158 58.9369 49.1168 59.5505 45.4557 59.2737C45.3363 59.3282 45.239 59.589 45.4453 59.567Z" fill="white" fill-opacity="0.5"/>
<path d="M45.2377 58.7961C47.9644 58.9222 50.865 59.1133 53.58 58.7397C53.6994 58.6852 53.6449 58.5658 53.5579 58.5334C50.8962 58.2333 47.9528 58.4226 45.3027 58.6222C45.1832 58.6767 45.1508 58.7636 45.2377 58.7961Z" fill="white" fill-opacity="0.5"/>
<path d="M45.5519 58.2199C47.605 58.2928 49.7126 58.485 51.863 58.297C51.9824 58.2425 51.928 58.1231 51.841 58.0907C49.7659 57.8115 47.6478 57.9125 45.5623 57.9266C45.3884 57.8617 45.378 58.155 45.5519 58.2199Z" fill="white" fill-opacity="0.5"/>
<path d="M44.4344 59.0906C46.7716 60.2601 49.9018 61.4284 52.6064 61.3482C52.8128 61.3261 52.7907 61.1198 52.6168 61.0549C51.3126 60.5681 49.8785 60.4291 48.5418 60.0292C47.2051 59.6294 45.8684 59.2296 44.5317 58.8297C44.3578 58.7648 44.2605 59.0257 44.4344 59.0906Z" fill="white" fill-opacity="0.5"/>
<path d="M59.2084 59.8498C62.8254 59.7139 66.833 59.3275 70.3294 58.4531C70.4488 58.3986 70.4267 58.1922 70.3073 58.2467C66.6359 58.2633 62.7372 58.8885 59.1864 59.6435C59.0994 59.611 59.1215 59.8174 59.2084 59.8498Z" fill="white" fill-opacity="0.5"/>
<path d="M60.0455 60.2613C63.7702 59.5712 67.4404 58.7617 71.1872 58.278C74.934 57.7942 78.66 57.8971 82.4288 57.6197C82.6351 57.5976 82.5261 57.3588 82.4392 57.3264C75.2144 56.512 66.8306 57.7416 60.0234 60.055C59.8171 60.077 59.9261 60.3158 60.0455 60.2613Z" fill="white" fill-opacity="0.5"/>
<path d="M104.109 78.0943C106.368 77.3522 108.604 76.4037 110.862 75.6615C112.881 75.0284 115.01 74.6341 116.975 73.8815C117.094 73.827 117.04 73.7076 116.953 73.6752C112.804 73.9097 107.625 75.8404 104.087 77.888C103.968 77.9425 103.99 78.1488 104.109 78.0943Z" fill="white" fill-opacity="0.5"/>
<path d="M105.12 78.5707C109.43 77.1085 113.936 75.9175 118.029 73.9776C118.148 73.9231 118.093 73.8037 117.974 73.8582C113.587 74.9947 109.321 76.8696 105.066 78.4513C104.946 78.5058 105.001 78.6252 105.12 78.5707Z" fill="white" fill-opacity="0.5"/>
<path d="M108.009 78.2621C112.026 76.7895 116.228 75.8814 120.3 74.5281C120.419 74.4736 120.365 74.3542 120.278 74.3218C116.064 74.7302 111.83 76.5182 108.042 78.1752C107.835 78.1972 107.89 78.3166 108.009 78.2621Z" fill="white" fill-opacity="0.5"/>
<path d="M72.7433 88.0819C77.7061 87.2596 82.8533 86.2088 87.4995 84.3767C87.6189 84.3222 87.5644 84.2028 87.4775 84.1704C82.5042 85.2861 77.6075 86.7275 72.7212 87.8756C72.5149 87.8976 72.6239 88.1364 72.7433 88.0819Z" fill="white" fill-opacity="0.5"/>
<path d="M73.2521 86.9841C77.4765 86.2824 81.9293 85.765 86.0006 84.4117C86.12 84.3572 86.0655 84.2378 85.9461 84.2923C81.6451 84.6683 77.3454 85.8373 73.1976 86.8647C73.1106 86.8323 73.1327 87.0386 73.2521 86.9841Z" fill="white" fill-opacity="0.5"/>
<path d="M75.1288 85.4061C78.5719 85.2053 82.3836 84.5476 85.5426 83.2501C85.662 83.1956 85.6075 83.0762 85.5205 83.0438C82.0346 83.6249 78.5382 84.4993 75.1068 85.1998C74.9874 85.2543 75.0094 85.4606 75.1288 85.4061Z" fill="white" fill-opacity="0.5"/>
<path d="M76.4202 84.6003C79.1677 84.1399 82.1215 83.6573 84.7924 82.8711C84.9119 82.8166 84.8574 82.6972 84.738 82.7517C81.936 83.0928 79.0911 83.8141 76.3657 84.4809C76.2788 84.4485 76.3008 84.6548 76.4202 84.6003Z" fill="white" fill-opacity="0.5"/>
<path d="M60.8979 91.6849C65.9906 90.5148 71.2896 89.3226 76.1643 87.6748C76.2837 87.6203 76.2616 87.4139 76.1422 87.4684C71.0379 88.139 65.6091 89.679 60.8435 91.5655C60.7565 91.5331 60.7785 91.7394 60.8979 91.6849Z" fill="white" fill-opacity="0.5"/>
<path d="M50.1909 93.8306C55.5989 92.8771 60.9304 91.598 66.2943 90.2319C66.4137 90.1774 66.3592 90.058 66.2398 90.1125C60.8538 91.2722 55.5003 92.345 50.1909 93.8306C50.104 93.7981 50.1585 93.9175 50.1909 93.8306Z" fill="white" fill-opacity="0.5"/>
<path d="M24.6419 86.3751C29.0647 87.5305 34.5608 87.4025 38.871 85.9403C38.9904 85.8858 38.9359 85.7663 38.8165 85.8208C36.3402 86.0854 33.973 86.5887 31.4747 86.6469C29.1828 86.683 27.0207 86.3714 24.7392 86.1142C24.4784 86.0169 24.381 86.2777 24.6419 86.3751Z" fill="white" fill-opacity="0.5"/>
<path d="M24.4667 85.5172C28.1719 86.2066 32.1042 86.2875 35.742 85.5649C35.8289 85.5974 35.8069 85.391 35.6875 85.4455C31.9511 85.6359 28.2472 85.7394 24.4667 85.5172C24.4122 85.3978 24.3798 85.4847 24.4667 85.5172Z" fill="white" fill-opacity="0.5"/>
<path d="M25.5089 85.1136C29.3439 85.4553 33.2866 85.2428 37.0334 84.7591C37.1203 84.7915 37.0983 84.5852 36.9789 84.6397C33.1556 84.7977 29.2777 84.8363 25.4544 84.9942C25.3675 84.9618 25.3895 85.1681 25.5089 85.1136Z" fill="white" fill-opacity="0.5"/>
<path d="M25.4324 84.788C24.7808 84.941 24.1293 85.0941 23.4778 85.2472C23.3584 85.3017 23.326 85.3886 23.3805 85.508C23.7724 86.0506 24.2292 86.4192 24.8703 86.5594C24.9572 86.5919 24.9897 86.5049 24.9027 86.4724C24.4135 86.1908 23.9567 85.8222 23.5648 85.2797C23.5323 85.3666 23.4999 85.4536 23.4674 85.5405C24.1514 85.3005 24.8029 85.1474 25.4324 84.788C25.4869 84.9074 25.5193 84.8204 25.4324 84.788Z" fill="white" fill-opacity="0.5"/>
<path d="M36.9164 86.3995C44.4841 84.1718 51.9764 82.4114 59.6206 80.5095C59.74 80.455 59.718 80.2486 59.5986 80.3031C51.8986 81.2927 44.1791 83.6618 36.9164 86.3995C36.8619 86.2801 36.9164 86.3995 36.9164 86.3995Z" fill="white" fill-opacity="0.5"/>
<path d="M46.2194 82.442C51.5729 81.3692 57.2093 80.6001 62.4863 79.2015C62.6057 79.147 62.5836 78.9407 62.4642 78.9952C57.0121 79.5359 51.4963 81.0434 46.1649 82.3226C46.0779 82.2902 46.1324 82.4096 46.2194 82.442Z" fill="white" fill-opacity="0.5"/>
<path d="M52.2997 80.749C56.8927 79.5904 61.8011 78.6487 66.241 76.8386C66.3604 76.7841 66.3383 76.5778 66.132 76.5998C61.4949 77.3456 56.8486 79.1777 52.2452 80.6295C52.2452 80.6295 52.2128 80.7165 52.2997 80.749Z" fill="white" fill-opacity="0.5"/>
<path d="M56.5143 73.7036C60.9022 73.36 65.8209 72.125 69.9351 70.3915C70.0545 70.337 70 70.2176 69.913 70.1851C65.4719 71.2022 60.8789 72.3607 56.5143 73.7036Z" fill="white" fill-opacity="0.5"/>
<path d="M57.1205 72.3448C61.1826 72.0778 65.6458 71.2671 69.3693 69.7841C69.4887 69.7296 69.4342 69.6102 69.3473 69.5777C65.2968 70.3443 61.1489 71.3718 57.1205 72.3448C57.0335 72.3124 57.1205 72.3448 57.1205 72.3448Z" fill="white" fill-opacity="0.5"/>
<path d="M58.2379 71.4741C61.6369 70.8606 65.1774 70.3989 68.4778 69.2532C68.5972 69.1987 68.5427 69.0793 68.4557 69.0468C65.0671 69.3671 61.5928 70.4479 58.2704 71.3872C58.0965 71.3223 58.151 71.4417 58.2379 71.4741Z" fill="white" fill-opacity="0.5"/>
<path d="M59.0725 70.2997C61.6682 69.9807 64.3507 69.6941 66.9568 69.0817C67.1631 69.0597 67.0541 68.8209 66.8478 68.8429C64.1976 69.0426 61.6241 69.568 58.9635 70.0609C58.8441 70.1154 58.8662 70.3217 59.0725 70.2997Z" fill="white" fill-opacity="0.5"/>
<path d="M65.7548 71.5059C68.7307 71.2297 72.1517 70.8225 74.92 69.7754C75.0394 69.7209 75.0173 69.5146 74.8979 69.5691C71.8676 69.7258 68.6321 70.6976 65.7003 71.3865C65.6133 71.354 65.6354 71.5604 65.7548 71.5059Z" fill="white" fill-opacity="0.5"/>
<path d="M66.8606 70.1355C69.076 69.7737 71.6067 69.6285 73.778 68.8539C73.8974 68.7994 73.8754 68.5931 73.756 68.6476C71.464 68.6837 69.0864 69.4804 66.8386 69.9292C66.6322 69.9512 66.7412 70.19 66.8606 70.1355Z" fill="white" fill-opacity="0.5"/>
<path d="M46.2279 73.9259C50.0408 74.0612 54.3093 73.7722 57.75 71.9854C57.8694 71.9309 57.8149 71.8115 57.7279 71.7791C53.9058 72.73 50.3446 73.7783 46.2928 73.752C46.1734 73.8065 46.2279 73.9259 46.2279 73.9259Z" fill="white" fill-opacity="0.5"/>
<path d="M45.9787 74.3282C50.0304 74.3545 54.1575 73.9136 58.0445 72.7888C58.1639 72.7343 58.1094 72.6149 58.0224 72.5824C54.0044 73.2621 50.0733 73.9742 45.9567 74.1218C45.9242 74.2088 45.8593 74.3827 45.9787 74.3282Z" fill="white" fill-opacity="0.5"/>
<path d="M53.07 73.1115C54.4275 72.9247 55.785 72.7379 57.175 72.4642C57.2944 72.4097 57.2399 72.2903 57.1205 72.3448C55.763 72.5316 54.373 72.8053 53.1024 73.0245C52.983 73.079 53.0375 73.1984 53.07 73.1115Z" fill="white" fill-opacity="0.5"/>
<path d="M91.5384 83.1105C94.9478 82.2036 98.6505 81.3071 101.787 79.8033C101.907 79.7488 101.852 79.6294 101.733 79.6839C98.2145 80.3519 94.7298 81.726 91.4839 82.9911C91.4514 83.078 91.5059 83.1974 91.5384 83.1105Z" fill="white" fill-opacity="0.5"/>
<path d="M91.4282 82.0787C94.6869 82.1063 97.9769 81.2539 100.821 79.7396C100.94 79.6851 100.885 79.5657 100.798 79.5333C97.65 80.5375 94.5988 81.2809 91.4061 81.8724C91.2867 81.9269 91.2218 82.1008 91.4282 82.0787Z" fill="white" fill-opacity="0.5"/>
<path d="M92.4146 80.7629C94.9349 80.9111 98.1171 80.6129 100.396 79.2841C100.516 79.2296 100.494 79.0233 100.287 79.0453C98.9297 79.2321 97.6812 79.6576 96.3782 79.9638C95.0751 80.27 93.7501 80.3698 92.3926 80.5566C92.3601 80.6435 92.2952 80.8174 92.4146 80.7629Z" fill="white" fill-opacity="0.5"/>
<path d="M94.3251 79.8909C95.4762 79.7262 96.5404 79.529 97.6371 79.2449C97.7565 79.1904 97.7344 78.9841 97.5281 79.0061C96.4094 79.0839 95.3127 79.368 94.2706 79.7715C94.1836 79.7391 94.2057 79.9454 94.3251 79.8909Z" fill="white" fill-opacity="0.5"/>
<path d="M59.4265 88.4611C63.8885 86.8574 68.3829 85.1668 72.7138 83.1179C72.8332 83.0634 72.7787 82.944 72.6918 82.9116C68.1753 84.3959 63.7574 86.4123 59.372 88.3417C59.2851 88.3092 59.3071 88.5156 59.4265 88.4611Z" fill="white" fill-opacity="0.5"/>
<path d="M58.6972 87.4954C62.7257 86.5225 67.2097 85.1251 70.8891 83.2294C71.0085 83.1749 70.954 83.0555 70.8671 83.023C66.7737 84.1699 62.692 85.8164 58.7297 87.4085C58.5233 87.4305 58.5778 87.5499 58.6972 87.4954Z" fill="white" fill-opacity="0.5"/>
<path d="M58.565 86.2573C62.5065 85.2519 66.6543 84.2244 70.4103 82.6544C70.5297 82.5999 70.5077 82.3935 70.3013 82.4156C66.3053 83.3016 62.2885 84.7743 58.5105 86.1379C58.3911 86.1924 58.4456 86.3118 58.565 86.2573Z" fill="white" fill-opacity="0.5"/>
<path d="M58.5313 85.5513C61.4955 84.7755 64.7427 84.3034 67.5759 83.0824C67.6953 83.0279 67.6408 82.9085 67.5538 82.8761C64.513 83.3262 61.4735 84.5692 58.5962 85.3774C58.3574 85.4864 58.4119 85.6058 58.5313 85.5513Z" fill="white" fill-opacity="0.5"/>
<path d="M46.2513 88.992C50.8338 88.1268 55.7746 87.0981 60.0627 85.4295C60.1821 85.375 60.1601 85.1686 59.9537 85.1907C55.3815 85.7626 50.5393 87.3234 46.1422 88.7532C46.1422 88.7532 46.1318 89.0465 46.2513 88.992Z" fill="white" fill-opacity="0.5"/>
<path d="M36.0664 56.5618C39.3056 57.9689 42.9458 58.8322 46.4875 59.1635C46.5745 59.1959 46.6069 59.109 46.52 59.0765C43.0536 58.2781 39.6197 57.3927 36.1313 56.3879C36.0444 56.3554 35.9795 56.5293 36.0664 56.5618Z" fill="white" fill-opacity="0.5"/>
<path d="M36.1196 55.8882C39.2719 57.2628 42.9562 58.5389 46.4434 58.7508C46.5303 58.7832 46.5952 58.6093 46.5083 58.5769C43.2042 57.3437 39.586 56.6867 36.1521 55.8012L36.1196 55.8882Z" fill="white" fill-opacity="0.5"/>
<path d="M38.3791 55.939C41.6067 56.8464 44.7913 58.1341 48.0293 58.7483C48.2032 58.8132 48.1811 58.6068 48.1266 58.4874C45.1808 57.0907 41.6495 56.4662 38.4116 55.8521C38.3571 55.7326 38.2922 55.9065 38.3791 55.939Z" fill="white" fill-opacity="0.5"/>
<path d="M37.6927 54.5932C41.9741 55.5967 46.2125 56.9806 50.4614 58.0711C50.5484 58.1035 50.6133 57.9296 50.5263 57.8972C46.5371 56.1111 42.0494 55.1295 37.7576 54.4193C37.6382 54.4738 37.6927 54.5932 37.6927 54.5932Z" fill="white" fill-opacity="0.5"/>
<path d="M64.9385 56.441C66.9916 56.5138 69.0006 56.174 71.0641 55.9536C73.334 55.7111 75.6804 55.7943 77.8738 55.2261C77.9932 55.1716 77.9387 55.0522 77.8517 55.0197C75.831 54.8599 73.7675 55.0804 71.704 55.3008C69.4886 55.6627 67.0773 55.7533 64.9385 56.441C64.884 56.3216 64.8515 56.4085 64.9385 56.441Z" fill="white" fill-opacity="0.5"/>
<path d="M65.4694 55.5495C68.9124 55.3486 72.497 55.2996 75.809 54.6536C75.9284 54.5991 75.8739 54.4797 75.787 54.4473C72.4088 54.4742 68.9229 55.0553 65.4694 55.5495C65.4694 55.5495 65.4369 55.6364 65.4694 55.5495Z" fill="white" fill-opacity="0.5"/>
<path d="M65.3163 54.898C68.6724 54.6647 72.1155 54.4638 75.3951 53.9047C75.5145 53.8502 75.46 53.7308 75.373 53.6984C71.9949 53.7253 68.6283 54.252 65.2618 54.7786C65.1748 54.7461 65.2293 54.8655 65.3163 54.898Z" fill="white" fill-opacity="0.5"/>
<path d="M65.4553 53.4639C67.258 53.1461 69.1151 52.9477 70.9398 52.8362C72.6451 52.7793 74.3076 53.1026 75.9804 53.1326C76.0998 53.0781 76.1647 52.9042 76.0778 52.8717C72.7309 52.0188 68.7453 52.6115 65.4877 53.3769C65.3138 53.312 65.3683 53.4314 65.4553 53.4639Z" fill="white" fill-opacity="0.5"/>
<path d="M140.986 63.4273C143.322 63.8039 145.636 63.9741 147.95 64.1443C148.711 64.23 154.491 65.1987 154.837 64.5355C154.87 64.4486 154.783 64.4161 154.751 64.5031C154.501 64.9054 154.61 65.1442 155.045 65.3064C155.045 65.3064 155.132 65.3389 155.164 65.252C156.499 64.0659 153.414 64.1032 153.034 64.0604C149.079 63.7732 145.016 63.2473 141.051 63.2534C140.932 63.3079 140.899 63.3948 140.986 63.4273Z" fill="white" fill-opacity="0.5"/>
<path d="M140.995 62.341C145.623 62.6814 150.273 63.2282 154.956 63.688C155.13 63.7529 155.14 63.4596 154.966 63.3947C150.381 62.6741 145.666 62.3012 140.973 62.1346C140.941 62.2216 140.963 62.4279 140.995 62.341Z" fill="white" fill-opacity="0.5"/>
<path d="M143.883 61.2394C146.86 61.7562 149.805 62.36 152.825 62.4965C152.912 62.5289 152.944 62.442 152.857 62.4095C149.858 61.6864 146.784 61.4305 143.883 61.2394C143.829 61.12 143.796 61.207 143.883 61.2394Z" fill="white" fill-opacity="0.5"/>
<path d="M127.994 62.9369C130.873 62.9216 133.783 62.8193 136.597 62.9779C139.498 63.1689 142.268 63.7077 145.169 63.8988C145.256 63.9312 145.321 63.7573 145.234 63.7249C139.887 62.1255 133.489 62.0159 127.94 62.8175C127.853 62.785 127.875 62.9914 127.994 62.9369Z" fill="white" fill-opacity="0.5"/>
<path d="M122.89 63.6074C126.169 63.0483 129.406 62.8695 132.762 62.6362C132.882 62.5817 132.859 62.3753 132.74 62.4298C129.492 62.109 126.038 62.6032 122.835 63.488C122.748 63.4555 122.803 63.5749 122.89 63.6074Z" fill="white" fill-opacity="0.5"/>
<path d="M153.522 63.5491C156.847 64.1957 160.627 64.4179 164.08 63.9238C164.2 63.8693 164.145 63.7499 164.058 63.7174C160.539 63.5925 157.041 63.674 153.554 63.4621C153.467 63.4297 153.435 63.5166 153.522 63.5491Z" fill="white" fill-opacity="0.5"/>
<path d="M65.5264 71.3216C67.0033 71.0804 68.4582 70.6328 69.8806 70.2721C71.0642 70.0204 72.3023 69.8882 73.3549 69.1913C73.5937 69.0823 73.4302 68.7241 73.1369 68.7137C71.8547 68.4333 70.4219 69.0873 69.1189 69.3934C67.8158 69.6996 66.3934 70.0602 65.2864 70.6377C64.8957 70.8881 65.0812 71.4527 65.5264 71.3216Z" fill="white" fill-opacity="0.5"/>
<path d="M66.5245 70.5054C69.2511 70.6315 73.3678 70.484 75.5482 68.6231C75.7001 68.4817 75.5586 68.3298 75.3847 68.2649C73.9727 68.3323 72.6268 69.0187 71.2369 69.2924C69.7275 69.6206 68.1092 69.71 66.6102 69.7449C66.056 69.6372 65.9379 70.4846 66.5245 70.5054Z" fill="white" fill-opacity="0.5"/>
<path d="M63.8835 69.6187C65.5564 69.6487 67.2072 69.4724 68.9125 69.4154C70.5309 69.326 72.2907 69.3885 73.8649 68.8864C74.0713 68.8643 74.0272 68.4516 73.8533 68.3867C72.3972 68.0414 70.8878 68.3696 69.3564 68.4914C67.5317 68.6029 65.707 68.7143 63.9043 69.0321C63.4916 69.0762 63.5033 69.5759 63.8835 69.6187Z" fill="white" fill-opacity="0.5"/>
<path d="M63.3398 69.2177C65.3605 69.3775 67.446 69.3634 69.564 69.2624C71.5081 69.0964 73.887 69.0928 75.569 68.0365C75.8079 67.9275 75.7313 67.6018 75.438 67.5913C73.6237 67.4095 71.8106 68.0206 69.9859 68.132C67.8354 68.32 65.5435 68.3562 63.4035 68.2509C62.8169 68.23 62.7532 69.1969 63.3398 69.2177Z" fill="white" fill-opacity="0.5"/>
<path d="M68.4129 69.4271C69.9988 69.4246 71.5081 69.0964 73.072 68.8876C74.5489 68.6464 76.2542 68.5894 77.6001 67.903C77.8389 67.794 77.7624 67.4682 77.4691 67.4578C75.9156 67.3733 74.3738 67.7885 72.7775 68.0843C71.2681 68.4125 69.7042 68.6213 68.2494 69.0689C68.13 69.1234 68.2065 69.4491 68.4129 69.4271Z" fill="white" fill-opacity="0.5"/>
<path d="M69.6173 68.5888C71.66 68.955 73.9519 68.9188 75.9817 67.9924C76.1011 67.9379 76.0791 67.7315 75.8727 67.7536C73.7443 68.1479 71.8223 68.5202 69.6277 68.2955C69.5083 68.35 69.5303 68.5563 69.6173 68.5888Z" fill="white" fill-opacity="0.5"/>
<path d="M49.301 75.8087C49.1774 75.9008 49.1774 75.993 49.301 76.0852C50.784 76.7304 51.9272 77.729 52.7305 79.081C53.5338 80.4022 53.9509 82.0154 53.9818 83.9204C53.9818 86.655 53.1785 88.7905 51.5718 90.3268C49.9961 91.8631 47.8952 92.6313 45.269 92.6313H36.4634C36.1545 92.6313 36 92.4777 36 92.1704V60.8296C36 60.5223 36.1545 60.3687 36.4634 60.3687H44.9445C47.6634 60.3687 49.7953 61.1061 51.3401 62.581C52.9158 64.0251 53.7037 66.0684 53.7037 68.7109C53.7037 70.4316 53.3175 71.8911 52.5451 73.0894C51.8036 74.2877 50.7222 75.1941 49.301 75.8087ZM38.6417 62.5349C38.5181 62.5349 38.4563 62.5964 38.4563 62.7193V74.7947C38.4563 74.9176 38.5181 74.979 38.6417 74.979H44.9909C46.9374 74.979 48.4667 74.4413 49.579 73.3659C50.7222 72.2598 51.2938 70.7542 51.2938 68.8492C51.2938 66.8827 50.7222 65.3464 49.579 64.2402C48.4667 63.1033 46.9374 62.5349 44.9909 62.5349H38.6417ZM45.1763 90.419C47.1227 90.419 48.6676 89.8198 49.8107 88.6215C50.9539 87.4232 51.5255 85.7947 51.5255 83.736C51.5255 81.6774 50.9385 80.0489 49.7644 78.8506C48.6212 77.6215 47.061 77.007 45.0836 77.007H38.6417C38.5181 77.007 38.4563 77.0684 38.4563 77.1913V90.2346C38.4563 90.3575 38.5181 90.419 38.6417 90.419H45.1763Z" fill="white"/>
<path d="M69.6988 93C67.8759 93 66.2693 92.6159 64.879 91.8478C63.4886 91.0489 62.4072 89.9427 61.6348 88.5293C60.8933 87.0852 60.5225 85.426 60.5225 83.5517V60.8296C60.5225 60.5223 60.677 60.3687 60.986 60.3687H62.5154C62.8243 60.3687 62.9788 60.5223 62.9788 60.8296V83.736C62.9788 85.8561 63.5813 87.5768 64.7863 88.898C66.0221 90.1885 67.6596 90.8338 69.6988 90.8338C71.7071 90.8338 73.3292 90.1885 74.565 88.898C75.8009 87.5768 76.4188 85.8561 76.4188 83.736V60.8296C76.4188 60.5223 76.5733 60.3687 76.8823 60.3687H78.4116C78.7206 60.3687 78.8751 60.5223 78.8751 60.8296V83.5517C78.8751 85.426 78.4889 87.0852 77.7165 88.5293C76.9749 89.9427 75.909 91.0489 74.5187 91.8478C73.1283 92.6159 71.5217 93 69.6988 93Z" fill="white"/>
<path d="M94.5273 93C91.8084 93 89.6148 92.2011 87.9463 90.6034C86.3088 88.9749 85.4901 86.8394 85.4901 84.1969V68.757C85.4901 66.1145 86.3088 63.9944 87.9463 62.3966C89.6148 60.7989 91.8084 60 94.5273 60C97.2771 60 99.4707 60.7989 101.108 62.3966C102.777 63.9944 103.611 66.0992 103.611 68.7109V69.1257C103.611 69.2793 103.565 69.4022 103.472 69.4944C103.379 69.5866 103.271 69.6327 103.147 69.6327L101.618 69.7249C101.309 69.7249 101.155 69.5712 101.155 69.264V68.6187C101.155 66.683 100.537 65.1313 99.3008 63.9637C98.0959 62.7654 96.5047 62.1662 94.5273 62.1662C92.5499 62.1662 90.9588 62.7654 89.7538 63.9637C88.5488 65.1313 87.9463 66.683 87.9463 68.6187V84.3352C87.9463 86.3017 88.5488 87.8841 89.7538 89.0824C90.9588 90.25 92.5499 90.8338 94.5273 90.8338C96.5356 90.8338 98.1422 90.25 99.3472 89.0824C100.552 87.8841 101.155 86.3017 101.155 84.3352V83.7821C101.155 83.4749 101.309 83.3212 101.618 83.3212L103.147 83.4134C103.456 83.4134 103.611 83.567 103.611 83.8743V84.243C103.611 86.8855 102.777 89.0056 101.108 90.6034C99.4707 92.2011 97.2771 93 94.5273 93Z" fill="white"/>
<path d="M126.107 60.8296C126.107 60.5223 126.262 60.3687 126.571 60.3687H128.1C128.409 60.3687 128.564 60.5223 128.564 60.8296V92.1704C128.564 92.4777 128.409 92.6313 128.1 92.6313H126.571C126.262 92.6313 126.107 92.4777 126.107 92.1704V77.7444C126.107 77.6215 126.045 77.5601 125.922 77.5601H113.409C113.285 77.5601 113.223 77.6215 113.223 77.7444V92.1704C113.223 92.4777 113.069 92.6313 112.76 92.6313H111.231C110.922 92.6313 110.767 92.4777 110.767 92.1704V60.8296C110.767 60.5223 110.922 60.3687 111.231 60.3687H112.76C113.069 60.3687 113.223 60.5223 113.223 60.8296V75.2095C113.223 75.3324 113.285 75.3939 113.409 75.3939H125.922C126.045 75.3939 126.107 75.3324 126.107 75.2095V60.8296Z" fill="white"/>
<path d="M145.824 93C144.001 93 142.394 92.6159 141.004 91.8478C139.614 91.0489 138.532 89.9427 137.76 88.5293C137.018 87.0852 136.647 85.426 136.647 83.5517V60.8296C136.647 60.5223 136.802 60.3687 137.111 60.3687H138.64C138.949 60.3687 139.104 60.5223 139.104 60.8296V83.736C139.104 85.8561 139.706 87.5768 140.911 88.898C142.147 90.1885 143.785 90.8338 145.824 90.8338C147.832 90.8338 149.454 90.1885 150.69 88.898C151.926 87.5768 152.544 85.8561 152.544 83.736V60.8296C152.544 60.5223 152.698 60.3687 153.007 60.3687H154.537C154.846 60.3687 155 60.5223 155 60.8296V83.5517C155 85.426 154.614 87.0852 153.841 88.5293C153.1 89.9427 152.034 91.0489 150.644 91.8478C149.253 92.6159 147.647 93 145.824 93Z" fill="white"/>
</svg>
