<svg width="192" height="146" viewBox="0 0 192 146" fill="none" xmlns="http://www.w3.org/2000/svg">
<path d="M24.3853 95.1092C37.7002 100.574 53.2145 95.3687 66.211 91.601C84.6688 86.2064 103.171 81.2245 121.606 75.6235C122.41 75.329 122.19 74.0584 121.3 74.3205C103.678 79.3336 86.2743 84.8244 68.7068 89.9569C54.1361 94.2267 39.7288 98.8547 24.58 94.5875C24.1998 94.5446 24.0375 94.9794 24.3853 95.1092Z" fill="#C99846" fill-opacity="0.5"/>
<path d="M23.7766 94.882C26.371 93.77 29.3157 94.3738 32.0203 94.2935C33.7256 94.2366 35.344 94.1472 36.9623 94.0578C41.0569 93.7038 45.2489 93.089 49.2993 92.3224C57.3458 90.6697 65.1847 88.2461 72.9692 85.7031C88.8313 80.6275 104.54 74.9005 121.277 73.3212C122.102 73.233 121.851 72.0494 121.025 72.1376C104.267 73.5105 88.4057 79.379 72.6201 84.7804C64.3581 87.5413 56.0416 90.1829 47.4954 91.8472C43.445 92.6139 39.34 93.2611 35.1909 93.4957C31.509 93.8055 26.9019 92.8785 23.4172 94.2525C23.059 94.416 23.3315 95.013 23.7766 94.882Z" fill="#C99846" fill-opacity="0.5"/>
<path d="M121.095 75.1355C121.889 75.9272 126.849 80.1559 126.539 76.474C126.451 75.6486 125.515 74.705 125.101 73.9562C124.284 72.1651 123.618 70.2327 123.365 68.2561C122.707 63.6514 123.221 59.0884 126.605 55.5964C126.789 55.368 126.625 55.0098 126.354 55.2057C122.958 57.4052 122.389 61.8488 122.547 65.6721C122.615 67.8771 123.064 70.1249 123.752 72.2637C123.97 72.7413 125.735 75.9756 125.637 76.2364C124.836 78.1169 122.138 75.5249 121.214 75.081C121.16 74.9616 121.041 75.0161 121.095 75.1355Z" fill="#C99846" fill-opacity="0.5"/>
<path d="M126.974 55.9325C125.384 52.7631 120.842 59.0921 120.203 60.5378C118.342 64.9942 118.31 72.5111 121.824 76.1011C122.162 76.5242 122.856 75.9909 122.432 75.5353C120.114 72.9862 119.706 68.7723 120.004 65.3175C120.111 63.9704 120.337 62.5688 120.824 61.2646C121.246 60.1343 124.766 53.6222 126.823 56.0739C126.79 56.1609 127.029 56.0519 126.974 55.9325Z" fill="#C99846" fill-opacity="0.5"/>
<path d="M121.453 74.972C121.865 74.135 122.157 73.3524 122.394 72.4505C122.654 71.7549 123.065 70.9178 122.977 70.0924C123.01 70.0055 122.836 69.9406 122.803 70.0275C122.25 70.7127 122.1 71.6471 121.895 72.4621C121.603 73.2447 121.397 74.0597 121.247 74.9941C121.214 75.081 121.421 75.059 121.453 74.972Z" fill="#C99846" fill-opacity="0.5"/>
<path d="M121.255 73.1149C121.569 72.5387 121.796 71.93 122.23 71.2993C122.544 70.7231 123.032 70.2119 123.346 69.6357C123.378 69.5487 123.324 69.4293 123.204 69.4838C122.01 70.0288 120.981 71.7249 120.82 72.9526C120.723 73.2135 121.103 73.2563 121.255 73.1149Z" fill="#C99846" fill-opacity="0.5"/>
<path d="M125.68 75.8562C125.147 75.1618 124.375 74.5764 123.809 73.969C123.211 73.4486 122.764 72.7866 122.133 72.3531C121.96 72.2882 121.808 72.4297 121.949 72.5815C122.331 73.4173 123.103 74.0027 123.756 74.6426C124.354 75.1631 124.92 75.7705 125.702 76.0625C125.67 76.1495 125.735 75.9756 125.68 75.8562Z" fill="#C99846" fill-opacity="0.5"/>
<path d="M121.814 69.7575C121.325 69.4759 120.955 69.1397 120.531 68.6842C120.194 68.261 119.943 67.8704 119.693 67.4797C119.606 67.4473 119.519 67.4148 119.486 67.5018C119.564 68.6205 120.587 69.5965 121.63 69.9859C121.891 70.0833 121.956 69.9094 121.814 69.7575Z" fill="#C99846" fill-opacity="0.5"/>
<path d="M119.789 66.4259C120.388 67.7393 122.042 69.1489 123.486 68.9945C123.573 69.027 123.638 68.8531 123.551 68.8206C122.975 68.5065 122.247 68.3339 121.703 67.9328C121.072 67.4993 120.507 66.8919 120.028 66.3169C119.973 66.1975 119.767 66.2195 119.789 66.4259Z" fill="#C99846" fill-opacity="0.5"/>
<path d="M121.254 65.6855C121.254 65.6855 121.168 65.6535 121.254 65.6855C121.222 65.7712 121.254 65.6855 121.254 65.6855Z" fill="#C99846" fill-opacity="0.5"/>
<path d="M122.971 66.1276C122.634 65.7045 122.231 65.4553 121.829 65.2061C121.198 64.7726 120.807 64.2301 120.295 63.7421C120.012 63.4383 119.676 63.8082 119.872 64.0794C120.46 64.8932 121.82 66.2924 122.939 66.2146C122.939 66.2146 123.058 66.1601 122.971 66.1276Z" fill="#C99846" fill-opacity="0.5"/>
<path d="M120.368 61.689C121.107 61.5683 121.682 61.0895 122.257 60.6107C122.799 60.2188 123.396 59.9463 123.797 59.4025C123.862 59.2286 123.721 59.0768 123.601 59.1313C122.863 59.2519 122.288 59.7308 121.713 60.2096C121.17 60.6015 120.573 60.874 120.172 61.4177C120.053 61.4722 120.249 61.7435 120.368 61.689Z" fill="#C99846" fill-opacity="0.5"/>
<path d="M121.44 59.6126C122.146 59.5789 122.863 59.252 123.405 58.8601C123.915 58.5551 124.512 58.2826 124.653 57.6415C124.685 57.5546 124.544 57.4027 124.457 57.3703C123.892 57.5558 123.523 58.0126 123.013 58.3176C122.503 58.6225 121.906 58.895 121.309 59.1675C121.125 59.3959 121.234 59.6347 121.44 59.6126Z" fill="#C99846" fill-opacity="0.5"/>
<path d="M126.072 55.695C124.566 57.6091 122.864 60.0449 122.629 62.5327C122.564 62.7066 122.825 62.804 122.977 62.6626C124.201 60.4447 124.903 58.0322 126.388 55.9117C126.485 55.6509 126.17 55.4341 126.072 55.695Z" fill="#C99846" fill-opacity="0.5"/>
<path d="M124.439 74.4026C130.481 75.4686 136.672 75.6002 142.724 76.3729C148.221 77.0379 153.534 77.9312 158.967 78.7701C166.877 80.1374 177.384 81.9786 184.458 77.0904C184.73 76.8945 184.512 76.4168 184.186 76.4934C179.376 77.9673 174.99 79.1037 169.917 78.8944C165.343 78.6733 160.877 77.8981 156.412 77.123C146.079 75.3467 134.963 73.2783 124.482 74.0223C124.157 74.0989 124.233 74.4246 124.439 74.4026Z" fill="#C99846" fill-opacity="0.5"/>
<path d="M176.617 77.928C178.899 78.1852 181.82 77.7896 183.61 76.1792C183.881 75.9833 183.696 75.4187 183.25 75.5498C182.154 75.8339 181.134 76.4438 180.004 76.8148C178.875 77.1859 177.779 77.47 176.595 77.7217C176.421 77.6568 176.443 77.8631 176.617 77.928Z" fill="#C99846" fill-opacity="0.5"/>
<path d="M177.136 76.5369C178.799 76.8602 181.297 76.802 182.435 75.3447C182.62 75.1163 182.391 74.932 182.272 74.9865C181.446 75.0747 180.752 75.608 179.894 75.7831C179.004 76.0452 178.092 76.1009 177.179 76.1566C177.005 76.0917 176.876 76.4395 177.136 76.5369Z" fill="#C99846" fill-opacity="0.5"/>
<path d="M178.047 75.6882C178.818 75.4806 179.883 75.2834 180.664 74.7826C180.783 74.7281 180.729 74.6087 180.609 74.6632C179.784 74.7513 178.829 75.1873 177.993 75.5688C177.874 75.6233 177.928 75.7427 178.047 75.6882Z" fill="#C99846" fill-opacity="0.5"/>
<path d="M177.34 74.9289C177.937 74.6564 178.763 74.5682 179.414 74.4152C179.946 74.3166 180.587 74.4568 180.869 73.9675C180.902 73.8806 180.966 73.7067 180.793 73.6418C180.368 73.1862 179.771 73.4587 179.207 73.6443C178.436 73.8518 177.861 74.3307 177.144 74.6576C177.112 74.7446 177.134 74.951 177.34 74.9289Z" fill="#C99846" fill-opacity="0.5"/>
<path d="M179.683 72.6333C169.79 74.1911 160.61 73.836 150.702 72.5153C141.641 71.3127 132.406 70.0453 123.316 71.3085C122.697 71.3746 122.959 72.265 123.459 72.2533C133.45 71.2276 143.294 72.7223 153.213 73.7497C161.937 74.5292 171.356 75.5682 179.683 72.6333C179.77 72.6658 179.802 72.5788 179.683 72.6333Z" fill="#C99846" fill-opacity="0.5"/>
<path d="M28.2478 92.1921C35.4713 92.2135 43.2882 89.5835 50.2588 87.6283C57.8265 85.4007 65.2852 82.9342 72.8308 80.5002C87.8895 75.7192 103.34 71.4806 119.277 72.5748C120.157 72.606 120.231 71.3459 119.351 71.3146C103.849 70.3828 88.8215 74.2839 74.143 79.1078C66.5974 81.5418 59.1932 84.1277 51.5931 86.4423C47.793 87.5996 43.8191 88.692 39.91 89.6105C36.001 90.529 31.9934 90.9154 28.1388 91.9533C27.9974 91.8014 27.9545 92.1816 28.2478 92.1921Z" fill="#C99846" fill-opacity="0.5"/>
<path d="M30.9941 90.9386C30.6358 91.1021 30.2776 91.2656 30.0064 91.4616C29.9739 91.5485 29.9739 91.5485 30.0609 91.581C30.4736 91.5369 30.8318 91.3734 31.19 91.2099C31.3094 91.1554 31.2329 90.8296 30.9941 90.9386Z" fill="#C99846" fill-opacity="0.5"/>
<path d="M28.5944 91.5289C29.8067 88.8115 33.1849 88.7845 35.8234 88.0852C39.7974 86.9928 43.6844 85.868 47.5714 84.7431C54.6614 82.7335 62.4146 81.0704 68.9921 77.7797C69.2309 77.6707 69.0999 77.2256 68.7741 77.3021C62.1501 78.5942 55.7348 81.45 49.3183 83.513C42.4566 85.7069 35.3446 87.5103 28.4284 89.5848C28.309 89.6393 28.2766 89.7263 28.2986 89.9326C28.3647 90.5517 28.3764 91.0513 28.4425 91.6704C28.475 91.5834 28.5944 91.5289 28.5944 91.5289Z" fill="#C99846" fill-opacity="0.5"/>
<path d="M69.1115 77.7253C77.2333 75.6054 84.9736 72.6497 93.281 71.0943C101.914 69.4625 110.57 68.8299 119.325 68.7295C120.118 68.7282 120.225 67.3811 119.399 67.4693C110.764 67.5153 102.152 68.5605 93.7249 70.1703C85.4721 71.8451 76.6002 73.5859 69.0895 77.5189C68.8831 77.5409 68.9921 77.7797 69.1115 77.7253Z" fill="#C99846" fill-opacity="0.5"/>
<path d="M31.7362 93.1969C31.7466 92.9036 31.7025 92.4908 31.7129 92.1975C31.6909 91.9912 31.7558 91.8173 31.6143 91.6654C31.5598 91.546 31.4729 91.5136 31.4184 91.3942C31.3314 91.3617 31.2445 91.3293 31.212 91.4162C31.1796 91.5032 31.0602 91.5577 31.0822 91.764C31.0173 91.9379 31.0718 92.0573 31.0939 92.2637C31.138 92.6764 31.1275 92.9697 31.1716 93.3824C31.1937 93.5887 31.7258 93.4902 31.7362 93.1969Z" fill="#C99846" fill-opacity="0.5"/>
<path d="M36.3426 86.694C34.2687 87.2078 32.1403 87.6021 29.9133 87.4644C27.9471 87.424 26.0563 86.9164 24.1005 86.5827C24.0136 86.5502 23.9487 86.7241 24.0356 86.7566C27.6446 88.4998 32.7061 88.2095 36.4192 87.0198C36.5386 86.9653 36.549 86.672 36.3426 86.694Z" fill="#C99846" fill-opacity="0.5"/>
<path d="M25.1219 86.7657C25.4335 84.6036 26.8351 84.8296 28.7468 84.7506C30.9842 84.595 33.1347 84.4071 35.2306 84.0997C39.4226 83.4849 43.5055 82.6313 47.4795 81.5389C55.2755 79.4955 62.8316 76.7682 70.4966 74.2797C85.9784 69.1613 102.145 64.5958 118.552 67.3511C119.106 67.4589 119.137 66.579 118.583 66.4712C86.0311 61.0579 57.0519 83.2295 25.0637 84.2675C24.8573 84.2895 24.7379 84.344 24.76 84.5504C24.6743 85.3109 24.7079 86.0169 24.6222 86.7774C24.6118 87.0707 25.0245 87.0266 25.1219 86.7657Z" fill="#C99846" fill-opacity="0.5"/>
<path d="M123.051 68.8323C131.86 68.0583 140.149 68.6755 148.894 69.6613C156.619 70.464 165.039 71.5264 172.584 69.0924C172.704 69.0379 172.682 68.8315 172.562 68.886C163.863 69.8988 155.618 69.6943 146.84 68.7955C139.116 67.9928 130.728 66.8435 122.975 68.5066C122.768 68.5286 122.845 68.8544 123.051 68.8323Z" fill="#C99846" fill-opacity="0.5"/>
<path d="M171.189 72.8312C172.884 73.0675 174.535 72.8912 176.185 72.7148C177.836 72.5384 179.574 72.3945 181.039 71.6536C181.159 71.5991 181.137 71.3928 180.963 71.3279C179.409 71.2434 177.835 71.7455 176.304 71.8673C174.533 72.0982 172.774 72.0357 171.09 72.2991C170.851 72.408 170.896 72.8208 171.189 72.8312Z" fill="#C99846" fill-opacity="0.5"/>
<path d="M172.719 71.9163C173.86 72.0449 174.979 71.9672 176.13 71.8024C177.161 71.6922 178.487 71.5924 179.507 70.9825C179.745 70.8735 179.701 70.4608 179.408 70.4504C178.322 70.4412 177.28 70.8448 176.215 71.0419C175.064 71.2067 173.826 71.3389 172.707 71.4167C172.469 71.5257 172.513 71.9384 172.719 71.9163Z" fill="#C99846" fill-opacity="0.5"/>
<path d="M172.762 71.5361C173.968 71.4908 175.119 71.3261 176.27 71.1613C177.334 70.9642 178.453 70.8864 179.354 70.331C179.538 70.1026 179.342 69.8314 179.168 69.7665C178.114 69.6703 177.072 70.0739 176.095 70.3035C174.944 70.4682 173.792 70.6329 172.696 70.917C172.402 70.9066 172.382 71.4932 172.762 71.5361Z" fill="#C99846" fill-opacity="0.5"/>
<path d="M172.413 70.6133C173.238 70.5251 174.151 70.4694 174.976 70.3812C175.682 70.3476 176.562 70.3788 177.278 70.0518C177.517 69.9428 177.441 69.617 177.267 69.5521C176.571 69.2925 175.681 69.5546 174.975 69.5883C174.062 69.644 173.15 69.6997 172.325 69.7879C171.706 69.854 171.913 70.625 172.413 70.6133Z" fill="#C99846" fill-opacity="0.5"/>
<path d="M171.651 69.7346C172.673 69.9177 173.672 69.8944 174.704 69.7842C175.529 69.696 176.735 69.6507 177.375 68.998C177.526 68.8565 177.385 68.7047 177.298 68.6722C176.451 68.5541 175.528 68.9031 174.702 68.9913C173.671 69.1015 172.671 69.1248 171.704 69.0611C171.205 69.0727 171.152 69.7463 171.651 69.7346Z" fill="#C99846" fill-opacity="0.5"/>
<path d="M171.498 69.0831C172.91 69.0158 174.528 68.9264 175.864 68.5333C176.103 68.4243 176.059 68.0116 175.765 68.0012C174.331 67.8622 172.789 68.2773 171.432 68.4641C170.987 68.5951 171.085 69.1272 171.498 69.0831Z" fill="#C99846" fill-opacity="0.5"/>
<path d="M123.407 67.0829C133.303 67.111 142.983 68.2475 152.837 69.4488C153.043 69.4267 153.173 69.0789 152.88 69.0685C143.318 67.0847 133.204 66.5789 123.395 66.5833C123.102 66.5728 123.081 67.1594 123.407 67.0829Z" fill="#C99846" fill-opacity="0.5"/>
<path d="M25.5646 85.0488C22.3695 84.0544 18.5707 86.0046 16.3167 82.4887C16.2622 82.3693 16.0559 82.3914 16.0779 82.5977C16.8225 86.4418 22.9028 84.7488 25.4672 85.3096C25.6411 85.3745 25.7385 85.1137 25.5646 85.0488Z" fill="#C99846" fill-opacity="0.5"/>
<path d="M16.9474 82.9222C16.5776 82.586 16.479 82.0539 16.6412 81.6192C16.7386 81.3583 16.3038 81.1961 16.2065 81.4569C15.9793 82.0656 16.2194 82.7495 16.7631 83.1506C16.85 83.183 17.1213 82.9871 16.9474 82.9222Z" fill="#C99846" fill-opacity="0.5"/>
<path d="M16.6749 82.3252C26.0814 82.0717 35.6268 80.3841 44.7699 78.4473C53.8262 76.478 63.5339 74.3557 71.9245 70.4539C72.0439 70.3994 71.9673 70.0737 71.8479 70.1282C62.7489 72.4777 53.9119 75.7175 44.6493 77.7088C35.3868 79.7001 26.0685 80.7791 16.7178 81.945C16.479 82.054 16.4685 82.3473 16.6749 82.3252Z" fill="#C99846" fill-opacity="0.5"/>
<path d="M72.933 69.3444C80.7302 68.094 88.2979 65.8664 96.2042 64.8548C104.436 63.7667 112.453 63.7868 120.666 64.8712C121.047 64.9141 121.187 64.273 120.807 64.2301C113.222 62.7863 105.402 63.0374 97.8213 63.9724C89.5023 65.0281 80.8692 66.66 72.9109 69.1381C72.7046 69.1601 72.7266 69.3665 72.933 69.3444Z" fill="#C99846" fill-opacity="0.5"/>
<path d="M122.392 64.2277C122.306 64.1952 122.273 64.2822 122.273 64.2822C122.36 64.3146 122.392 64.2277 122.392 64.2277Z" fill="#C99846" fill-opacity="0.5"/>
<path d="M122.35 64.6079C126.185 64.9496 130.235 64.1829 134.135 64.3507C138.067 64.4315 142.076 64.8381 146.03 65.1252C153.027 65.7553 161.871 67.2732 168.678 64.9598C168.917 64.8508 168.928 64.5575 168.634 64.5471C164.56 64.3144 160.423 65.0486 156.23 64.8704C152.211 64.7572 148.289 64.3831 144.334 64.0959C140.38 63.8088 136.426 63.5216 132.461 63.5277C129.202 63.5002 125.389 63.3649 122.295 64.4885C122.263 64.5754 122.23 64.6624 122.35 64.6079Z" fill="#C99846" fill-opacity="0.5"/>
<path d="M167.401 67.8512C170.226 68.5094 174.234 68.123 176.828 67.011C176.828 67.011 176.861 66.9241 176.774 66.8916C175.275 66.9265 173.798 67.1678 172.353 67.3221C170.735 67.4115 169.095 67.2945 167.444 67.4709C167.292 67.6123 167.314 67.8187 167.401 67.8512Z" fill="#C99846" fill-opacity="0.5"/>
<path d="M168.486 67.0674C169.779 67.0545 171.017 66.9223 172.374 66.7355C173.819 66.5812 175.318 66.5463 176.653 66.1532C176.773 66.0987 176.718 65.9793 176.631 65.9468C175.371 65.8727 174.1 66.092 172.743 66.2787C171.298 66.433 169.854 66.5873 168.464 66.8611C168.432 66.948 168.367 67.1219 168.486 67.0674Z" fill="#C99846" fill-opacity="0.5"/>
<path d="M167.822 65.9279C168.908 65.9371 169.962 66.0332 170.961 66.0099C171.873 65.9542 172.927 66.0503 173.904 65.8207C174.111 65.7986 174.121 65.5053 173.947 65.4404C173.045 65.2029 172.014 65.3131 171.101 65.3688C170.015 65.3596 168.983 65.4698 167.865 65.5476C167.571 65.5372 167.528 65.9175 167.822 65.9279Z" fill="#C99846" fill-opacity="0.5"/>
<path d="M164.541 65.694C167.452 65.5917 170.526 65.8477 173.426 65.2457C173.545 65.1912 173.523 64.9849 173.404 65.0394C170.536 64.7614 167.43 65.3854 164.541 65.694C164.573 65.607 164.541 65.694 164.541 65.694Z" fill="#C99846" fill-opacity="0.5"/>
<path d="M165.398 64.7259C166.864 64.7779 168.45 64.7755 169.949 64.7406C171.274 64.6408 172.708 64.7798 174.011 64.4736C174.25 64.3646 174.26 64.0713 173.967 64.0609C172.652 63.8674 171.175 64.1087 169.85 64.2085C168.319 64.3303 166.874 64.4846 165.311 64.6935C165.343 64.6065 165.398 64.7259 165.398 64.7259Z" fill="#C99846" fill-opacity="0.5"/>
<path d="M166.515 63.8552C167.688 63.8968 168.72 63.7866 169.839 63.7088C170.87 63.5986 172.218 63.7051 173.173 63.2691C173.412 63.1602 173.335 62.8344 173.129 62.8564C172.14 62.5864 171.13 62.903 170.098 63.0132C168.86 63.1455 167.622 63.2777 166.438 63.5294C166.232 63.5515 166.222 63.8448 166.515 63.8552Z" fill="#C99846" fill-opacity="0.5"/>
<path d="M165.883 62.6287C168.327 62.4511 170.825 62.3929 173.269 62.2153C173.279 61.922 173.257 61.7157 173.268 61.4224C172.855 61.4665 172.497 61.63 172.084 61.6741C171.878 61.6961 171.987 61.9349 172.074 61.9674C172.541 62.0427 172.802 62.14 173.269 62.2153C173.736 62.2907 173.854 61.4432 173.355 61.4548C170.802 61.3936 168.239 61.6257 165.817 62.0096C165.372 62.1407 165.557 62.7052 165.883 62.6287Z" fill="#C99846" fill-opacity="0.5"/>
<path d="M166.131 61.4334C167.13 61.4102 168.217 61.4194 169.216 61.3961C170.096 61.4273 170.976 61.4585 171.812 61.0771C171.931 61.0226 171.941 60.7293 171.767 60.6643C170.898 60.3398 169.953 60.4825 168.954 60.5058C168.042 60.5615 167.042 60.5848 166.13 60.6405C165.717 60.6846 165.751 61.3906 166.131 61.4334Z" fill="#C99846" fill-opacity="0.5"/>
<path d="M169.714 60.5915C170.301 60.6123 170.92 60.5462 171.507 60.567C172.006 60.5553 172.593 60.5762 173.038 60.4451C173.277 60.3361 173.2 60.0104 173.026 59.9455C172.505 59.7508 171.973 59.8493 171.473 59.861C170.886 59.8402 170.3 59.8193 169.768 59.9179C169.268 59.9296 169.215 60.6031 169.714 60.5915Z" fill="#C99846" fill-opacity="0.5"/>
<path d="M178.896 69.1694C179.884 69.4395 181.394 69.1113 181.729 67.9485C181.761 67.8615 181.62 67.7097 181.587 67.7966C181.197 68.0471 180.86 68.4169 180.47 68.6673C179.992 68.8853 179.46 68.9839 178.96 68.9955C178.873 68.9631 178.809 69.137 178.896 69.1694Z" fill="#C99846" fill-opacity="0.5"/>
<path d="M178.047 68.2583C179.23 68.0067 180.414 67.755 181.434 67.1451C181.554 67.0906 181.499 66.9712 181.412 66.9388C180.206 66.9841 179.132 67.4746 177.97 67.9326C177.818 68.074 177.84 68.2804 178.047 68.2583Z" fill="#C99846" fill-opacity="0.5"/>
<path d="M177.524 67.2707C178.088 67.0851 178.653 66.8996 179.185 66.801C179.63 66.67 180.162 66.5714 180.466 66.2885C180.586 66.234 180.477 65.9952 180.357 66.0497C179.89 65.9744 179.38 66.2793 178.848 66.3779C178.37 66.5959 177.838 66.6945 177.36 66.9125C177.154 66.9345 177.318 67.2927 177.524 67.2707Z" fill="#C99846" fill-opacity="0.5"/>
<path d="M177.207 66.2609C178.098 65.9989 179.042 65.8562 179.824 65.3553C179.856 65.2684 179.889 65.1814 179.769 65.2359C178.889 65.2047 178.021 65.6731 177.131 65.9352C176.892 66.0442 176.969 66.3699 177.207 66.2609Z" fill="#C99846" fill-opacity="0.5"/>
<path d="M176.674 65.5666C177.206 65.468 177.706 65.4564 178.151 65.3253C178.564 65.2812 179.15 65.3021 179.541 65.0516C179.693 64.9102 179.671 64.7038 179.497 64.6389C179.03 64.5636 178.552 64.7816 178.139 64.8257C177.607 64.9243 177.162 65.0553 176.63 65.1539C176.304 65.2304 176.435 65.6756 176.674 65.5666Z" fill="#C99846" fill-opacity="0.5"/>
<path d="M176.313 64.1441C176.726 64.1 177.226 64.0884 177.638 64.0443C178.051 64.0002 178.518 64.0755 178.877 63.912C178.996 63.8576 178.941 63.7382 178.854 63.7057C178.507 63.5759 178.062 63.7069 177.649 63.751C177.149 63.7627 176.704 63.8937 176.204 63.9053C176.03 63.8404 176.107 64.1662 176.313 64.1441Z" fill="#C99846" fill-opacity="0.5"/>
<path d="M175.823 63.0695C176.442 63.0034 177.029 63.0242 177.561 62.9256C177.68 62.8711 177.658 62.6648 177.539 62.7193C176.952 62.6985 176.333 62.7646 175.714 62.8307C175.594 62.8852 175.703 63.124 175.823 63.0695Z" fill="#C99846" fill-opacity="0.5"/>
<path d="M175.179 61.3434C175.798 61.2773 176.417 61.2112 177.036 61.145C177.536 61.1334 178.155 61.0673 178.546 60.8168C178.665 60.7623 178.611 60.6429 178.437 60.578C178.002 60.4157 177.438 60.6013 176.905 60.6999C176.254 60.8529 175.722 60.9515 175.07 61.1046C174.983 61.0722 175.06 61.3979 175.179 61.3434Z" fill="#C99846" fill-opacity="0.5"/>
<path d="M174.993 59.9859C175.872 60.0171 177.22 60.1237 177.892 59.384C178.044 59.2425 177.902 59.0907 177.696 59.1127C177.283 59.1568 176.893 59.4072 176.447 59.5383C176.002 59.6693 175.47 59.7679 175.003 59.6926C174.884 59.7471 174.873 60.0404 174.993 59.9859Z" fill="#C99846" fill-opacity="0.5"/>
<path d="M175.307 59.4097C175.719 59.3656 176.219 59.354 176.632 59.3099C176.957 59.2334 177.457 59.2217 177.674 58.9064C177.826 58.7649 177.749 58.4392 177.543 58.4612C177.369 58.3963 177.098 58.5923 176.891 58.6143C176.772 58.6688 176.707 58.8427 176.881 58.9076C177.055 58.9725 177.294 58.8635 177.468 58.9284C177.381 58.896 177.381 58.896 177.326 58.7766C177.359 58.6896 177.304 58.5702 177.337 58.4833C177.304 58.5702 176.978 58.6468 176.891 58.6143C176.685 58.6364 176.566 58.6909 176.359 58.7129C176.033 58.7894 175.653 58.7466 175.327 58.8231C175.056 59.0191 175.013 59.3993 175.307 59.4097Z" fill="#C99846" fill-opacity="0.5"/>
<path d="M175.089 58.9321C175.36 58.7361 175.718 58.5727 176.044 58.4961C176.37 58.4196 176.631 58.5169 176.869 58.4079C176.989 58.3534 177.054 58.1795 176.88 58.1146C176.217 57.7681 175.348 58.2365 174.893 58.6608C174.828 58.8347 174.937 59.0735 175.089 58.9321Z" fill="#C99846" fill-opacity="0.5"/>
<path d="M166.955 60.5523C159.07 60.9773 151.541 60.4458 143.633 59.8715C136.778 59.3933 129.326 59.1876 122.801 61.8047C122.476 61.8812 122.661 62.4458 122.987 62.3692C130.522 60.2285 137.898 60.1085 145.665 60.531C152.639 60.9547 160.06 62.0403 166.89 60.7262C167.064 60.7911 167.042 60.5848 166.955 60.5523Z" fill="#C99846" fill-opacity="0.5"/>
<path d="M126.137 55.5211C133.363 57.1284 141.075 56.6385 148.319 56.0733C156.889 55.4083 165.339 54.7978 173.92 54.6324C174.213 54.6428 174.256 54.2626 173.963 54.2522C166.358 53.395 158.625 54.4714 151.023 55.2001C142.595 56.017 134.578 55.9968 126.115 55.3147C125.974 55.1629 125.963 55.4562 126.137 55.5211Z" fill="#C99846" fill-opacity="0.5"/>
<path d="M166.03 59.3154C167.507 59.0742 168.984 58.8329 170.428 58.6786C171.873 58.5243 173.459 58.5219 174.827 58.0418C174.946 57.9873 175.011 57.8134 174.837 57.7485C173.435 57.5225 172.013 57.8832 170.623 58.1569C169.059 58.3657 167.517 58.7809 165.976 59.196C165.889 59.1636 165.911 59.3699 166.03 59.3154Z" fill="#C99846" fill-opacity="0.5"/>
<path d="M166.365 58.1527C169.157 58.1049 172.274 57.9806 174.999 57.3137C175.119 57.2593 175.216 56.9984 175.01 57.0204C172.196 56.8619 169.155 57.3119 166.408 57.7724C166.082 57.849 166.159 58.1747 166.365 58.1527Z" fill="#C99846" fill-opacity="0.5"/>
<path d="M167.428 57.1625C168.525 56.8784 169.708 56.6267 170.827 56.549C171.946 56.4712 173.173 56.6322 174.325 56.4675C174.444 56.413 174.509 56.2391 174.335 56.1742C172.248 55.3953 169.403 56.1167 167.373 57.0431C167.287 57.0107 167.309 57.217 167.428 57.1625Z" fill="#C99846" fill-opacity="0.5"/>
<path d="M167.817 56.1191C169.001 55.8675 170.272 55.6482 171.477 55.6029C172.477 55.5796 173.639 55.9146 174.617 55.685C174.823 55.6629 174.833 55.3696 174.659 55.3047C173.735 54.8608 172.443 54.8736 171.411 54.9839C170.086 55.0837 168.902 55.3353 167.654 55.7609C167.415 55.8699 167.579 56.2281 167.817 56.1191Z" fill="#C99846" fill-opacity="0.5"/>
<path d="M167.566 54.9355C168.533 54.9991 169.499 55.0628 170.499 55.0396C171.292 55.0383 172.139 55.1565 172.942 54.862C173.062 54.8075 173.04 54.6011 172.866 54.5362C172.083 54.2441 171.052 54.3544 170.226 54.4425C169.314 54.4983 168.434 54.467 167.522 54.5228C167.315 54.5448 167.359 54.9575 167.566 54.9355Z" fill="#C99846" fill-opacity="0.5"/>
<path d="M165.414 54.3306C167.771 54.1205 170.117 54.2038 172.464 54.2871C174.31 54.382 176.375 54.9545 178.232 54.7561C178.352 54.7016 178.417 54.5277 178.243 54.4628C176.482 53.6074 174.016 53.5786 172.137 53.5706C169.877 53.5198 167.607 53.7623 165.392 54.1242C165.273 54.1787 165.295 54.3851 165.414 54.3306Z" fill="#C99846" fill-opacity="0.5"/>
<path d="M170.411 54.2142C171.823 54.1468 173.257 54.2858 174.539 54.5662C175.94 54.7922 177.212 55.3659 178.559 55.4725C178.733 55.5374 178.831 55.2765 178.689 55.1247C176.362 53.6618 172.952 53.7757 170.389 54.0078C170.182 54.0299 170.204 54.2362 170.411 54.2142Z" fill="#C99846" fill-opacity="0.5"/>
<path d="M173.334 55.4045C174.301 55.4682 175.268 55.5319 176.17 55.7694C176.985 55.9746 177.735 56.3536 178.496 56.4393C178.583 56.4718 178.767 56.2434 178.593 56.1785C177.94 55.5386 176.919 55.3555 176.071 55.2373C175.137 55.0867 174.17 55.023 173.171 55.0463C173.138 55.1333 173.128 55.4266 173.334 55.4045Z" fill="#C99846" fill-opacity="0.5"/>
<path d="M174.705 56.5104C175.226 56.7051 175.781 56.8129 176.335 56.9206C176.834 56.909 177.389 57.0168 177.812 56.6794C177.931 56.6249 177.877 56.5055 177.79 56.473C177.355 56.3108 176.823 56.4093 176.41 56.4534C175.823 56.4326 175.356 56.3573 174.802 56.2495C174.574 56.0652 174.444 56.413 174.705 56.5104Z" fill="#C99846" fill-opacity="0.5"/>
<path d="M176.596 57.018C176.65 57.1374 176.824 57.2023 176.911 57.2348C176.998 57.2672 177.03 57.1803 176.943 57.1478C176.889 57.0284 176.834 56.909 176.661 56.8441C176.661 56.8441 176.509 56.9855 176.596 57.018Z" fill="#C99846" fill-opacity="0.5"/>
<path d="M180.92 65.0712C181.453 64.9726 181.93 64.7546 182.375 64.6236C182.734 64.4601 183.266 64.3615 183.428 63.9268C183.46 63.8398 183.406 63.7204 183.319 63.688C182.884 63.5257 182.461 63.8631 182.103 64.0266C181.625 64.2446 181.235 64.495 180.811 64.8324C180.605 64.8544 180.714 65.0932 180.92 65.0712Z" fill="#C99846" fill-opacity="0.5"/>
<path d="M180.256 63.9317C180.701 63.8007 181.201 63.789 181.646 63.658C181.972 63.5814 182.471 63.5698 182.688 63.2545C182.721 63.1675 182.753 63.0806 182.579 63.0157C182.264 62.7989 181.873 63.0493 181.547 63.1259C181.102 63.2569 180.625 63.4749 180.093 63.5735C180.06 63.6604 180.137 63.9862 180.256 63.9317Z" fill="#C99846" fill-opacity="0.5"/>
<path d="M180.407 62.9973C180.732 62.9207 181.178 62.7897 181.503 62.7132C181.742 62.6042 182.155 62.5601 182.252 62.2992C182.317 62.1253 182.263 62.0059 182.176 61.9735C181.915 61.8761 181.557 62.0396 181.318 62.1486C180.96 62.3121 180.601 62.4756 180.276 62.5521C180.037 62.6611 180.2 63.0193 180.407 62.9973Z" fill="#C99846" fill-opacity="0.5"/>
<path d="M180.199 62.2264C180.731 62.1278 181.437 62.0941 181.773 61.7243C181.806 61.6373 181.838 61.5504 181.751 61.5179C181.23 61.3232 180.6 61.6826 180.036 61.8682C179.829 61.8902 179.906 62.216 180.199 62.2264Z" fill="#C99846" fill-opacity="0.5"/>
<path d="M180.416 61.911C180.742 61.8344 180.926 61.6061 181.11 61.3777C181.295 61.1493 181.273 60.9429 181.077 60.6716C181.022 60.5522 180.903 60.6067 180.87 60.6937C180.805 60.8676 180.773 60.9545 180.708 61.1284C180.643 61.3023 180.491 61.4438 180.372 61.4983C180.046 61.5748 180.177 62.02 180.416 61.911Z" fill="#C99846" fill-opacity="0.5"/>
<path d="M180.762 61.2479C180.74 61.0415 180.805 60.8676 180.783 60.6613C180.761 60.4549 180.381 60.4121 180.316 60.5859C180.251 60.7598 180.273 60.9662 180.208 61.1401C180.133 61.6073 180.72 61.6281 180.762 61.2479Z" fill="#C99846" fill-opacity="0.5"/>
<path d="M182.975 73.3669C184.072 73.0828 185.234 72.6247 185.938 71.7981C186.09 71.6567 185.862 71.4723 185.71 71.6138C184.755 72.0498 183.854 72.6051 182.844 72.9217C182.551 72.9113 182.65 73.4434 182.975 73.3669Z" fill="#C99846" fill-opacity="0.5"/>
<path d="M180.943 72.7074C181.801 72.5323 182.604 72.2377 183.44 71.8563C184.157 71.5293 184.96 71.2347 185.448 70.7235C185.48 70.6365 185.426 70.5171 185.307 70.5716C184.568 70.6922 183.874 71.2256 183.19 71.4656C182.386 71.7601 181.638 72.1741 180.834 72.4686C180.715 72.5231 180.824 72.7619 180.943 72.7074Z" fill="#C99846" fill-opacity="0.5"/>
<path d="M180.843 71.3824C181.527 71.1423 182.211 70.9023 182.808 70.6298C183.405 70.3573 184.057 70.2042 184.512 69.7799C184.632 69.7254 184.523 69.4866 184.403 69.5411C183.784 69.6072 183.155 69.9667 182.59 70.1522C181.906 70.3922 181.277 70.7517 180.647 71.1111C180.441 71.1331 180.637 71.4044 180.843 71.3824Z" fill="#C99846" fill-opacity="0.5"/>
<path d="M179.908 70.4388C180.766 70.2636 181.536 70.0561 182.307 69.8485C182.991 69.6084 183.762 69.4009 184.283 68.8026C184.435 68.6612 184.239 68.3899 184.119 68.4444C183.5 68.5106 182.871 68.87 182.274 69.1425C181.47 69.437 180.667 69.7315 179.777 69.9936C179.538 70.1026 179.582 70.5153 179.908 70.4388Z" fill="#C99846" fill-opacity="0.5"/>
<path d="M180.514 69.08C181.252 68.9594 181.936 68.7194 182.707 68.5118C183.272 68.3263 183.891 68.2601 184.433 67.8682C184.585 67.7268 184.476 67.488 184.27 67.51C183.596 67.4568 182.912 67.6968 182.315 67.9693C181.664 68.1224 180.98 68.3624 180.296 68.6024C179.97 68.679 180.188 69.1566 180.514 69.08Z" fill="#C99846" fill-opacity="0.5"/>
<path d="M180.89 73.381C181.857 73.4447 182.834 73.215 183.561 72.5948C183.68 72.5403 183.745 72.3664 183.691 72.247C183.636 72.1276 183.636 72.1276 183.495 71.9757C183.408 71.9433 183.234 71.8783 183.114 71.9328C182.366 72.3468 181.736 72.7062 180.824 72.7619C180.443 72.7191 180.477 73.4251 180.89 73.381Z" fill="#C99846" fill-opacity="0.5"/>
<path d="M125.352 60.28C127.436 59.473 129.522 59.4589 131.737 59.097C131.856 59.0425 131.802 58.9231 131.715 58.8907C129.64 58.6114 127.262 59.4081 125.352 60.28C125.297 60.1606 125.352 60.28 125.352 60.28Z" fill="#C99846" fill-opacity="0.5"/>
<path d="M125.448 59.2262C126.393 59.0835 127.305 59.0278 128.337 58.9176C129.162 58.8294 130.075 58.7737 130.878 58.4792C130.997 58.4247 130.975 58.2183 130.856 58.2728C129.976 58.2416 129.118 58.4167 128.347 58.6243C127.402 58.767 126.458 58.9096 125.513 59.0523C125.252 58.955 125.274 59.1613 125.448 59.2262Z" fill="#C99846" fill-opacity="0.5"/>
<path d="M124.979 58.3579C126.011 58.2477 127.011 58.2244 128.01 58.2012C128.803 58.1999 129.737 58.3506 130.508 58.143C130.628 58.0885 130.692 57.9146 130.519 57.8497C129.768 57.4707 128.617 57.6354 127.705 57.6911C126.793 57.7468 125.848 57.8895 124.903 58.0322C124.838 58.2061 124.893 58.3255 124.979 58.3579Z" fill="#C99846" fill-opacity="0.5"/>
<path d="M126.075 57.2808C126.922 57.399 127.802 57.4302 128.682 57.4614C129.356 57.5147 130.203 57.6329 130.887 57.3929C131.007 57.3384 130.985 57.132 130.898 57.0996C130.234 56.753 129.29 56.8957 128.584 56.9293C127.704 56.8981 126.878 56.9863 126.053 57.0745C125.847 57.0965 125.869 57.3029 126.075 57.2808Z" fill="#C99846" fill-opacity="0.5"/>
<path d="M125.835 56.5969C126.769 56.7476 127.791 56.9306 128.703 56.8749C129.496 56.8737 130.343 56.9919 131.147 56.6973C131.266 56.6428 131.244 56.4365 131.157 56.404C130.342 56.1989 129.484 56.374 128.604 56.3428C127.725 56.3116 126.758 56.2479 125.791 56.1842C125.584 56.2063 125.542 56.5865 125.835 56.5969Z" fill="#C99846" fill-opacity="0.5"/>
<path d="M131.571 57.1528C138.436 57.3377 145.269 57.6096 152.08 57.6751C152.167 57.7075 152.232 57.5336 152.058 57.4687C145.582 56.2404 138.185 56.1541 131.571 57.1528C131.484 57.1204 131.539 57.2398 131.571 57.1528Z" fill="#C99846" fill-opacity="0.5"/>
<path d="M149.646 56.7664C152.111 56.7952 154.686 57.0628 157.162 56.7982C157.249 56.8307 157.227 56.6243 157.14 56.5919C154.685 56.2698 152.122 56.5019 149.624 56.5601C149.537 56.5276 149.472 56.7015 149.646 56.7664Z" fill="#C99846" fill-opacity="0.5"/>
<path d="M165.071 78.0763C168.928 78.6243 173.24 78.748 176.964 77.2649C177.083 77.2104 177.029 77.091 176.942 77.0585C172.989 77.5643 169.144 78.3089 165.103 77.9893C165.016 77.9569 164.951 78.1308 165.071 78.0763Z" fill="#C99846" fill-opacity="0.5"/>
<path d="M165.08 76.9901C167.774 77.2031 170.414 77.2968 173.151 77.1296C173.27 77.0751 173.335 76.9012 173.129 76.9233C170.435 76.7102 167.762 76.7035 165.145 76.8162C165.025 76.8707 164.993 76.9576 165.08 76.9901Z" fill="#C99846" fill-opacity="0.5"/>
<path d="M125.307 73.1412C128.207 73.3322 131.314 73.5012 134.148 73.0732C134.474 72.9966 134.43 72.5839 134.137 72.5735C131.269 72.2956 128.141 72.7132 125.339 73.0542C125.165 72.9893 125.22 73.1087 125.307 73.1412Z" fill="#C99846" fill-opacity="0.5"/>
<path d="M124.828 72.5662C125.859 72.456 126.804 72.3133 127.804 72.29C128.597 72.2888 129.553 72.6458 130.324 72.4382C130.443 72.3837 130.476 72.2967 130.389 72.2643C129.704 71.7114 128.379 71.8112 127.553 71.8994C126.641 71.9551 125.609 72.0653 124.741 72.5337C124.686 72.4143 124.708 72.6207 124.828 72.5662Z" fill="#C99846" fill-opacity="0.5"/>
<path d="M124.675 71.9147C125.793 71.837 126.825 71.7267 127.911 71.7359C128.791 71.7672 129.758 71.8308 130.703 71.6882C130.822 71.6337 130.887 71.4598 130.713 71.3949C128.887 70.7134 126.466 71.0973 124.631 71.502C124.305 71.5786 124.381 71.9043 124.675 71.9147Z" fill="#C99846" fill-opacity="0.5"/>
<path d="M123.238 70.1898C124.411 70.2315 125.498 70.2406 126.671 70.2823C127.67 70.259 128.811 70.3876 129.788 70.158C129.907 70.1035 129.972 69.9296 129.799 69.8647C128.723 69.5622 127.571 69.7269 126.54 69.8371C125.421 69.9149 124.335 69.9057 123.216 69.9835C123.042 69.9186 123.032 70.2119 123.238 70.1898Z" fill="#C99846" fill-opacity="0.5"/>
<path d="M123.389 69.2554C124.192 68.9609 124.931 68.8402 125.756 68.752C126.462 68.7184 127.103 68.8586 127.809 68.8249C127.896 68.8574 127.961 68.6835 127.906 68.5641C126.493 67.8385 124.626 68.3302 123.312 68.9296C123.128 69.158 123.269 69.3099 123.389 69.2554Z" fill="#C99846" fill-opacity="0.5"/>
<path d="M58.4167 73.7336C41.2479 76.7364 24.8206 74.5677 9.1127 67.0209C8.76491 66.8911 8.57018 67.4128 8.79858 67.5971C23.7031 75.4384 42.0862 77.9409 58.4063 74.0269C58.6127 74.0048 58.6231 73.7115 58.4167 73.7336Z" fill="#C99846" fill-opacity="0.5"/>
<path d="M9.55786 66.8899C9.23883 64.2943 12.7168 65.5924 14.4987 65.8612C16.7477 66.2053 19.0292 66.4625 21.3652 66.839C25.6894 67.4624 30.0461 67.9987 34.3703 68.6221C42.2906 69.696 49.7322 70.195 57.6048 68.4775C58.0175 68.4334 57.8319 67.8688 57.5062 67.9453C53.2922 68.3538 49.0354 69.1425 44.7552 68.9318C41.0293 68.829 37.3786 68.2589 33.8149 67.7213C25.6013 66.637 17.3876 65.5526 9.14147 64.5551C8.96757 64.4902 8.78327 64.7186 8.83776 64.838C8.95839 65.5765 9.19842 66.2604 9.43845 66.9444C9.37354 67.1183 9.5799 67.0963 9.55786 66.8899Z" fill="#C99846" fill-opacity="0.5"/>
<path d="M9.57866 66.3033C15.7404 68.1077 22.1943 69.1297 28.5183 70.4994C33.908 71.7185 39.4066 73.1764 45.0222 72.9939C50.3445 72.801 55.4255 71.1312 60.6051 69.9935C66.5232 68.7352 72.6488 68.2477 78.6667 68.3144C79.1664 68.3028 79.2521 67.5423 78.7524 67.5539C73.4406 67.4535 68.1403 67.8528 62.8193 68.8387C57.4113 69.7921 52.1784 71.6033 46.7263 72.144C40.1555 72.7625 33.7004 70.9476 27.3764 69.5779C21.5195 68.2834 15.6406 66.7827 9.62152 65.923C9.50212 65.9775 9.37231 66.3253 9.57866 66.3033Z" fill="#C99846" fill-opacity="0.5"/>
<path d="M56.1162 68.219C61.8292 67.7757 67.4864 66.42 73.1773 65.7703C79.2809 65.0765 85.3741 64.676 91.4893 64.4819C91.989 64.4702 91.9553 63.7642 91.5426 63.8083C85.7531 63.9259 80.0401 64.3693 74.2623 64.9865C68.2781 65.6258 61.7942 66.2767 56.0617 68.0996C55.9748 68.0672 55.9968 68.2735 56.1162 68.219Z" fill="#C99846" fill-opacity="0.5"/>
<path d="M15.5616 64.871C15.5941 64.7841 15.7135 64.7296 15.7459 64.6426C15.7784 64.5557 15.8108 64.4687 15.8433 64.3818C15.9407 64.1209 15.9511 63.8276 15.929 63.6213C15.9719 63.241 16.2315 62.5454 16.068 62.1872C16.0135 62.0678 15.9266 62.0354 15.8072 62.0899C15.5035 62.3728 15.5371 63.0788 15.4943 63.459C15.4839 63.7523 15.3865 64.0132 15.3761 64.3065C15.3436 64.3934 15.3657 64.5998 15.3332 64.6867C15.3877 64.8061 15.3877 64.8061 15.4422 64.9255C15.4422 64.9255 15.6161 64.9904 15.5616 64.871Z" fill="#C99846" fill-opacity="0.5"/>
<path d="M16.3938 62.1107C31.335 65.607 47.8419 63.0505 62.807 60.9091C79.4229 58.5914 95.7676 56.4697 112.54 57.1824C112.747 57.1603 112.725 56.954 112.551 56.8891C97.0136 54.4582 80.7571 57.4054 65.3144 59.7647C57.2239 61.0047 49.1657 62.1577 41.0415 62.6917C32.7109 63.2477 24.5958 62.6954 16.4042 61.8174C16.3172 61.785 16.2199 62.0458 16.3938 62.1107Z" fill="#C99846" fill-opacity="0.5"/>
<path d="M113.713 57.2239C115.256 57.6017 116.777 57.7732 118.331 57.8577C119.852 58.0291 121.514 58.3524 122.959 58.1981C123.165 58.1761 123.176 57.8828 123.002 57.8179C121.578 57.3856 120.112 57.3335 118.677 57.1945C117.07 56.9906 115.462 56.7867 113.756 56.8437C113.637 56.8982 113.54 57.159 113.713 57.2239Z" fill="#C99846" fill-opacity="0.5"/>
<path d="M91.3766 61.8642C96.1668 61.7699 100.945 61.1759 105.736 61.0816C110.526 60.9873 115.414 61.4251 120.15 61.2114C120.443 61.2218 120.486 60.8415 120.193 60.8311C115.315 60.1 110.079 60.3254 105.083 60.4418C100.466 60.601 95.7633 60.7277 91.2352 61.7124C91.2352 61.7124 91.2572 61.9187 91.3766 61.8642Z" fill="#C99846" fill-opacity="0.5"/>
<path d="M89.8777 61.8991C78.1872 60.3096 66.2758 63.2935 54.6656 64.4086C42.5233 65.6222 30.1906 63.0995 18.104 65.2255C17.8976 65.2476 17.9417 65.6603 18.1805 65.5513C29.9854 63.9145 41.742 66.1231 53.613 65.1054C65.8098 64.0111 77.5811 61.6683 89.8673 62.1924C90.0412 62.2573 90.0516 61.964 89.8777 61.8991Z" fill="#C99846" fill-opacity="0.5"/>
<path d="M52.6296 61.3702C45.9149 60.2509 39.7856 58.3595 33.5032 55.8166C28.0033 53.5657 22.2751 51.1305 16.3325 50.5966C16.0392 50.5862 15.9963 50.9665 16.2572 51.0638C22.7331 52.2921 28.7002 54.6183 34.9281 57.0418C40.5149 59.3251 46.6234 61.8032 52.7386 61.609C52.858 61.5545 52.836 61.3482 52.6296 61.3702Z" fill="#C99846" fill-opacity="0.5"/>
<path d="M17.8755 50.9744C16.2872 49.391 21.4368 49.9261 21.5562 49.8716C23.2835 50.021 24.946 50.3443 26.6954 50.7001C29.4661 51.2389 32.2265 52.071 34.8999 52.8707C40.3336 54.5025 45.7569 56.4276 51.2984 57.5053C56.666 58.5181 61.8909 58.586 67.2885 57.9259C74.5433 57.0674 81.6358 56.6436 88.9138 56.7845C89.2941 56.8273 89.3474 56.1538 88.9671 56.1109C75.6259 54.6977 62.5982 59.3453 49.3414 56.3786C38.4752 53.908 28.4748 49.383 17.2644 49.1614C17.1775 49.1289 17.0256 49.2704 16.9932 49.3573C16.6362 50.3137 16.7997 50.672 17.4524 51.3118C17.7678 51.5286 17.9845 51.2132 17.8755 50.9744Z" fill="#C99846" fill-opacity="0.5"/>
<path d="M23.1084 49.1631C20.988 47.6783 18.835 46.2804 16.7146 44.7955C16.4862 44.6112 16.237 45.0135 16.4654 45.1978C18.6183 46.5957 20.7387 48.0806 22.8917 49.4785C23.0656 49.5434 23.2499 49.315 23.1084 49.1631Z" fill="#C99846" fill-opacity="0.5"/>
<path d="M15.771 45.7312C17.7775 43.8054 21.9199 46.243 23.8328 46.957C25.9196 47.7359 28.0388 48.4278 30.1905 49.0327C33.7658 50.07 37.3191 50.9009 40.9373 51.5579C49.8362 53.1952 58.7546 53.453 67.7808 53.1566C76.894 52.8926 85.8657 52.4768 94.9593 53.5924C104.118 54.5341 112.941 56.6386 121.927 58.3084C122.394 58.3837 122.567 57.6557 122.132 57.4934C113.048 55.2915 103.769 53.6114 94.5557 52.5503C84.6368 51.5228 74.7202 52.0813 64.7272 52.314C54.8211 52.5792 44.8917 51.8451 35.2532 49.5354C30.8849 48.4994 26.6139 47.2025 22.4404 45.6448C20.1797 44.801 17.3636 43.0565 15.5205 45.3405C15.2168 45.6234 15.5867 45.9596 15.771 45.7312Z" fill="#C99846" fill-opacity="0.5"/>
<path d="M124.867 55.7403C109.002 51.8001 92.9857 48.7942 77.0777 45.2343C69.5039 43.4972 62.0495 41.7055 54.7782 38.8926C47.3005 36.1017 40.2668 32.3867 33.4498 28.3565C33.2214 28.1722 32.8852 28.542 33.2006 28.7588C46.1947 37.472 60.9969 42.4024 76.2418 45.6158C92.3887 49.0667 108.547 53.0173 124.824 56.1205C124.998 56.1854 125.073 55.7182 124.867 55.7403Z" fill="#C99846" fill-opacity="0.5"/>
<path d="M32.5919 28.5316C32.3544 29.4336 32.3115 29.8138 32.1933 30.6613C32.1609 30.7482 32.2154 30.8676 32.3023 30.9001C49.7969 41.8875 69.9227 47.4179 89.7111 52.5251C90.2652 52.6329 90.5573 51.8504 90.0356 51.6556C80.1142 49.0423 70.0733 46.4835 60.3791 43.2615C55.6189 41.6829 50.9561 39.8435 46.3906 37.7433C43.7601 36.5634 41.162 35.2965 38.6288 33.8557C36.4979 32.6641 32.7812 31.475 33.0916 28.52C33.1565 28.3461 32.6893 28.2708 32.5919 28.5316Z" fill="#C99846" fill-opacity="0.5"/>
<path d="M67.9315 52.2221C61.7452 48.6254 54.183 47.3879 47.2399 46.0843C38.9277 44.4678 31.428 41.4705 23.5376 38.7237C23.3637 38.6588 23.1794 38.8872 23.4078 39.0715C29.768 42.7331 37.5053 44.8285 44.5898 46.2839C48.3495 47.0928 52.1195 47.6083 55.9012 48.6236C59.9762 49.6492 63.7916 51.3704 67.8341 52.483C67.9535 52.4285 68.1054 52.287 67.9315 52.2221Z" fill="#C99846" fill-opacity="0.5"/>
<path d="M24.777 39.3844C24.8823 37.2443 27.5581 39.6299 28.9169 40.2361C31.0581 41.1344 33.2968 41.7718 35.5134 42.2029C39.9466 43.065 44.4006 43.3405 48.8442 43.9093C54.3092 44.6612 59.2432 46.3047 64.3408 48.3063C68.395 49.9186 73.0799 51.9643 77.5871 51.5663C77.8804 51.5767 77.8688 51.077 77.608 50.9797C72.7725 49.8683 68.2303 48.7674 63.535 47.015C59.5353 45.5221 55.5577 44.2357 51.3529 43.5579C41.9764 42.1385 33.167 42.1196 24.7629 37.2988C24.589 37.2339 24.3826 37.256 24.4047 37.4623C24.4708 38.0814 24.45 38.668 24.4837 39.374C24.5382 39.4934 24.7121 39.5583 24.777 39.3844Z" fill="#C99846" fill-opacity="0.5"/>
<path d="M76.0116 51.2755C77.1524 51.4041 78.3256 51.4457 79.4118 51.4549C80.4111 51.4316 81.5195 51.6471 82.5292 51.3306C82.7355 51.3085 82.7459 51.0152 82.572 50.9503C81.5831 50.6803 80.345 50.8125 79.2263 50.8903C78.1401 50.8811 77.0213 50.9589 75.9026 51.0367C75.8702 51.1236 75.9247 51.243 76.0116 51.2755Z" fill="#C99846" fill-opacity="0.5"/>
<path d="M74.8048 50.5278C77.8584 51.3704 81.1833 52.017 84.2786 51.6863C84.398 51.6318 84.4629 51.4579 84.2565 51.4799C81.138 50.8113 77.9117 50.6968 74.7827 50.3215C74.6958 50.289 74.6309 50.4629 74.8048 50.5278Z" fill="#C99846" fill-opacity="0.5"/>
<path d="M81.2157 51.93C82.2046 52.2 83.1935 52.4701 84.2473 52.5662C84.3343 52.5986 84.3668 52.5117 84.2798 52.4792C83.3234 52.1223 82.302 51.9392 81.3131 51.6691C81.1392 51.6042 81.0419 51.8651 81.2157 51.93Z" fill="#C99846" fill-opacity="0.5"/>
<path d="M109.003 60.0229C112.263 60.8434 116.229 61.6302 119.584 60.6039C119.704 60.5494 119.682 60.3431 119.562 60.3976C117.835 60.2482 116.065 60.479 114.305 60.4166C112.545 60.3541 110.818 60.2048 109.068 59.849C108.981 59.8165 108.917 59.9904 109.003 60.0229Z" fill="#C99846" fill-opacity="0.5"/>
<path d="M107.841 59.688C110.035 59.9127 112.143 60.1049 114.283 60.2103C116.217 60.3376 118.259 60.7038 120.094 60.299C120.214 60.2445 120.279 60.0706 120.105 60.0057C118.246 59.4112 116.215 59.5447 114.249 59.5042C112.109 59.3989 109.937 59.3806 107.764 59.3622C107.677 59.3298 107.667 59.6231 107.841 59.688Z" fill="#C99846" fill-opacity="0.5"/>
<path d="M109.35 59.3598C112.772 59.7455 116.401 60.1092 119.844 59.9083C120.137 59.9188 120.18 59.5385 119.887 59.5281C116.529 58.9684 112.804 58.8656 109.393 58.9795C109.1 58.9691 109.057 59.3493 109.35 59.3598Z" fill="#C99846" fill-opacity="0.5"/>
<path d="M109.925 58.8809C111.739 59.0628 113.499 59.1252 115.346 59.2201C116.899 59.3046 118.649 59.6604 120.245 59.3646C120.451 59.3426 120.462 59.0493 120.288 58.9844C118.777 58.5196 117.04 58.6635 115.367 58.6335C113.607 58.5711 111.76 58.4762 109.968 58.5007C109.588 58.4578 109.632 58.8705 109.925 58.8809Z" fill="#C99846" fill-opacity="0.5"/>
<path d="M109.76 57.7298C111.053 57.7169 112.226 57.7585 113.541 57.952C114.768 58.113 116.018 58.4804 117.278 58.5545C117.398 58.5 117.55 58.3586 117.376 58.2937C116.31 57.6979 114.963 57.5913 113.79 57.5497C112.443 57.4432 111.096 57.3366 109.825 57.5559C109.477 57.426 109.554 57.7518 109.76 57.7298Z" fill="#C99846" fill-opacity="0.5"/>
<path d="M52.0651 61.5558C55.7041 61.6262 59.6572 61.1204 63.0329 59.5076C63.1523 59.4531 63.0979 59.3337 62.9785 59.3882C59.3082 60.1977 55.8119 61.0721 52.043 61.3495C51.9561 61.317 51.9781 61.5234 52.0651 61.5558Z" fill="#C99846" fill-opacity="0.5"/>
<path d="M51.1411 61.1119C54.4103 60.8461 58.1142 60.7426 61.2303 59.8253C61.3497 59.7708 61.3276 59.5645 61.2082 59.619C57.895 59.472 54.2792 60.4009 51.0866 60.9924C50.9127 60.9275 50.9672 61.0469 51.1411 61.1119Z" fill="#C99846" fill-opacity="0.5"/>
<path d="M48.3912 59.9864C51.8134 60.3722 55.3979 60.3232 58.7204 59.3839C58.8398 59.3294 58.7853 59.21 58.6659 59.2645C55.2449 59.6717 51.8563 59.9919 48.4236 59.8995C48.3367 59.867 48.3042 59.954 48.3912 59.9864Z" fill="#C99846" fill-opacity="0.5"/>
<path d="M45.6749 59.567C49.0647 60.0397 53.0515 60.2399 56.3299 58.8879C56.4493 58.8334 56.3948 58.714 56.3078 58.6815C52.7454 58.9369 49.3464 59.5505 45.6853 59.2737C45.5659 59.3282 45.4686 59.589 45.6749 59.567Z" fill="#C99846" fill-opacity="0.5"/>
<path d="M45.4673 58.7961C48.194 58.9222 51.0946 59.1133 53.8096 58.7397C53.929 58.6852 53.8745 58.5658 53.7875 58.5334C51.1258 58.2333 48.1824 58.4226 45.5322 58.6222C45.4128 58.6767 45.3804 58.7636 45.4673 58.7961Z" fill="#C99846" fill-opacity="0.5"/>
<path d="M45.7814 58.2199C47.8346 58.2928 49.9422 58.485 52.0926 58.297C52.212 58.2425 52.1575 58.1231 52.0706 58.0907C49.9954 57.8115 47.8774 57.9125 45.7919 57.9266C45.618 57.8617 45.6076 58.155 45.7814 58.2199Z" fill="#C99846" fill-opacity="0.5"/>
<path d="M44.664 59.0906C47.0012 60.2601 50.1314 61.4284 52.836 61.3482C53.0423 61.3261 53.0203 61.1198 52.8464 61.0549C51.5421 60.5681 50.1081 60.4291 48.7714 60.0292C47.4347 59.6294 46.098 59.2296 44.7613 58.8297C44.5874 58.7648 44.4901 59.0257 44.664 59.0906Z" fill="#C99846" fill-opacity="0.5"/>
<path d="M59.438 59.8498C63.055 59.7139 67.0626 59.3275 70.559 58.4531C70.6784 58.3986 70.6563 58.1922 70.5369 58.2467C66.8654 58.2633 62.9668 58.8885 59.416 59.6435C59.329 59.611 59.3511 59.8174 59.438 59.8498Z" fill="#C99846" fill-opacity="0.5"/>
<path d="M60.275 60.2613C63.9998 59.5712 67.67 58.7617 71.4168 58.278C75.1636 57.7942 78.8896 57.8971 82.6584 57.6197C82.8647 57.5976 82.7557 57.3588 82.6688 57.3264C75.444 56.512 67.0602 57.7416 60.253 60.055C60.0466 60.077 60.1556 60.3158 60.275 60.2613Z" fill="#C99846" fill-opacity="0.5"/>
<path d="M104.339 78.0943C106.597 77.3522 108.833 76.4037 111.092 75.6615C113.111 75.0284 115.239 74.6341 117.204 73.8815C117.324 73.827 117.269 73.7076 117.182 73.6752C113.033 73.9097 107.855 75.8404 104.317 77.888C104.197 77.9425 104.219 78.1488 104.339 78.0943Z" fill="#C99846" fill-opacity="0.5"/>
<path d="M105.35 78.5707C109.66 77.1085 114.166 75.9175 118.258 73.9776C118.378 73.9231 118.323 73.8037 118.204 73.8582C113.817 74.9947 109.551 76.8696 105.295 78.4513C105.176 78.5058 105.23 78.6252 105.35 78.5707Z" fill="#C99846" fill-opacity="0.5"/>
<path d="M108.239 78.2621C112.256 76.7895 116.458 75.8814 120.529 74.5281C120.649 74.4736 120.594 74.3542 120.507 74.3218C116.293 74.7302 112.06 76.5182 108.271 78.1752C108.065 78.1972 108.119 78.3166 108.239 78.2621Z" fill="#C99846" fill-opacity="0.5"/>
<path d="M72.9728 88.0819C77.9357 87.2596 83.0828 86.2088 87.7291 84.3767C87.8485 84.3222 87.794 84.2028 87.7071 84.1704C82.7338 85.2861 77.8371 86.7275 72.9508 87.8756C72.7444 87.8976 72.8534 88.1364 72.9728 88.0819Z" fill="#C99846" fill-opacity="0.5"/>
<path d="M73.4817 86.9841C77.7061 86.2824 82.1588 85.765 86.2302 84.4117C86.3496 84.3572 86.2951 84.2378 86.1757 84.2923C81.8747 84.6683 77.575 85.8373 73.4272 86.8647C73.3402 86.8323 73.3623 87.0386 73.4817 86.9841Z" fill="#C99846" fill-opacity="0.5"/>
<path d="M75.3584 85.4061C78.8015 85.2053 82.6132 84.5476 85.7721 83.2501C85.8915 83.1956 85.837 83.0762 85.7501 83.0438C82.2642 83.6249 78.7678 84.4993 75.3364 85.1998C75.217 85.2543 75.239 85.4606 75.3584 85.4061Z" fill="#C99846" fill-opacity="0.5"/>
<path d="M76.6498 84.6003C79.3973 84.1399 82.3511 83.6573 85.022 82.8711C85.1414 82.8166 85.0869 82.6972 84.9675 82.7517C82.1656 83.0928 79.3207 83.8141 76.5953 84.4809C76.5084 84.4485 76.5304 84.6548 76.6498 84.6003Z" fill="#C99846" fill-opacity="0.5"/>
<path d="M61.1275 91.6849C66.2202 90.5148 71.5192 89.3226 76.3939 87.6748C76.5133 87.6203 76.4912 87.4139 76.3718 87.4684C71.2675 88.139 65.8387 89.679 61.073 91.5655C60.9861 91.5331 61.0081 91.7394 61.1275 91.6849Z" fill="#C99846" fill-opacity="0.5"/>
<path d="M50.4205 93.8306C55.8285 92.8771 61.16 91.598 66.5239 90.2319C66.6433 90.1774 66.5888 90.058 66.4694 90.1125C61.0834 91.2722 55.7299 92.345 50.4205 93.8306C50.3336 93.7981 50.388 93.9175 50.4205 93.8306Z" fill="#C99846" fill-opacity="0.5"/>
<path d="M24.8715 86.3751C29.2942 87.5305 34.7904 87.4025 39.1005 85.9403C39.2199 85.8858 39.1654 85.7663 39.046 85.8208C36.5698 86.0854 34.2026 86.5887 31.7043 86.6469C29.4124 86.683 27.2503 86.3714 24.9688 86.1142C24.708 86.0169 24.6106 86.2777 24.8715 86.3751Z" fill="#C99846" fill-opacity="0.5"/>
<path d="M24.6963 85.5172C28.4015 86.2066 32.3338 86.2875 35.9716 85.5649C36.0585 85.5974 36.0365 85.391 35.9171 85.4455C32.1807 85.6359 28.4768 85.7394 24.6963 85.5172C24.6418 85.3978 24.6094 85.4847 24.6963 85.5172Z" fill="#C99846" fill-opacity="0.5"/>
<path d="M25.7385 85.1136C29.5734 85.4553 33.5162 85.2428 37.263 84.7591C37.3499 84.7915 37.3279 84.5852 37.2085 84.6397C33.3851 84.7977 29.5073 84.8363 25.684 84.9942C25.5971 84.9618 25.6191 85.1681 25.7385 85.1136Z" fill="#C99846" fill-opacity="0.5"/>
<path d="M25.6619 84.788C25.0104 84.941 24.3589 85.0941 23.7074 85.2472C23.588 85.3017 23.5556 85.3886 23.6101 85.508C24.0019 86.0506 24.4587 86.4192 25.0998 86.5594C25.1868 86.5919 25.2192 86.5049 25.1323 86.4724C24.643 86.1908 24.1863 85.8222 23.7944 85.2797C23.7619 85.3666 23.7295 85.4536 23.697 85.5405C24.381 85.3005 25.0325 85.1474 25.6619 84.788C25.7164 84.9074 25.7489 84.8204 25.6619 84.788Z" fill="#C99846" fill-opacity="0.5"/>
<path d="M37.146 86.3995C44.7136 84.1718 52.206 82.4114 59.8502 80.5095C59.9696 80.455 59.9475 80.2486 59.8281 80.3031C52.1282 81.2927 44.4087 83.6618 37.146 86.3995C37.0915 86.2801 37.146 86.3995 37.146 86.3995Z" fill="#C99846" fill-opacity="0.5"/>
<path d="M46.449 82.442C51.8025 81.3692 57.4389 80.6001 62.7158 79.2015C62.8352 79.147 62.8132 78.9407 62.6938 78.9952C57.2417 79.5359 51.7259 81.0434 46.3945 82.3226C46.3075 82.2902 46.362 82.4096 46.449 82.442Z" fill="#C99846" fill-opacity="0.5"/>
<path d="M52.5293 80.749C57.1223 79.5904 62.0306 78.6487 66.4706 76.8386C66.59 76.7841 66.5679 76.5778 66.3616 76.5998C61.7245 77.3456 57.0782 79.1777 52.4748 80.6295C52.4748 80.6295 52.4423 80.7165 52.5293 80.749Z" fill="#C99846" fill-opacity="0.5"/>
<path d="M56.7439 73.7036C61.1317 73.36 66.0505 72.125 70.1647 70.3915C70.2841 70.337 70.2296 70.2176 70.1426 70.1851C65.7015 71.2022 61.1085 72.3607 56.7439 73.7036Z" fill="#C99846" fill-opacity="0.5"/>
<path d="M57.35 72.3448C61.4122 72.0778 65.8754 71.2671 69.5989 69.7841C69.7183 69.7296 69.6638 69.6102 69.5768 69.5777C65.5263 70.3443 61.3785 71.3718 57.35 72.3448C57.2631 72.3124 57.35 72.3448 57.35 72.3448Z" fill="#C99846" fill-opacity="0.5"/>
<path d="M58.4675 71.4741C61.8665 70.8606 65.4069 70.3989 68.7073 69.2532C68.8267 69.1987 68.7722 69.0793 68.6853 69.0468C65.2967 69.3671 61.8224 70.4479 58.5 71.3872C58.3261 71.3223 58.3806 71.4417 58.4675 71.4741Z" fill="#C99846" fill-opacity="0.5"/>
<path d="M59.3021 70.2997C61.8977 69.9807 64.5803 69.6941 67.1863 69.0817C67.3927 69.0597 67.2837 68.8209 67.0774 68.8429C64.4272 69.0426 61.8537 69.568 59.1931 70.0609C59.0737 70.1154 59.0958 70.3217 59.3021 70.2997Z" fill="#C99846" fill-opacity="0.5"/>
<path d="M65.9844 71.5059C68.9602 71.2297 72.3813 70.8225 75.1496 69.7754C75.269 69.7209 75.2469 69.5146 75.1275 69.5691C72.0972 69.7258 68.8617 70.6976 65.9299 71.3865C65.8429 71.354 65.865 71.5604 65.9844 71.5059Z" fill="#C99846" fill-opacity="0.5"/>
<path d="M67.0902 70.1355C69.3056 69.7737 71.8363 69.6285 74.0076 68.8539C74.127 68.7994 74.1049 68.5931 73.9855 68.6476C71.6936 68.6837 69.316 69.4804 67.0682 69.9292C66.8618 69.9512 66.9708 70.19 67.0902 70.1355Z" fill="#C99846" fill-opacity="0.5"/>
<path d="M46.4575 73.9259C50.2704 74.0612 54.5389 73.7722 57.9795 71.9854C58.0989 71.9309 58.0444 71.8115 57.9575 71.7791C54.1354 72.73 50.5741 73.7783 46.5224 73.752C46.403 73.8065 46.4575 73.9259 46.4575 73.9259Z" fill="#C99846" fill-opacity="0.5"/>
<path d="M46.2083 74.3282C50.26 74.3545 54.3871 73.9136 58.2741 72.7888C58.3935 72.7343 58.339 72.6149 58.252 72.5824C54.234 73.2621 50.3029 73.9742 46.1863 74.1218C46.1538 74.2088 46.0889 74.3827 46.2083 74.3282Z" fill="#C99846" fill-opacity="0.5"/>
<path d="M53.2996 73.1115C54.6571 72.9247 56.0146 72.7379 57.4045 72.4642C57.5239 72.4097 57.4695 72.2903 57.3501 72.3448C55.9925 72.5316 54.6026 72.8053 53.332 73.0245C53.2126 73.079 53.2671 73.1984 53.2996 73.1115Z" fill="#C99846" fill-opacity="0.5"/>
<path d="M91.768 83.1105C95.1774 82.2036 98.8801 81.3071 102.017 79.8033C102.136 79.7488 102.082 79.6294 101.962 79.6839C98.4441 80.3519 94.9594 81.726 91.7135 82.9911C91.681 83.078 91.7355 83.1974 91.768 83.1105Z" fill="#C99846" fill-opacity="0.5"/>
<path d="M91.6578 82.0787C94.9165 82.1063 98.2065 81.2539 101.05 79.7396C101.17 79.6851 101.115 79.5657 101.028 79.5333C97.8795 80.5375 94.8283 81.2809 91.6357 81.8724C91.5163 81.9269 91.4514 82.1008 91.6578 82.0787Z" fill="#C99846" fill-opacity="0.5"/>
<path d="M92.6442 80.7629C95.1645 80.9111 98.3467 80.6129 100.626 79.2841C100.745 79.2296 100.723 79.0233 100.517 79.0453C99.1593 79.2321 97.9108 79.6576 96.6077 79.9638C95.3047 80.27 93.9797 80.3698 92.6221 80.5566C92.5897 80.6435 92.5248 80.8174 92.6442 80.7629Z" fill="#C99846" fill-opacity="0.5"/>
<path d="M94.5546 79.8909C95.7058 79.7262 96.77 79.529 97.8667 79.2449C97.9861 79.1904 97.964 78.9841 97.7577 79.0061C96.639 79.0839 95.5423 79.368 94.5001 79.7715C94.4132 79.7391 94.4352 79.9454 94.5546 79.8909Z" fill="#C99846" fill-opacity="0.5"/>
<path d="M59.6561 88.4611C64.1181 86.8574 68.6125 85.1668 72.9434 83.1179C73.0628 83.0634 73.0083 82.944 72.9214 82.9116C68.4049 84.3959 63.987 86.4123 59.6016 88.3417C59.5147 88.3092 59.5367 88.5156 59.6561 88.4611Z" fill="#C99846" fill-opacity="0.5"/>
<path d="M58.9268 87.4954C62.9553 86.5225 67.4393 85.1251 71.1187 83.2294C71.2381 83.1749 71.1836 83.0555 71.0967 83.023C67.0033 84.1699 62.9216 85.8164 58.9593 87.4085C58.7529 87.4305 58.8074 87.5499 58.9268 87.4954Z" fill="#C99846" fill-opacity="0.5"/>
<path d="M58.7946 86.2573C62.7361 85.2519 66.8839 84.2244 70.6399 82.6544C70.7593 82.5999 70.7372 82.3935 70.5309 82.4156C66.5349 83.3016 62.5181 84.7743 58.7401 86.1379C58.6207 86.1924 58.6752 86.3118 58.7946 86.2573Z" fill="#C99846" fill-opacity="0.5"/>
<path d="M58.7609 85.5513C61.7251 84.7755 64.9723 84.3034 67.8055 83.0824C67.9249 83.0279 67.8704 82.9085 67.7834 82.8761C64.7426 83.3262 61.7031 84.5692 58.8258 85.3774C58.587 85.4864 58.6415 85.6058 58.7609 85.5513Z" fill="#C99846" fill-opacity="0.5"/>
<path d="M46.4808 88.992C51.0634 88.1268 56.0042 87.0981 60.2923 85.4295C60.4117 85.375 60.3897 85.1686 60.1833 85.1907C55.6111 85.7626 50.7689 87.3234 46.3718 88.7532C46.3718 88.7532 46.3614 89.0465 46.4808 88.992Z" fill="#C99846" fill-opacity="0.5"/>
<path d="M36.296 56.5618C39.5352 57.9689 43.1754 58.8322 46.7171 59.1635C46.804 59.1959 46.8365 59.109 46.7495 59.0765C43.2832 58.2781 39.8493 57.3927 36.3609 56.3879C36.274 56.3554 36.2091 56.5293 36.296 56.5618Z" fill="#C99846" fill-opacity="0.5"/>
<path d="M36.3492 55.8882C39.5015 57.2628 43.1858 58.5389 46.673 58.7508C46.7599 58.7832 46.8248 58.6093 46.7379 58.5769C43.4338 57.3437 39.8156 56.6867 36.3817 55.8012L36.3492 55.8882Z" fill="#C99846" fill-opacity="0.5"/>
<path d="M38.6087 55.939C41.8362 56.8464 45.0209 58.1341 48.2589 58.7483C48.4328 58.8132 48.4107 58.6068 48.3562 58.4874C45.4104 57.0907 41.8791 56.4662 38.6412 55.8521C38.5867 55.7326 38.5218 55.9065 38.6087 55.939Z" fill="#C99846" fill-opacity="0.5"/>
<path d="M37.9223 54.5932C42.2036 55.5967 46.4421 56.9806 50.691 58.0711C50.778 58.1035 50.8429 57.9296 50.7559 57.8972C46.7667 56.1111 42.279 55.1295 37.9872 54.4193C37.8678 54.4738 37.9223 54.5932 37.9223 54.5932Z" fill="#C99846" fill-opacity="0.5"/>
<path d="M65.1681 56.441C67.2212 56.5138 69.2302 56.174 71.2937 55.9536C73.5636 55.7111 75.91 55.7943 78.1033 55.2261C78.2227 55.1716 78.1682 55.0522 78.0813 55.0197C76.0606 54.8599 73.9971 55.0804 71.9336 55.3008C69.7182 55.6627 67.3069 55.7533 65.1681 56.441C65.1136 56.3216 65.0811 56.4085 65.1681 56.441Z" fill="#C99846" fill-opacity="0.5"/>
<path d="M65.699 55.5495C69.142 55.3486 72.7266 55.2996 76.0386 54.6536C76.158 54.5991 76.1035 54.4797 76.0165 54.4473C72.6384 54.4742 69.1524 55.0553 65.699 55.5495C65.699 55.5495 65.6665 55.6364 65.699 55.5495Z" fill="#C99846" fill-opacity="0.5"/>
<path d="M65.5459 54.898C68.902 54.6647 72.3451 54.4638 75.6247 53.9047C75.7441 53.8502 75.6896 53.7308 75.6026 53.6984C72.2244 53.7253 68.8579 54.252 65.4914 54.7786C65.4044 54.7461 65.4589 54.8655 65.5459 54.898Z" fill="#C99846" fill-opacity="0.5"/>
<path d="M65.6849 53.4639C67.4875 53.1461 69.3447 52.9477 71.1694 52.8362C72.8747 52.7793 74.5372 53.1026 76.21 53.1326C76.3294 53.0781 76.3943 52.9042 76.3074 52.8717C72.9604 52.0188 68.9749 52.6115 65.7173 53.3769C65.5434 53.312 65.5979 53.4314 65.6849 53.4639Z" fill="#C99846" fill-opacity="0.5"/>
<path d="M141.216 63.4273C143.552 63.8039 145.866 63.9741 148.18 64.1443C148.94 64.23 154.721 65.1987 155.067 64.5355C155.1 64.4486 155.013 64.4161 154.98 64.5031C154.731 64.9054 154.84 65.1442 155.275 65.3064C155.275 65.3064 155.362 65.3389 155.394 65.252C156.728 64.0659 153.643 64.1032 153.263 64.0604C149.309 63.7732 145.245 63.2473 141.281 63.2534C141.161 63.3079 141.129 63.3948 141.216 63.4273Z" fill="#C99846" fill-opacity="0.5"/>
<path d="M141.225 62.341C145.853 62.6814 150.503 63.2282 155.185 63.688C155.359 63.7529 155.37 63.4596 155.196 63.3947C150.611 62.6741 145.896 62.3012 141.203 62.1346C141.17 62.2216 141.193 62.4279 141.225 62.341Z" fill="#C99846" fill-opacity="0.5"/>
<path d="M144.113 61.2394C147.09 61.7562 150.034 62.36 153.054 62.4965C153.141 62.5289 153.174 62.442 153.087 62.4095C150.088 61.6864 147.013 61.4305 144.113 61.2394C144.058 61.12 144.026 61.207 144.113 61.2394Z" fill="#C99846" fill-opacity="0.5"/>
<path d="M128.224 62.9369C131.102 62.9216 134.013 62.8193 136.827 62.9779C139.727 63.1689 142.498 63.7077 145.399 63.8988C145.485 63.9312 145.55 63.7573 145.463 63.7249C140.117 62.1255 133.719 62.0159 128.169 62.8175C128.082 62.785 128.104 62.9914 128.224 62.9369Z" fill="#C99846" fill-opacity="0.5"/>
<path d="M123.119 63.6074C126.399 63.0483 129.636 62.8695 132.992 62.6362C133.111 62.5817 133.089 62.3753 132.97 62.4298C129.721 62.109 126.268 62.6032 123.065 63.488C122.978 63.4555 123.032 63.5749 123.119 63.6074Z" fill="#C99846" fill-opacity="0.5"/>
<path d="M153.751 63.5491C157.076 64.1957 160.857 64.4179 164.31 63.9238C164.429 63.8693 164.375 63.7499 164.288 63.7174C160.768 63.5925 157.271 63.674 153.784 63.4621C153.697 63.4297 153.664 63.5166 153.751 63.5491Z" fill="#C99846" fill-opacity="0.5"/>
<path d="M65.756 71.3216C67.2329 71.0804 68.6878 70.6328 70.1102 70.2721C71.2938 70.0204 72.5319 69.8882 73.5845 69.1913C73.8233 69.0823 73.6598 68.7241 73.3665 68.7137C72.0843 68.4333 70.6515 69.0873 69.3484 69.3934C68.0454 69.6996 66.623 70.0602 65.5159 70.6377C65.1253 70.8881 65.3108 71.4527 65.756 71.3216Z" fill="#C99846" fill-opacity="0.5"/>
<path d="M66.7541 70.5054C69.4807 70.6315 73.5973 70.484 75.7778 68.6231C75.9297 68.4817 75.7882 68.3298 75.6143 68.2649C74.2023 68.3323 72.8564 69.0187 71.4665 69.2924C69.9571 69.6206 68.3387 69.71 66.8398 69.7449C66.2856 69.6372 66.1675 70.4846 66.7541 70.5054Z" fill="#C99846" fill-opacity="0.5"/>
<path d="M64.1131 69.6187C65.786 69.6487 67.4368 69.4724 69.1421 69.4154C70.7604 69.326 72.5203 69.3885 74.0945 68.8864C74.3009 68.8643 74.2568 68.4516 74.0829 68.3867C72.6268 68.0414 71.1174 68.3696 69.586 68.4914C67.7613 68.6029 65.9366 68.7143 64.1339 69.0321C63.7212 69.0762 63.7329 69.5759 64.1131 69.6187Z" fill="#C99846" fill-opacity="0.5"/>
<path d="M63.5694 69.2177C65.59 69.3775 67.6756 69.3634 69.7936 69.2624C71.7377 69.0964 74.1166 69.0928 75.7986 68.0365C76.0374 67.9275 75.9609 67.6018 75.6676 67.5913C73.8533 67.4095 72.0402 68.0206 70.2155 68.132C68.065 68.32 65.7731 68.3562 63.6331 68.2509C63.0465 68.23 62.9828 69.1969 63.5694 69.2177Z" fill="#C99846" fill-opacity="0.5"/>
<path d="M68.6424 69.4271C70.2283 69.4246 71.7377 69.0964 73.3016 68.8876C74.7785 68.6464 76.4838 68.5894 77.8297 67.903C78.0685 67.794 77.9919 67.4682 77.6986 67.4578C76.1452 67.3733 74.6034 67.7885 73.0071 68.0843C71.4977 68.4125 69.9338 68.6213 68.479 69.0689C68.3596 69.1234 68.4361 69.4491 68.6424 69.4271Z" fill="#C99846" fill-opacity="0.5"/>
<path d="M69.8469 68.5888C71.8896 68.955 74.1815 68.9188 76.2113 67.9924C76.3307 67.9379 76.3087 67.7315 76.1023 67.7536C73.9739 68.1479 72.0518 68.5202 69.8573 68.2955C69.7379 68.35 69.7599 68.5563 69.8469 68.5888Z" fill="#C99846" fill-opacity="0.5"/>
</svg>
