<svg width="103" height="83" viewBox="0 0 103 83" fill="none" xmlns="http://www.w3.org/2000/svg">
<path d="M64.4053 2.34755C65.4748 3.23881 66.8117 3.77356 68.1486 3.95181C69.4854 4.13006 71.4462 4.21919 72.5157 3.14968C72.7831 2.88231 72.6048 2.5258 72.2483 2.5258C71.1788 2.43668 70.1984 2.88231 69.1289 2.88231C67.6138 2.88231 66.3661 2.43668 65.0292 1.8128C64.5835 1.54542 64.0488 2.08018 64.4053 2.34755Z" fill="#505050" fill-opacity="0.5"/>
<path d="M72.3375 2.70406C72.5157 2.79319 72.8722 2.88231 72.9613 2.61494C73.2287 1.90193 72.5157 1.63456 71.981 1.27805C69.842 0.119424 66.8117 0.119424 64.5835 1.0998C64.4944 1.18893 64.5835 1.36718 64.6727 1.27805C65.9204 0.921553 66.9899 0.654177 68.3268 0.654177C69.0398 0.654177 69.7528 0.832428 70.3767 1.01068C70.9115 1.18893 71.3571 1.36718 71.8027 1.54543C72.2483 1.63456 72.4266 1.90193 72.4266 2.43669C72.3375 2.43669 72.2483 2.61494 72.3375 2.70406Z" fill="#505050" fill-opacity="0.5"/>
<path d="M64.8509 1.99105C63.8706 4.75394 63.7814 7.96246 63.3358 10.9036C63.0684 12.9535 62.7119 14.6469 60.7512 15.8946C59.3252 16.875 57.4535 17.3206 55.7601 17.8554C51.4821 19.1923 45.9564 19.9944 43.4608 24.1833C43.2826 24.4507 43.6391 24.718 43.8173 24.5398C49.1649 21.3313 55.1363 20.2618 60.5729 17.4989C62.8902 16.3402 63.7814 14.5577 64.1379 12.1514C64.6727 9.03196 65.2074 5.19957 64.9401 2.08018C65.0292 1.90193 64.8509 1.8128 64.8509 1.99105Z" fill="#505050" fill-opacity="0.5"/>
<path d="M47.2041 21.866C46.1346 22.1334 45.3324 22.6682 44.6194 23.5594C44.0847 24.1833 43.0152 25.431 43.3717 26.2332C43.3717 26.3223 43.5499 26.4114 43.6391 26.3223C43.9956 26.144 44.0847 25.7875 44.2629 25.431C44.4412 24.9854 44.7977 24.5398 45.0651 24.0942C45.5998 23.292 46.4911 22.579 47.2041 21.866C47.2932 21.9552 47.2932 21.866 47.2041 21.866Z" fill="#505050" fill-opacity="0.5"/>
<path d="M45.2433 22.4899C43.9064 23.1138 42.5695 24.7181 42.6587 26.2332C42.6587 26.4114 42.8369 26.4114 42.926 26.3223C43.2825 25.7876 43.5499 25.1637 43.9064 24.6289C44.3521 24.0051 44.8868 23.3812 45.4216 22.8464C45.5998 22.579 45.4216 22.4008 45.2433 22.4899Z" fill="#505050" fill-opacity="0.5"/>
<path d="M72.1592 2.7932C72.0701 2.7932 72.0701 2.70407 71.981 2.70407C71.8918 2.70407 71.8918 2.70407 71.8027 2.70407C71.8027 2.70407 71.7136 2.70407 71.7136 2.7932C71.6244 2.7932 71.6244 2.97145 71.7136 2.97145C71.7136 2.97145 71.8027 2.97145 71.8027 3.06057C71.8918 3.06057 71.8918 3.06057 71.981 3.06057C72.0701 3.06057 72.0701 2.97145 72.1592 2.97145C72.2483 2.88232 72.2483 2.88232 72.1592 2.7932Z" fill="#505050" fill-opacity="0.5"/>
<path d="M66.5443 2.52582C65.2074 8.85372 67.2573 17.588 60.2164 20.9748C60.0382 21.0639 60.2164 21.2422 60.3055 21.2422C63.0684 20.6183 64.5836 18.301 65.4748 15.7164C66.0987 14.023 66.0987 12.0622 66.2769 10.2797C66.4552 7.69509 66.8117 5.11045 66.6334 2.52582C66.7226 2.52582 66.5443 2.43669 66.5443 2.52582Z" fill="#505050" fill-opacity="0.5"/>
<path d="M30.5376 50.9209C32.7658 51.0991 34.4592 50.9209 36.5982 51.9013C38.2916 52.7034 39.7176 54.1294 41.0544 55.5554C43.6391 58.4074 45.3325 61.8833 48.0953 64.6462C53.3537 69.6372 64.2271 69.6372 64.0488 78.9954C64.0488 79.7084 65.1183 79.8867 65.2966 79.1736C68.0594 70.0829 54.1559 67.4091 49.254 63.4876C45.5107 60.4573 43.4608 55.8228 39.7176 52.7034C37.4894 50.8318 33.1223 48.871 30.4485 50.8318C30.4485 50.7426 30.4485 50.8318 30.5376 50.9209Z" fill="#505050" fill-opacity="0.5"/>
<path d="M31.1615 50.7427C30.3594 51.01 30.1811 51.4557 30.6268 52.2578C30.7159 52.3469 30.805 52.4361 30.8941 52.3469C38.9154 49.6732 38.9154 61.4377 39.8067 66.1614C40.6088 70.4394 43.2826 74.2718 46.402 77.1238C49.254 79.8867 53.2646 81.9366 57.2753 82.2931C60.2164 82.5604 65.2965 81.8474 64.7618 77.8368C64.6727 77.4803 64.227 77.5694 64.1379 77.7477C61.9098 80.7779 59.236 81.2236 55.7601 80.5106C53.4429 80.0649 51.393 78.9063 49.4322 77.6585C45.3325 74.8957 42.4804 70.4394 41.2327 65.8049C40.1632 61.9725 40.4306 57.5162 37.935 54.2186C37.222 53.3273 36.0634 52.3469 34.9939 51.9013C34.4592 51.723 33.9244 51.4557 33.3005 51.4557C33.2114 51.4557 30.805 51.3665 31.3398 51.0992C31.518 51.01 31.3398 50.6535 31.1615 50.7427Z" fill="#505050" fill-opacity="0.5"/>
<path d="M32.0528 50.6535C37.5785 48.4254 41.5 51.9904 45.7781 54.9316C49.6105 57.6053 53.6211 59.8335 57.7209 61.9725C61.375 63.9332 65.2965 66.0722 66.9008 70.0829C68.7724 74.7174 65.653 78.3716 62.2663 80.9562C61.9098 81.2236 62.2663 81.6692 62.6228 81.5801C66.4552 80.7779 68.5051 76.589 68.9507 73.024C69.4854 68.5678 65.7422 65.0027 62.4445 62.8637C57.0079 59.2987 50.7691 56.9814 45.2433 53.5056C41.5892 51.1883 36.1525 46.9103 31.8745 50.4753C31.7854 50.4753 31.8745 50.6535 32.0528 50.6535Z" fill="#505050" fill-opacity="0.5"/>
<path d="M68.4159 3.50617C68.2377 5.28868 68.3268 7.16031 68.3268 8.94282C68.3268 9.03195 68.5051 9.03195 68.5051 8.94282C69.1289 7.24944 69.3963 5.19956 68.8616 3.41705C68.7724 3.2388 68.4159 3.32792 68.4159 3.50617Z" fill="#505050" fill-opacity="0.5"/>
<path d="M37.4894 54.8424C31.9636 57.8727 26.7944 61.3486 21.0012 64.0223C14.5842 66.9635 7.54327 68.5677 0.502364 68.6569C0.145863 68.6569 -0.121514 69.1025 0.0567372 69.459C0.59149 70.4394 1.30449 70.7068 2.374 71.0633C4.95863 71.7763 7.18677 73.024 9.41491 74.5391C13.3364 77.1238 16.9014 79.7084 21.6251 80.5105C28.7551 81.7583 38.8263 78.9954 42.4804 72.2219C42.8369 71.598 42.0348 71.0633 41.5892 71.5089C38.5589 73.9153 35.9743 76.1434 32.231 77.5694C28.7551 78.9063 24.8336 79.0845 21.1795 78.5498C17.4362 77.9259 14.0494 75.9651 10.8409 74.0935C9.14753 73.1131 7.36502 72.0436 5.58251 71.2415C4.33476 70.6176 1.66099 70.4394 0.947991 69.1025C0.769741 69.3699 0.680615 69.6372 0.502364 69.9046C14.2277 69.9937 27.0617 63.8441 37.7568 55.4663C37.935 55.0207 37.6677 54.7533 37.4894 54.8424Z" fill="#505050" fill-opacity="0.5"/>
<path d="M41.3218 70.5285C41.3218 70.7958 41.2327 71.0632 41.1436 71.2415C41.0544 71.5088 40.9653 71.5088 40.7871 71.598C40.6979 71.6871 40.6979 71.8653 40.7871 71.9545C41.0544 72.311 41.5001 72.0436 41.6783 71.7762C41.9457 71.4197 41.7674 70.885 41.6783 70.5285C41.5892 70.3502 41.3218 70.4393 41.3218 70.5285Z" fill="#505050" fill-opacity="0.5"/>
<path d="M1.30448 70.172C3.53261 70.4394 5.67162 69.9937 7.89976 70.5285C9.59314 70.9741 11.1974 72.2219 12.7125 73.2022C15.0298 74.7174 17.7927 75.7869 20.6447 76.1434C26.3487 76.8564 33.0331 75.6086 36.9546 71.0632C37.0438 70.9741 36.9546 70.885 36.8655 70.9741C30.9832 74.7174 25.101 76.6781 18.0601 74.8956C15.0298 74.0935 12.6234 72.1327 9.94964 70.6176C7.27588 69.1025 4.24561 69.7264 1.30448 69.7264C1.0371 69.7264 1.0371 70.0829 1.30448 70.172Z" fill="#505050" fill-opacity="0.5"/>
<path d="M38.3815 70.2616C38.3815 70.2616 38.3815 70.1714 38.3815 70.2616C38.2913 70.1714 38.2913 70.2616 38.3815 70.2616Z" fill="#505050" fill-opacity="0.5"/>
<path d="M40.787 66.2505C39.7175 66.9635 39.0045 67.9439 38.2024 68.9242C36.9546 70.2611 35.3504 71.2415 33.8353 72.1328C30.5376 74.0935 26.9726 74.1826 23.4076 74.9848C23.2293 74.9848 23.2293 75.2522 23.4076 75.3413C26.8835 76.4999 30.6267 75.2522 33.7461 73.737C36.4199 72.4001 40.4305 69.5481 41.0544 66.4287C40.9653 66.3396 40.8762 66.1614 40.787 66.2505Z" fill="#505050" fill-opacity="0.5"/>
<path d="M65.653 14.023C62.801 21.9551 54.245 22.3117 47.2932 24.2724C41.6783 25.8767 36.5981 28.7287 32.4092 32.8285C28.5769 36.5717 26.527 41.5627 26.0813 46.8211C25.7248 51.1883 26.8835 57.1597 30.805 59.6552C31.0724 59.8335 31.3397 59.477 31.2506 59.2096C30.1811 56.8032 28.7551 54.6642 28.1312 52.0795C27.3291 48.9602 27.6856 45.6625 28.5769 42.5431C30.2702 36.3935 35.2613 31.9372 40.6088 28.9069C46.2237 25.6984 52.6407 25.1637 58.6121 22.9355C62.3554 21.5095 65.9204 18.3901 66.0986 14.1121C66.0095 13.7556 65.7421 13.7556 65.653 14.023Z" fill="#505050" fill-opacity="0.5"/>
<path d="M71.981 2.43668C70.555 9.38846 72.7831 16.162 78.4871 20.44C85.7954 25.9658 93.4602 30.6894 98.0056 39.0672C102.64 47.6233 100.323 57.5162 93.8167 64.2897C90.6082 67.5874 86.3302 69.5481 81.963 70.7068C77.5959 71.8654 73.407 71.4198 69.0398 71.4198C68.0595 71.4198 67.7921 72.9349 68.7725 73.2023C76.7046 75.3413 86.3302 72.311 92.6581 67.5874C98.986 62.8637 102.64 55.0207 102.194 47.2668C101.749 38.5325 95.5992 31.4024 89.1822 26.0549C85.528 23.1138 81.3391 20.7965 77.8632 17.7663C73.2287 13.8447 72.8722 8.14071 72.6048 2.5258C72.5157 2.25843 71.981 2.1693 71.981 2.43668Z" fill="#505050" fill-opacity="0.5"/>
<path d="M68.5051 4.48656C68.5051 4.75394 68.3268 4.93219 68.5051 5.19957C68.5942 5.28869 68.6833 5.28869 68.7724 5.19957C68.9507 4.93219 68.7724 4.75394 68.7724 4.48656C68.7724 4.30831 68.5942 4.30831 68.5051 4.48656Z" fill="#505050" fill-opacity="0.5"/>
<path d="M70.3767 3.41708C69.2181 9.38848 70.3767 15.1816 73.3178 20.44C76.4372 26.2332 81.6956 30.4221 86.1519 35.1457C90.8755 40.2259 93.7276 46.2864 93.5493 53.3273C93.2819 60.6356 90.2517 66.1614 84.9041 71.0633C84.7259 71.2415 84.9933 71.598 85.1715 71.4198C93.8167 65.2701 97.0252 51.6339 92.9254 42.0084C90.2517 35.7696 84.9041 31.3133 80.0914 26.7679C73.7635 20.8857 69.3072 12.5079 70.7332 3.59533C70.8223 3.32795 70.4658 3.23883 70.3767 3.41708Z" fill="#505050" fill-opacity="0.5"/>
<path d="M67.7921 3.68444C66.7226 9.03196 67.3464 14.3795 65.6531 19.6379C63.9597 24.718 59.7708 28.7287 56.1166 32.4719C51.2147 37.463 42.3022 47.3559 47.4715 54.8424C47.828 55.2881 48.6301 55.1989 48.541 54.5751C48.541 52.3469 48.1845 50.297 48.541 48.0689C48.8975 45.4843 50.1452 42.9887 51.4821 40.6715C54.0668 36.2152 57.81 32.6502 61.1077 28.8178C63.6032 25.8767 65.5639 22.579 66.7226 18.8358C68.1486 14.2012 68.0594 8.67546 68.1486 3.86269C68.1486 3.50619 67.7921 3.50619 67.7921 3.68444Z" fill="#505050" fill-opacity="0.5"/>
<path d="M69.0398 3.41705C67.7921 9.29933 68.5942 15.5381 70.1984 21.2421C72.1592 28.1048 76.7046 33.6306 79.111 40.2258C81.1609 45.7516 81.25 51.723 79.9131 57.4271C79.2892 60.2791 78.1306 62.9528 76.7046 65.5375C75.1895 68.2112 72.9613 70.172 71.1788 72.5784C70.9114 73.024 71.4462 73.4696 71.8918 73.2914C76.0807 70.9741 78.9327 65.6266 80.6261 61.4377C82.7651 56.2684 83.1216 50.4753 82.2304 44.9495C81.1609 38.176 76.6155 32.9176 73.4961 27.0353C69.5746 19.6379 69.1289 11.6166 69.6637 3.41705C69.7528 3.14967 69.1289 3.06055 69.0398 3.41705Z" fill="#505050" fill-opacity="0.5"/>
<path d="M47.828 51.0992C47.5606 51.9904 48.1845 52.8817 48.541 53.7729C49.0757 54.8424 49.5214 55.9119 50.2344 56.8032C50.5017 57.0706 50.8582 56.8032 50.7691 56.5358C50.5909 55.4663 50.1452 54.575 49.6996 53.5947C49.254 52.7034 48.9866 51.5448 48.0062 51.01C47.9171 50.9209 47.828 51.01 47.828 51.0992Z" fill="#505050" fill-opacity="0.5"/>
<path d="M48.4518 54.0403C48.541 54.4859 48.8083 54.8424 48.9866 55.288C49.1648 55.7337 49.4322 56.2684 49.7887 56.6249C49.8778 56.7141 50.0561 56.6249 50.0561 56.4467C49.967 56.001 49.6996 55.5554 49.4322 55.1989C49.1648 54.7533 48.8975 54.3077 48.541 53.9512C48.541 53.862 48.4518 53.9512 48.4518 54.0403Z" fill="#505050" fill-opacity="0.5"/>
<path d="M50.3235 55.5554C49.7887 52.0795 49.5214 49.0493 50.1452 45.5734C50.68 42.5431 52.1951 39.9585 53.532 37.1956C53.6211 37.1065 53.4429 36.9282 53.3538 37.0173C49.254 41.6519 48.0062 49.8514 50.2344 55.5554C50.2344 55.6445 50.3235 55.5554 50.3235 55.5554Z" fill="#505050" fill-opacity="0.5"/>
<path d="M53.9776 58.1401C52.9081 49.7623 54.7797 43.0779 59.949 36.3935C63.6923 31.5807 66.9008 26.5897 67.9703 20.44C67.9703 20.3509 67.8812 20.3509 67.8812 20.44C66.7225 24.1833 65.2965 27.6592 63.2466 30.8677C61.2859 33.8088 58.9686 36.4826 57.097 39.5129C53.7102 44.7713 52.4625 52.0795 53.9776 58.1401C53.9776 58.1401 53.8885 58.1401 53.9776 58.1401Z" fill="#505050" fill-opacity="0.5"/>
<path d="M68.1486 13.7556C67.7029 16.6076 67.1682 19.4596 66.6334 22.4008C66.6334 22.4899 66.7225 22.579 66.8117 22.4899C67.8812 19.9052 68.4159 16.6076 68.3268 13.8447C68.3268 13.6665 68.2377 13.6665 68.1486 13.7556Z" fill="#505050" fill-opacity="0.5"/>
<path d="M68.3268 13.3991C68.2377 16.3403 67.6138 19.1031 67.2573 22.0443C67.2573 22.1334 67.4355 22.2225 67.4355 22.1334C68.505 19.5488 68.6833 16.2511 68.4159 13.4882C68.4159 13.31 68.3268 13.31 68.3268 13.3991Z" fill="#505050" fill-opacity="0.5"/>
<path d="M68.6833 16.2512C68.3268 18.301 67.8812 20.5292 67.9703 22.6682C67.9703 22.7573 68.1486 22.7573 68.1486 22.6682C68.6833 20.6183 68.7725 18.3902 68.8616 16.2512C68.8616 16.2512 68.7725 16.162 68.6833 16.2512Z" fill="#505050" fill-opacity="0.5"/>
<path d="M68.3268 10.5471C68.2377 11.1709 68.2377 11.7948 68.3268 12.5078C68.3268 12.597 68.505 12.597 68.505 12.5078C68.5942 11.884 68.505 11.2601 68.505 10.5471C68.4159 10.4579 68.3268 10.4579 68.3268 10.5471Z" fill="#505050" fill-opacity="0.5"/>
<path d="M68.5051 19.727C69.1289 23.6485 70.1093 27.4809 71.4462 31.2242C72.7831 35.2349 74.833 38.9781 75.9916 42.9888C78.8436 52.4361 73.3178 61.616 69.7528 69.9938C69.6637 70.2611 70.0202 70.5285 70.1093 70.2611C74.5656 63.2202 77.9524 54.6642 77.2394 46.2864C76.8829 42.0975 74.7438 38.2651 73.1396 34.5218C71.268 29.62 69.9311 24.6289 68.5051 19.727C68.5942 19.6379 68.5051 19.6379 68.5051 19.727Z" fill="#505050" fill-opacity="0.5"/>
<path d="M77.5067 61.8834C76.8828 63.2202 76.1698 64.468 75.4568 65.7158C74.5656 67.0526 73.3178 68.3004 72.6048 69.7264C72.5157 69.8155 72.6939 69.9046 72.7831 69.9046C75.1003 68.1221 76.5263 64.5571 77.5067 61.8834Z" fill="#505050" fill-opacity="0.5"/>
<path d="M78.0415 61.8834C76.6155 65.3593 74.2091 68.2113 72.2483 71.3307C72.0701 71.598 72.4266 71.8654 72.694 71.598C75.4568 69.1025 77.0611 65.2701 78.2197 61.8834C78.2197 61.7942 78.1306 61.7942 78.0415 61.8834Z" fill="#505050" fill-opacity="0.5"/>
<path d="M76.8829 62.5072C74.9221 65.8048 72.4266 68.6569 70.1985 71.7762C70.0202 72.0436 70.4658 72.4001 70.7332 72.1328C73.407 69.459 75.2786 65.9831 76.8829 62.5072Z" fill="#505050" fill-opacity="0.5"/>
<path d="M75.2786 66.6962C73.8526 68.6569 71.9809 70.3503 70.6441 72.3111C70.5549 72.4893 70.7332 72.5784 70.9114 72.5784C73.0505 71.3307 74.3873 68.9243 75.4568 66.7853C75.546 66.6962 75.3677 66.607 75.2786 66.6962Z" fill="#505050" fill-opacity="0.5"/>
<path d="M80.4479 53.3273C79.3784 56.6249 77.8632 59.5661 76.4372 62.6855C76.4372 62.7746 76.5263 62.7746 76.5263 62.7746C78.6654 60.1008 79.9131 56.714 80.537 53.4164C80.6261 53.2382 80.4479 53.2382 80.4479 53.3273Z" fill="#505050" fill-opacity="0.5"/>
<path d="M81.0717 54.3077C80.3587 57.3379 78.9327 60.0117 77.685 62.8637C77.5958 63.0419 77.8632 63.2202 77.9523 63.042C79.7348 60.4573 80.537 57.427 81.1609 54.3968C81.1609 54.2185 81.0717 54.2185 81.0717 54.3077Z" fill="#505050" fill-opacity="0.5"/>
<path d="M68.1486 23.5594C69.3963 30.333 71.5353 37.1956 72.0701 44.0583C72.694 51.1883 69.6637 57.6945 67.7029 64.2897C67.7029 64.3789 67.7921 64.468 67.8812 64.3789C70.6441 58.4075 72.6048 51.8122 72.6048 45.2169C72.6048 42.0084 71.7136 38.7999 71.0006 35.7696C70.1985 31.6698 69.2181 27.5701 68.1486 23.5594C68.2377 23.4703 68.1486 23.4703 68.1486 23.5594Z" fill="#505050" fill-opacity="0.5"/>
<path d="M66.7225 28.1048C65.4748 33.4523 62.3554 37.9977 60.8403 43.2561C59.4143 48.3363 60.3055 54.1294 61.5533 59.1205C61.5533 59.2987 61.9098 59.2987 61.9098 59.1205C61.1076 53.0599 60.0381 47.445 61.9989 41.4736C63.514 37.0174 66.4552 33.0067 66.9899 28.1939C66.9008 28.0157 66.7225 27.9266 66.7225 28.1048Z" fill="#505050" fill-opacity="0.5"/>
<path d="M63.6031 50.4753C63.0684 54.3968 62.801 59.2096 64.0488 62.9528C64.1379 63.042 64.3161 63.042 64.3161 62.9528C64.4053 58.8531 63.7814 54.6642 63.6923 50.4753C63.6923 50.3862 63.6031 50.3862 63.6031 50.4753Z" fill="#505050" fill-opacity="0.5"/>
<path d="M67.3464 58.4074C66.6334 60.7247 65.9204 63.0419 65.5639 65.3592C65.5639 65.6266 65.8313 65.7157 65.9204 65.4483C66.7225 63.2202 67.079 60.7247 67.5247 58.4074C67.5247 58.3183 67.3464 58.3183 67.3464 58.4074Z" fill="#505050" fill-opacity="0.5"/>
<path d="M67.2573 62.8637C67.0791 63.5767 66.9008 64.3789 66.9008 65.0919C66.9008 65.181 66.9899 65.181 67.0791 65.0919C67.3464 64.3789 67.3464 63.5767 67.4356 62.8637C67.4356 62.7746 67.2573 62.7746 67.2573 62.8637Z" fill="#505050" fill-opacity="0.5"/>
<path d="M70.1985 15.2707C70.7332 21.7769 74.9221 27.5701 78.0415 33.0067C82.1413 40.1367 84.4585 47.1776 81.963 55.2881C81.963 55.3772 82.1413 55.4663 82.1413 55.3772C85.4389 49.8514 83.4781 42.8105 81.0718 37.2847C79.4675 33.7197 77.2394 30.3329 75.2786 26.9462C73.1396 23.2029 71.6245 19.2814 70.2876 15.1816C70.3767 15.0925 70.1985 15.0925 70.1985 15.2707Z" fill="#505050" fill-opacity="0.5"/>
<path d="M76.259 32.2937C77.2394 34.0762 78.4871 35.6805 79.4675 37.463C80.537 39.5129 81.0717 41.6519 81.8739 43.7909C81.963 43.88 82.1412 43.88 82.1412 43.7909C81.8739 39.7802 79.4675 34.7001 76.259 32.2937C76.3481 32.2046 76.259 32.2046 76.259 32.2937Z" fill="#505050" fill-opacity="0.5"/>
<path d="M78.1306 34.611C80.537 39.4238 81.7848 43.6126 82.3195 48.871C82.3195 48.9602 82.4978 48.9602 82.4978 48.871C83.1216 43.9692 81.4283 38.2651 78.3089 34.4327C78.2197 34.3436 78.0415 34.4327 78.1306 34.611Z" fill="#505050" fill-opacity="0.5"/>
<path d="M87.5779 37.2847C93.5493 46.9994 93.9949 62.3289 83.5673 69.1025C83.4781 69.1916 83.5673 69.2807 83.6564 69.2807C95.0644 63.5767 93.5493 46.2864 87.5779 37.2847Z" fill="#505050" fill-opacity="0.5"/>
<path d="M88.9148 43.0779C89.0039 48.6036 88.4692 54.0403 86.7758 59.2987C85.0824 64.3788 82.3195 69.7264 77.2393 72.0436C76.972 72.1327 77.1502 72.4893 77.4176 72.4001C81.963 71.7762 84.4585 66.1613 85.9736 62.4181C88.38 56.2684 89.6278 49.6731 88.9148 43.0779C89.0039 42.9887 88.9148 42.9887 88.9148 43.0779Z" fill="#505050" fill-opacity="0.5"/>
<path d="M43.6391 48.5145C43.2826 50.1188 43.9956 52.4361 44.7977 53.7729C44.8868 53.8621 44.976 53.7729 44.976 53.6838C44.7977 52.7926 44.5303 51.9904 44.263 51.0992C44.0847 50.2079 44.0847 49.3167 43.7282 48.5145C43.8173 48.4254 43.7282 48.4254 43.6391 48.5145Z" fill="#505050" fill-opacity="0.5"/>
<path d="M44.6194 49.1384C44.6194 51.01 45.0651 53.1491 46.0455 54.6642C46.1346 54.7533 46.2237 54.6642 46.2237 54.5751C45.7781 52.7034 45.1542 51.01 44.7977 49.0493C44.7977 49.0493 44.6194 49.0493 44.6194 49.1384Z" fill="#505050" fill-opacity="0.5"/>
<path d="M45.3324 50.4753C45.7781 51.9904 46.2237 53.5946 46.9367 54.9315C46.9367 55.0207 47.1149 54.9315 47.1149 54.8424C46.7584 53.3273 46.0454 51.8121 45.5107 50.3861C45.4216 50.297 45.3324 50.3861 45.3324 50.4753Z" fill="#505050" fill-opacity="0.5"/>
<path d="M44.976 52.9708C44.976 53.0599 44.976 53.0599 45.0651 53.149C45.1542 53.149 45.2433 53.149 45.2433 53.149H45.3325C45.8672 52.1686 45.1542 50.3861 45.1542 49.2275C45.2433 46.1972 46.7585 43.5235 48.7192 41.3845C48.7192 41.2953 48.7192 41.2953 48.6301 41.2953C47.0258 42.6322 45.9563 44.5039 45.2433 46.4646C44.8868 47.5341 44.7977 48.7819 44.7086 49.9405C44.7086 50.3861 44.7086 50.9209 44.7977 51.3665C44.976 51.6339 44.976 52.8817 44.976 52.9708C45.0651 52.9708 44.976 52.9708 44.976 52.9708Z" fill="#505050" fill-opacity="0.5"/>
<path d="M64.5835 17.6771C61.7315 20.6183 58.523 23.1138 54.958 24.9854C54.8689 24.9854 54.958 25.0745 55.0471 25.0745C58.7904 23.292 62.088 20.9748 64.5835 17.6771C64.6727 17.6771 64.6727 17.588 64.5835 17.6771Z" fill="#505050" fill-opacity="0.5"/>
<path d="M54.3341 24.9854C54.1559 25.0745 53.8885 25.1637 53.7103 25.3419C53.8885 25.1637 54.1559 25.0745 54.3341 24.9854Z" fill="#505050" fill-opacity="0.5"/>
<path d="M52.7298 25.6093C51.7495 25.9658 50.7691 26.4114 49.7887 26.8571C50.8582 26.4114 51.7495 26.0549 52.7298 25.6093Z" fill="#505050" fill-opacity="0.5"/>
<path d="M48.2736 27.4809C43.9064 29.9764 37.4894 32.1154 34.6374 36.4826C31.9636 40.4041 31.2506 45.2169 31.0724 49.8514C31.0724 50.1188 31.4289 50.1188 31.4289 49.8514C31.9636 44.9495 32.3201 40.0476 35.4395 35.9478C36.8655 34.1653 39.0045 33.0067 40.9653 31.8481C43.3717 30.4221 45.7781 28.9069 48.2736 27.4809C48.2736 27.4809 48.2736 27.3918 48.2736 27.4809Z" fill="#505050" fill-opacity="0.5"/>
<path d="M31.518 51.9904C31.6071 53.6838 32.3201 55.912 33.8353 56.8923C33.9244 56.9815 34.0135 56.8032 33.9244 56.7141C33.3896 56.0011 32.7658 55.3772 32.4093 54.4859C32.0528 53.6838 31.7854 52.7926 31.6071 51.9013C31.6071 51.9013 31.518 51.9013 31.518 51.9904Z" fill="#505050" fill-opacity="0.5"/>
<path d="M66.366 16.5185C64.94 17.6771 63.6923 19.014 62.3554 20.1726C60.8403 21.5095 59.0578 22.579 57.7209 24.005C57.6318 24.0942 57.7209 24.2724 57.8991 24.2724C59.5034 23.4703 60.9294 22.1334 62.2663 20.9748C63.7814 19.6379 65.2965 18.301 66.5443 16.6076C66.6334 16.6076 66.4552 16.5185 66.366 16.5185Z" fill="#505050" fill-opacity="0.5"/>
<path d="M65.2074 18.8358C64.3162 19.9944 63.3358 21.0639 62.2663 22.0443C61.1968 23.0247 60.0382 23.8268 58.9686 24.8072C58.8795 24.8963 58.9687 25.0746 59.0578 24.9854C61.7315 23.9159 63.8705 21.3313 65.2074 18.9249C65.3857 18.8358 65.2966 18.7467 65.2074 18.8358Z" fill="#505050" fill-opacity="0.5"/>
<path d="M65.653 19.727C64.94 20.7965 64.227 21.866 63.4249 22.9355C62.7119 23.8268 61.6424 24.6289 61.0185 25.6093C60.9294 25.7875 61.1076 25.8766 61.1968 25.7875C62.1772 25.2528 62.8902 24.2724 63.514 23.4703C64.4053 22.3116 65.1183 21.0639 65.7422 19.727C65.7422 19.727 65.653 19.6379 65.653 19.727Z" fill="#505050" fill-opacity="0.5"/>
<path d="M66.366 13.0426C66.0987 14.2904 65.7422 15.5381 65.2074 16.7859C64.7618 17.8554 63.9597 18.8358 63.514 19.9053C63.4249 19.9944 63.6032 20.1726 63.7814 20.0835C65.7422 18.5684 66.5443 15.3599 66.5443 13.0426C66.5443 13.0426 66.4552 12.9535 66.366 13.0426Z" fill="#505050" fill-opacity="0.5"/>
<path d="M66.9899 13.7556C66.8117 14.736 66.5443 15.7164 66.2769 16.6968C66.0095 17.6772 65.4748 18.5684 65.3857 19.6379C65.3857 19.8162 65.653 19.9053 65.7422 19.8162C66.9008 18.301 67.1682 15.7164 67.2573 13.8448C67.2573 13.6665 67.079 13.5774 66.9899 13.7556Z" fill="#505050" fill-opacity="0.5"/>
<path d="M66.6334 15.2708C66.1878 16.5185 65.653 18.0337 65.653 19.4597C65.653 19.6379 65.9204 19.727 65.9204 19.5488C66.5443 18.301 66.8117 16.6968 66.9899 15.3599C67.0791 15.0925 66.7226 15.0925 66.6334 15.2708Z" fill="#505050" fill-opacity="0.5"/>
<path d="M73.6743 18.5684C74.6547 20.5292 75.8134 22.4008 77.3285 23.9159C77.3285 24.0051 77.4176 23.9159 77.4176 23.8268C76.1699 22.0443 74.9221 20.3509 73.7635 18.4793C73.7635 18.4793 73.6743 18.5684 73.6743 18.5684Z" fill="#505050" fill-opacity="0.5"/>
<path d="M72.8722 16.6076C74.2091 18.9249 75.6351 21.5095 77.5959 23.3812C77.685 23.4703 77.7741 23.3812 77.685 23.2921C76.259 20.9748 74.2982 18.9249 72.8722 16.6076C72.7831 16.5185 72.8722 16.5185 72.8722 16.6076Z" fill="#505050" fill-opacity="0.5"/>
<path d="M73.9417 17.3206C75.1003 19.1031 76.259 21.2422 77.7741 22.7573C77.8632 22.8464 77.9524 22.7573 77.8632 22.6682C76.972 20.7074 75.2786 18.9249 74.0308 17.2315C74.0308 17.2315 73.9417 17.2315 73.9417 17.3206Z" fill="#505050" fill-opacity="0.5"/>
<path d="M74.4765 17.2315C75.546 18.7466 76.6155 20.5291 77.9524 21.7769C78.0415 21.866 78.1306 21.7769 78.0415 21.6878C77.1502 20.0835 75.8133 18.5684 74.5656 17.1424C74.4765 17.0532 74.3873 17.1424 74.4765 17.2315Z" fill="#505050" fill-opacity="0.5"/>
<path d="M75.1003 17.4989C76.1698 18.7466 77.2393 20.1726 78.4871 21.153C78.5762 21.2422 78.6654 21.0639 78.5762 21.0639C77.685 19.727 76.259 18.5684 75.1003 17.4098C75.1003 17.4098 75.0112 17.4989 75.1003 17.4989Z" fill="#505050" fill-opacity="0.5"/>
<path d="M70.4658 10.9036C71.7136 13.6665 72.9613 16.6076 74.5656 19.2814C74.6547 19.3705 74.7438 19.2814 74.7438 19.1923C73.6743 16.3403 72.1592 13.4882 70.7332 10.8145C70.5549 10.7253 70.3767 10.8145 70.4658 10.9036Z" fill="#505050" fill-opacity="0.5"/>
<path d="M71.1788 11.5275C72.1592 13.6665 73.1396 15.8946 74.3873 17.9445C74.4765 18.0337 74.6547 17.9445 74.5656 17.8554C73.6743 15.6273 72.5157 13.5774 71.3571 11.4384C71.268 11.3493 71.0897 11.4384 71.1788 11.5275Z" fill="#505050" fill-opacity="0.5"/>
<path d="M76.7937 20.2618C80.0914 23.2029 83.389 25.9658 86.5084 28.9961C89.8952 32.3828 93.9949 35.9479 95.8666 40.4041C97.2926 43.9691 97.1143 48.7819 97.0252 52.6143C96.9361 57.4271 95.3318 60.903 92.9254 64.9136C92.8363 65.0027 93.0146 65.181 93.1037 65.0919C99.0751 60.0117 97.9164 49.3167 96.8469 42.5431C96.1339 38.2651 92.9254 35.2348 90.0734 32.2937C85.9736 28.1048 81.5174 23.8268 76.8829 20.2618C76.8829 20.1727 76.7046 20.2618 76.7937 20.2618Z" fill="#505050" fill-opacity="0.5"/>
<path d="M65.5639 5.46693C65.4748 6.17993 65.2966 6.98206 65.2074 7.69507C65.3857 6.98206 65.4748 6.17993 65.5639 5.46693C65.5639 5.3778 65.5639 5.3778 65.5639 5.46693Z" fill="#505050" fill-opacity="0.5"/>
<path d="M64.94 2.88231C64.8509 3.68444 64.8509 4.48657 64.7618 5.2887C64.6726 6.17995 64.4944 7.07121 64.4944 8.05159C64.4944 8.31896 64.8509 8.40809 64.94 8.14071C65.5639 6.62558 65.5639 4.48657 65.2965 2.88231C65.2965 2.61494 64.94 2.70406 64.94 2.88231Z" fill="#505050" fill-opacity="0.5"/>
<path d="M65.4748 3.06056C65.1183 3.86269 65.1183 4.66482 65.0292 5.55607C64.9401 6.44732 64.6727 7.60595 65.1183 8.40808C65.2074 8.49721 65.3857 8.49721 65.3857 8.40808C66.0096 7.7842 65.9204 6.80382 65.9204 5.91257C66.0096 5.02132 66.0987 3.95181 65.8313 3.06056C65.8313 2.97143 65.5639 2.97143 65.4748 3.06056Z" fill="#505050" fill-opacity="0.5"/>
<path d="M65.9204 3.5062C65.9204 3.23882 66.0095 2.88232 66.0987 2.61495C65.9204 2.61495 65.7422 2.52582 65.653 2.52582C65.2965 4.57571 65.3857 6.89297 65.4748 8.94285C65.5639 8.85373 65.7422 8.67547 65.8313 8.58635C65.8313 8.49722 65.7422 8.49722 65.7422 8.4081C65.7422 8.22985 65.653 8.14072 65.4748 8.22985C65.0292 8.58635 65.2074 9.1211 65.7422 9.29935C66.0096 9.38848 66.1878 9.1211 66.2769 8.94285C66.3661 6.80384 66.4552 4.57571 66.0987 2.52582C66.0095 2.25844 65.5639 2.34757 65.653 2.61495C65.7422 2.88232 65.7422 3.23882 65.8313 3.5062C65.7422 3.59533 65.8313 3.59533 65.9204 3.5062Z" fill="#505050" fill-opacity="0.5"/>
<path d="M66.1878 4.13006C65.7422 6.09082 65.4748 8.22983 65.3857 10.1906C65.5639 10.1906 65.8313 10.1906 66.0987 10.1906C65.8313 7.96245 66.5443 5.73432 67.1682 3.59531C66.9899 3.50618 66.8117 3.50618 66.6334 3.41706C66.3661 4.93219 66.0095 6.44732 65.9204 7.96245C65.9204 8.31895 66.5443 8.40808 66.5443 8.05158C66.8117 6.62557 66.9899 5.02131 67.0791 3.50618C67.0791 3.23881 66.6334 3.14968 66.5443 3.41706C66.0095 5.55607 66.0095 7.96245 65.3857 10.1015C65.2965 10.5471 65.9204 10.7253 66.0095 10.2797C66.4552 8.31895 66.7226 6.17994 66.7226 4.13006C66.7226 3.86268 66.2769 3.77356 66.1878 4.13006Z" fill="#505050" fill-opacity="0.5"/>
<path d="M65.1183 7.3386C64.4944 10.9036 64.8509 16.0729 61.4642 18.301C58.8795 19.9944 56.0275 21.2422 53.6211 23.1138C53.532 23.2029 53.6211 23.3812 53.7994 23.2921C55.9384 22.4008 57.81 21.153 59.7708 19.9944C60.8403 19.3705 62.5337 18.7467 63.2467 17.7663C65.2074 15.0034 65.653 10.6362 65.2074 7.42773C65.2074 7.24948 65.1183 7.24948 65.1183 7.3386Z" fill="#505050" fill-opacity="0.5"/>
<path d="M26.0814 75.3413C25.9922 76.0543 26.0814 76.8564 26.1705 77.5694C26.2596 78.1933 26.2596 78.9063 26.527 79.5302C26.527 79.6193 26.7052 79.6193 26.7052 79.5302C26.8835 78.9063 26.7052 78.1933 26.7052 77.5694C26.6161 76.7673 26.527 76.0543 26.3487 75.3413C26.2596 75.2521 26.0814 75.2521 26.0814 75.3413Z" fill="#505050" fill-opacity="0.5"/>
<path d="M27.6856 75.6087C27.3291 76.7673 27.3291 78.4607 27.8639 79.5302C27.8639 79.6193 28.0421 79.6193 28.0421 79.5302C28.1313 78.9063 28.0421 78.3715 28.0421 77.7477C28.0421 77.0347 28.0421 76.3217 27.953 75.6978C27.953 75.5195 27.7747 75.5195 27.6856 75.6087Z" fill="#505050" fill-opacity="0.5"/>
<path d="M28.9334 75.6087C28.8442 76.1434 28.8442 76.589 28.8442 77.1238C28.8442 77.6585 28.7551 78.2824 28.9334 78.9063C28.9334 78.9954 29.1116 78.9954 29.2007 78.9063C29.379 78.4607 29.2899 77.9259 29.2899 77.3912C29.2899 76.7673 29.2899 76.2325 29.2007 75.6087C29.2007 75.5195 28.9334 75.5195 28.9334 75.6087Z" fill="#505050" fill-opacity="0.5"/>
<path d="M30.5376 74.7174C30.4485 75.3412 30.3594 75.876 30.4485 76.4999C30.4485 77.1237 30.5376 77.8368 30.8941 78.2824C30.9833 78.3715 31.1615 78.3715 31.1615 78.1933C31.2506 77.6585 30.9833 77.0346 30.9833 76.4107C30.8941 75.7869 30.8941 75.2521 30.8941 74.6282C30.805 74.6282 30.6268 74.5391 30.5376 74.7174Z" fill="#505050" fill-opacity="0.5"/>
<path d="M31.7854 74.7174C31.6963 75.3413 31.6963 75.9652 31.6963 76.5891C31.6963 77.1238 31.6071 77.7477 31.7854 78.2824C31.7854 78.3716 31.9636 78.3716 31.9636 78.2824C32.1419 77.8368 32.0528 77.3912 32.0528 76.8564C32.0528 76.1434 32.0528 75.4304 31.9636 74.7174C32.1419 74.5392 31.7854 74.5392 31.7854 74.7174Z" fill="#505050" fill-opacity="0.5"/>
<path d="M32.4984 74.3609C32.4093 74.9847 32.4093 75.5195 32.4984 76.1434C32.4984 76.4107 32.4984 77.0346 32.944 77.0346C33.657 77.0346 32.8549 74.6282 32.6766 74.2717C32.6766 74.2717 32.4984 74.2717 32.4984 74.3609Z" fill="#505050" fill-opacity="0.5"/>
<path d="M33.657 73.1131C33.7462 73.737 33.8353 74.3609 33.9244 74.9847C34.0135 75.6086 33.8353 76.3216 34.0135 76.9455C34.0135 77.1238 34.2809 77.1238 34.37 76.9455C34.9939 75.876 34.5483 74.0044 34.1027 72.9349C33.9244 72.8457 33.657 72.9349 33.657 73.1131Z" fill="#505050" fill-opacity="0.5"/>
<path d="M39.8958 68.3004C39.5393 68.8351 39.8067 69.6372 39.8958 70.2611C39.9849 70.9741 39.9849 71.9545 40.4306 72.6675C40.5197 72.8458 40.8762 72.8458 40.8762 72.5784C41.0544 71.8654 40.7871 71.1524 40.6979 70.5285C40.6088 69.8155 40.6088 68.8351 40.0741 68.3004C39.9849 68.2112 39.8958 68.2112 39.8958 68.3004Z" fill="#505050" fill-opacity="0.5"/>
<path d="M39.7176 68.3003C39.8067 68.9242 39.8067 69.5481 39.9849 70.172C40.1632 70.7959 40.2523 71.5089 40.6979 72.0436C40.7871 72.1327 41.0544 72.1327 41.1436 71.9545C41.2327 71.4197 40.9653 70.7959 40.8762 70.2611C40.6979 69.5481 40.4306 68.9242 40.0741 68.3003C39.8958 68.033 39.7176 68.1221 39.7176 68.3003Z" fill="#505050" fill-opacity="0.5"/>
<path d="M40.4305 68.3003C40.4305 68.9242 40.5197 69.5481 40.6088 70.172C40.6979 70.885 40.6979 71.6871 41.1435 72.2218C41.2327 72.4001 41.4109 72.311 41.5 72.1327C41.6783 71.598 41.5 71.0632 41.4109 70.5285C41.3218 69.7263 41.1435 68.9242 40.8762 68.2112C40.787 68.033 40.4305 68.033 40.4305 68.3003Z" fill="#505050" fill-opacity="0.5"/>
<path d="M39.3611 68.3003C39.4502 69.9046 39.4502 71.8653 39.9849 73.4696C40.0741 73.737 40.4306 73.6479 40.5197 73.3805C40.6088 71.7762 40.1632 69.8155 39.8958 68.2112C39.7176 68.033 39.3611 68.033 39.3611 68.3003Z" fill="#505050" fill-opacity="0.5"/>
<path d="M38.8263 69.2808C38.7372 70.172 38.8263 70.9742 38.8263 71.8654C38.8263 72.6675 38.7372 73.4697 39.0937 74.1827C39.1828 74.3609 39.361 74.2718 39.361 74.1827C39.6284 73.4697 39.4502 72.6676 39.361 71.9545C39.2719 71.0633 39.2719 70.172 39.0937 69.3699C39.1828 69.0134 38.8263 69.1025 38.8263 69.2808Z" fill="#505050" fill-opacity="0.5"/>
<path d="M38.2915 69.9047C38.1133 71.5089 37.935 73.8262 38.648 75.3413C38.7372 75.4304 38.9154 75.5196 38.9154 75.3413C39.0937 74.5392 38.9154 73.6479 38.9154 72.8458C38.8263 71.8654 38.8263 70.885 38.648 69.9047C38.5589 69.6373 38.2915 69.7264 38.2915 69.9047Z" fill="#505050" fill-opacity="0.5"/>
<path d="M37.4894 70.5285C37.4003 71.3306 37.4003 72.1328 37.4003 73.024C37.4003 73.737 37.4003 74.6283 37.935 75.163C38.0241 75.2522 38.1133 75.163 38.2024 75.0739C38.4698 74.45 38.1133 73.6479 38.1133 73.024C38.0241 72.2219 38.0241 71.4198 37.935 70.6176C37.935 70.3503 37.4894 70.2611 37.4894 70.5285Z" fill="#505050" fill-opacity="0.5"/>
<path d="M36.509 71.5089C36.4199 72.2219 36.4199 73.024 36.4199 73.737C36.4199 74.3609 36.3308 75.0739 36.5981 75.6978C36.6873 75.876 36.8655 75.876 36.9547 75.6978C37.1329 75.0739 37.0438 74.3609 36.9547 73.737C36.8655 72.9349 36.7764 72.2219 36.6873 71.5089C36.6873 71.4197 36.509 71.4197 36.509 71.5089Z" fill="#505050" fill-opacity="0.5"/>
<path d="M35.3504 71.5089C35.3504 72.9349 35.2613 74.6283 35.7069 75.9651C35.7069 76.0543 35.8851 76.1434 35.9743 75.9651C36.2416 74.5391 35.796 72.8458 35.6178 71.4197C35.6178 71.3306 35.3504 71.3306 35.3504 71.5089Z" fill="#505050" fill-opacity="0.5"/>
<path d="M34.7265 72.1328C34.7265 73.5588 34.8157 75.163 35.1722 76.589C35.1722 76.6782 35.3504 76.6782 35.3504 76.589C35.4395 75.163 35.2613 73.5588 34.9939 72.1328C34.9048 71.9545 34.7265 72.0436 34.7265 72.1328Z" fill="#505050" fill-opacity="0.5"/>
<path d="M4.95865 69.9938C5.04777 70.2612 5.04777 70.5285 5.1369 70.7959C5.22603 70.9742 5.22602 71.1524 5.40428 71.3307C5.4934 71.3307 5.58253 71.3307 5.58253 71.2415C5.67165 71.0633 5.58253 70.885 5.4934 70.7068C5.4934 70.4394 5.31515 70.172 5.22603 69.9047C5.1369 69.7264 4.95865 69.8155 4.95865 69.9938Z" fill="#505050" fill-opacity="0.5"/>
<path d="M6.38464 69.6372C6.38464 70.4394 6.38464 71.5089 6.83027 72.311C6.9194 72.4001 7.00852 72.4001 7.09765 72.311C7.2759 71.5089 6.9194 70.4394 6.65202 69.6372C6.56289 69.459 6.38464 69.459 6.38464 69.6372Z" fill="#505050" fill-opacity="0.5"/>
<path d="M7.81067 69.9047C7.81067 70.5285 7.89979 71.0633 7.98892 71.5981C8.07805 72.1328 8.07804 72.6676 8.34542 73.1132C8.43455 73.2023 8.52367 73.2023 8.6128 73.1132C8.70192 72.6676 8.6128 72.2219 8.52367 71.7763C8.43455 71.1524 8.2563 70.4394 8.07805 69.8155C8.07805 69.7264 7.81067 69.8155 7.81067 69.9047Z" fill="#505050" fill-opacity="0.5"/>
<path d="M9.50403 70.885C9.68228 71.8654 9.68228 72.9349 10.1279 73.8262C10.217 74.0044 10.4844 73.9153 10.4844 73.737C10.4844 72.7567 10.0388 71.7763 9.68228 70.885C9.68228 70.7068 9.50403 70.7959 9.50403 70.885Z" fill="#505050" fill-opacity="0.5"/>
<path d="M11.2866 71.8654C11.3757 72.4001 11.3757 73.024 11.4648 73.5587C11.5539 74.0935 11.5539 74.6283 11.7322 75.0739C11.7322 75.163 11.9104 75.163 11.9104 75.0739C12.0887 74.0935 11.7322 72.8457 11.5539 71.7762C11.6431 71.598 11.2866 71.6871 11.2866 71.8654Z" fill="#505050" fill-opacity="0.5"/>
<path d="M12.9799 73.4696C13.069 74.45 13.069 75.4304 13.4255 76.3216C13.4255 76.4108 13.6038 76.4108 13.6038 76.3216C13.6929 75.3413 13.3364 74.3609 13.2473 73.4696C13.1582 73.2914 12.9799 73.2914 12.9799 73.4696Z" fill="#505050" fill-opacity="0.5"/>
<path d="M15.0298 74.3609C15.1189 75.3413 15.0298 76.3217 15.3863 77.3021C15.3863 77.3912 15.5645 77.3912 15.5645 77.3021C15.6537 76.3217 15.4754 75.3413 15.2972 74.3609C15.2972 74.1827 15.0298 74.2718 15.0298 74.3609Z" fill="#505050" fill-opacity="0.5"/>
<path d="M16.9014 75.0739C16.9906 75.5195 17.0797 75.9651 17.1688 76.4999C17.1688 76.9455 17.1688 77.4803 17.1688 77.9259C17.1688 78.015 17.2579 78.015 17.3471 77.9259C17.7036 77.0346 17.5253 75.876 17.1688 74.9847C17.0797 74.8956 16.9014 74.8956 16.9014 75.0739Z" fill="#505050" fill-opacity="0.5"/>
<path d="M18.5057 75.3413C18.2383 76.1434 18.2383 77.2129 18.7731 78.015C18.8622 78.1041 18.9513 78.015 18.9513 77.9259C18.8622 77.5694 18.7731 77.302 18.6839 76.9455C18.5948 76.4999 18.5948 75.9651 18.6839 75.4304C18.6839 75.2521 18.5057 75.2521 18.5057 75.3413Z" fill="#505050" fill-opacity="0.5"/>
<path d="M19.6643 75.9652C19.7535 76.589 19.7535 77.2129 19.8426 77.8368C19.9317 78.3715 19.9317 78.9954 20.11 79.441C20.11 79.5302 20.2882 79.5302 20.2882 79.441C20.3773 78.8172 20.1991 78.1933 20.11 77.5694C20.0208 77.0347 19.9317 76.4999 19.9317 75.9652C19.8426 75.876 19.6643 75.876 19.6643 75.9652Z" fill="#505050" fill-opacity="0.5"/>
<path d="M21.4468 76.3217C21.6251 77.3912 21.4468 78.4607 21.536 79.5302C21.536 79.6193 21.7142 79.7084 21.7142 79.5302C22.0707 78.4607 21.8033 77.3021 21.6251 76.2326C21.6251 76.1434 21.4468 76.1434 21.4468 76.3217Z" fill="#505050" fill-opacity="0.5"/>
<path d="M23.4076 76.3216C23.4967 77.4803 23.4967 78.728 23.8532 79.8867C23.8532 79.9758 24.0315 79.9758 24.0315 79.8867C24.1206 78.728 23.8532 77.4803 23.675 76.3216C23.7641 76.0543 23.4076 76.1434 23.4076 76.3216Z" fill="#505050" fill-opacity="0.5"/>
<path d="M38.2915 52.7034C39.1828 53.5056 40.1632 54.3077 40.9653 55.2881C41.8566 56.2684 42.5696 57.4271 43.3717 58.4966C43.4608 58.5857 43.6391 58.4966 43.5499 58.4075C42.7478 56.0011 40.5197 53.7729 38.3807 52.5252C38.2915 52.436 38.1133 52.6143 38.2915 52.7034Z" fill="#505050" fill-opacity="0.5"/>
<path d="M37.4003 51.9904C39.2719 54.3968 41.1435 57.1597 43.3717 59.1205C43.4608 59.2096 43.5499 59.1205 43.5499 59.0313C41.9457 56.4467 39.6284 54.1294 37.5785 51.9013C37.4894 51.8122 37.3111 51.9013 37.4003 51.9904Z" fill="#505050" fill-opacity="0.5"/>
<path d="M36.8655 52.2578C37.3112 53.149 38.0242 53.9512 38.648 54.6642C39.3611 55.5554 40.0741 56.4467 40.9653 57.1597C41.0544 57.2488 41.2327 57.0706 41.1436 56.9814C40.6979 56.0902 39.8958 55.3772 39.2719 54.6642C38.4698 53.7729 37.7568 52.8817 36.8655 52.2578Z" fill="#505050" fill-opacity="0.5"/>
<path d="M35.083 51.2774C35.9743 51.9013 36.8655 52.5252 37.6677 53.2382C38.3807 53.9512 39.0937 54.6642 39.8067 55.3772C39.8958 55.4663 40.0741 55.3772 39.9849 55.1989C39.0937 53.3273 37.1329 51.723 35.2613 50.9209C34.9939 50.9209 34.8157 51.1883 35.083 51.2774Z" fill="#505050" fill-opacity="0.5"/>
<path d="M33.4788 50.8318C34.0135 51.6339 34.9939 52.0795 35.7069 52.7034C36.509 53.4164 37.1329 54.3077 38.0242 54.9316C38.1133 55.0207 38.2024 54.9316 38.2024 54.8424C37.8459 53.7729 36.9547 52.9708 36.1525 52.2578C35.4395 51.6339 34.5483 50.8318 33.4788 50.8318C33.4788 50.7427 33.4788 50.8318 33.4788 50.8318Z" fill="#505050" fill-opacity="0.5"/>
<path d="M34.7265 51.3665C35.6178 51.8122 36.3308 52.3469 37.0438 52.9708C37.6677 53.5947 38.2024 54.5751 38.9154 55.1098C39.0937 55.1989 39.2719 55.0207 39.1828 54.8424C38.9154 53.8621 38.1133 52.9708 37.4003 52.2578C36.6873 51.6339 35.796 51.01 34.8157 51.01C34.6374 51.01 34.5483 51.2774 34.7265 51.3665Z" fill="#505050" fill-opacity="0.5"/>
<path d="M32.4984 50.4753C32.4984 50.5644 32.4984 50.6535 32.4092 50.8318C32.4092 50.9209 32.4092 50.9209 32.4984 51.01C32.5875 51.1883 32.5875 51.1883 32.6766 51.2774C32.7657 51.3665 32.8549 51.2774 32.8549 51.1883C32.8549 51.0992 32.8549 51.01 32.8549 50.8318C32.8549 50.7427 32.8549 50.7427 32.7657 50.6535C32.7657 50.5644 32.5875 50.5644 32.4984 50.4753C32.4984 50.3862 32.4984 50.4753 32.4984 50.4753Z" fill="#505050" fill-opacity="0.5"/>
<path d="M40.8762 56.5358C42.9261 58.9422 44.4412 61.4377 45.8672 64.2006C45.8672 64.2897 46.0455 64.2006 46.0455 64.1115C45.1542 61.1703 43.1934 58.4966 41.0544 56.3576C40.8762 56.3576 40.7871 56.4467 40.8762 56.5358Z" fill="#505050" fill-opacity="0.5"/>
<path d="M42.3022 57.2488C43.3717 58.9422 44.4412 60.6356 45.689 62.2399C45.689 62.329 45.7781 62.2399 45.7781 62.1507C44.7977 60.4574 43.5499 58.8531 42.3022 57.2488C42.3913 57.1597 42.3022 57.2488 42.3022 57.2488Z" fill="#505050" fill-opacity="0.5"/>
<path d="M38.648 56.1793C39.8958 58.2292 40.6979 60.3682 41.5001 62.5964C41.5001 62.6855 41.6783 62.6855 41.6783 62.5964C41.2327 60.2791 39.9849 58.051 38.648 56.1793C38.648 56.0902 38.648 56.1793 38.648 56.1793Z" fill="#505050" fill-opacity="0.5"/>
<path d="M38.5589 55.0207C39.9849 57.6053 41.1436 60.2791 42.4804 62.9528C42.4804 63.042 42.6587 62.9528 42.5696 62.8637C41.8566 60.0117 40.3414 57.2488 38.648 54.9315C38.648 54.7533 38.4698 54.8424 38.5589 55.0207Z" fill="#505050" fill-opacity="0.5"/>
<path d="M40.074 55.9119C40.9653 58.3183 41.7674 60.9921 43.1934 63.2202C43.2826 63.3093 43.4608 63.2202 43.4608 63.1311C42.8369 60.6356 41.4109 58.2292 40.2523 55.9119C40.1632 55.8228 40.074 55.8228 40.074 55.9119Z" fill="#505050" fill-opacity="0.5"/>
<path d="M40.9653 56.625C41.8566 58.9422 42.7478 61.4378 44.0847 63.5768C44.1738 63.6659 44.2629 63.5768 44.2629 63.4876C43.5499 61.0813 42.3022 58.764 41.2327 56.5359C41.1436 56.3576 40.9653 56.4467 40.9653 56.625Z" fill="#505050" fill-opacity="0.5"/>
<path d="M43.0152 58.4966C43.9956 60.5465 44.6195 62.6855 45.3325 64.8245C45.3325 64.9136 45.5107 64.9136 45.5107 64.8245C45.3325 62.5964 44.3521 60.3682 43.2826 58.4075C43.1934 58.2292 43.0152 58.3183 43.0152 58.4966Z" fill="#505050" fill-opacity="0.5"/>
<path d="M41.7674 66.7852C43.1934 70.9741 45.5107 75.0739 49.1648 77.6585C49.254 77.7477 49.3431 77.5694 49.254 77.5694C46.2237 74.2718 43.6391 70.885 41.9457 66.6961C41.8565 66.607 41.7674 66.607 41.7674 66.7852Z" fill="#505050" fill-opacity="0.5"/>
<path d="M43.4608 69.2807C45.0651 72.4001 47.2932 75.7869 50.0561 78.015C50.1452 78.1042 50.3235 78.015 50.2343 77.9259C48.1845 74.9848 45.689 72.2219 43.6391 69.2807C43.6391 69.0134 43.4608 69.1025 43.4608 69.2807Z" fill="#505050" fill-opacity="0.5"/>
<path d="M45.6889 70.6176C47.3823 73.2914 49.4322 75.876 51.8386 77.9259C51.9277 78.015 52.0168 77.9259 51.9277 77.8368C49.8778 75.3413 47.7388 73.024 45.6889 70.6176C45.6889 70.5285 45.5998 70.5285 45.6889 70.6176Z" fill="#505050" fill-opacity="0.5"/>
<path d="M47.7388 70.7959C49.254 73.8261 51.6603 76.6781 54.8689 78.1041C54.958 78.1041 55.0471 78.015 54.958 77.9259C52.106 75.7869 49.6996 73.737 47.9171 70.7067C47.828 70.7067 47.6497 70.7067 47.7388 70.7959Z" fill="#505050" fill-opacity="0.5"/>
<path d="M50.7691 72.1328C51.393 72.9349 52.106 73.7371 52.9081 74.5392C53.6211 75.3413 54.3341 76.1435 55.1363 76.7673C55.2254 76.8565 55.3145 76.6782 55.2254 76.6782C54.6906 75.8761 53.9776 75.2522 53.3537 74.5392C52.5516 73.7371 51.7495 72.8458 50.7691 72.1328C50.8582 72.0437 50.7691 72.1328 50.7691 72.1328Z" fill="#505050" fill-opacity="0.5"/>
<path d="M53.3538 73.4696C54.245 74.45 55.1363 75.5195 56.2058 76.3216C56.2949 76.4108 56.384 76.3216 56.2949 76.2325C55.4928 75.163 54.4233 74.1826 53.4429 73.2914C53.3537 73.2914 53.2646 73.3805 53.3538 73.4696Z" fill="#505050" fill-opacity="0.5"/>
<path d="M54.7797 73.5588C55.4036 74.6283 56.2058 75.6087 57.097 76.4108C57.1861 76.4999 57.3644 76.4108 57.2753 76.3217C56.6514 75.2522 55.8493 74.2718 55.0471 73.3805C54.958 73.2023 54.6906 73.3805 54.7797 73.5588Z" fill="#505050" fill-opacity="0.5"/>
<path d="M56.8296 74.0935C57.2752 74.6283 57.6317 75.163 58.0774 75.6978C58.0774 75.6978 58.1665 75.6978 58.1665 75.6086C57.81 75.0739 57.3644 74.5391 56.9187 74.0044C56.8296 73.9153 56.7405 74.0044 56.8296 74.0935Z" fill="#505050" fill-opacity="0.5"/>
<path d="M48.3627 76.4999C50.7691 78.6389 53.9776 80.3323 57.1861 80.6888C57.2752 80.6888 57.3644 80.5106 57.1861 80.5106C53.9776 79.5302 51.1256 78.3716 48.3627 76.4999C48.3627 76.4108 48.2736 76.4999 48.3627 76.4999Z" fill="#505050" fill-opacity="0.5"/>
<path d="M52.0168 77.926C54.3341 79.2628 57.0079 80.4215 59.6816 80.5997C59.7708 80.5997 59.7708 80.5106 59.6816 80.4215C57.097 79.7085 54.6015 79.0846 52.0168 77.926C52.0168 77.8368 52.0168 77.926 52.0168 77.926Z" fill="#505050" fill-opacity="0.5"/>
<path d="M53.8885 78.4607C55.9384 79.1737 58.1665 79.7084 60.3946 79.2628C60.4838 79.2628 60.4838 79.0845 60.3946 79.0845C58.1665 78.9954 56.1166 78.9954 53.9776 78.2824C53.8885 78.1933 53.7994 78.3715 53.8885 78.4607Z" fill="#505050" fill-opacity="0.5"/>
<path d="M37.1329 56.0902C37.1329 56.0902 37.1329 56.1793 37.222 56.1793C37.222 56.1793 37.222 56.1793 37.3112 56.1793C37.5785 56.0902 37.6677 56.0011 37.5785 55.7337C37.5785 55.7337 37.5785 55.6446 37.4894 55.6446C36.509 55.2881 35.3504 56.7141 34.5483 57.2488C33.1223 58.3183 31.6963 59.2096 30.2703 60.1008C30.1811 60.19 30.2703 60.3682 30.3594 60.2791C30.9833 60.0117 37.3112 56.1793 37.1329 56.0902C37.222 56.0902 37.1329 56.0902 37.1329 56.0902Z" fill="#505050" fill-opacity="0.5"/>
<path d="M38.1133 55.3772C35.6178 56.9814 32.7658 58.5857 30.6268 60.7247C30.5376 60.8138 30.6268 60.9921 30.805 60.9029C33.4788 59.4769 35.796 57.2488 38.1133 55.3772C38.2024 55.3772 38.1133 55.288 38.1133 55.3772Z" fill="#505050" fill-opacity="0.5"/>
<path d="M37.5785 56.7141C35.9743 57.7836 34.1918 58.9422 32.7658 60.2791C32.6766 60.3682 32.7658 60.4573 32.8549 60.4573C34.6374 59.4769 36.2417 58.0509 37.5785 56.7141C37.6677 56.7141 37.6677 56.7141 37.5785 56.7141Z" fill="#505050" fill-opacity="0.5"/>
<path d="M38.3807 56.8923C36.509 58.3183 34.4592 59.5661 32.6766 61.0812C32.4984 61.2594 32.7658 61.5268 32.944 61.3486C34.9939 60.2791 36.8655 58.5857 38.4698 56.9814C38.5589 56.9814 38.4698 56.8032 38.3807 56.8923Z" fill="#505050" fill-opacity="0.5"/>
<path d="M37.935 58.9422C36.8655 59.7443 35.796 60.3682 34.9048 61.3486C34.8157 61.4377 34.9048 61.5268 34.9939 61.4377C36.1525 60.8138 37.0438 59.9226 38.1133 59.0313C38.1133 59.0313 38.0242 58.8531 37.935 58.9422Z" fill="#505050" fill-opacity="0.5"/>
<path d="M38.2024 59.5661C37.0438 60.5465 35.6178 61.5269 34.7265 62.7746C34.6374 62.8637 34.7265 63.042 34.9048 62.9529C36.2417 62.0616 37.3112 60.8139 38.4698 59.7443C38.4698 59.6552 38.2915 59.477 38.2024 59.5661Z" fill="#505050" fill-opacity="0.5"/>
<path d="M38.9154 60.903C37.6677 61.7051 36.4199 62.4181 35.3504 63.3985C35.2613 63.4876 35.3504 63.5767 35.4395 63.5767C36.6873 62.8637 37.8459 61.9725 39.0046 61.0812C39.1828 60.9921 39.0046 60.903 38.9154 60.903Z" fill="#505050" fill-opacity="0.5"/>
<path d="M25.6357 63.3093C21.8033 65.2701 17.4362 65.5375 13.6038 67.5873C13.5147 67.5873 13.6038 67.7656 13.6929 67.6765C17.6144 66.0722 21.8924 65.4483 25.6357 63.3093Z" fill="#505050" fill-opacity="0.5"/>
<path d="M31.6071 60.0117C27.4182 61.616 23.2293 63.4876 19.3969 65.6266C19.3078 65.7157 19.3969 65.8049 19.4861 65.8049C23.675 64.2897 27.8638 62.4181 31.7854 60.2791C31.8745 60.19 31.7854 59.9226 31.6071 60.0117Z" fill="#505050" fill-opacity="0.5"/>
<path d="M31.518 60.8138C27.5073 62.5072 23.1402 64.2897 19.3969 66.607C19.3078 66.6961 19.3969 66.8744 19.4861 66.7852C23.675 65.3592 27.7747 63.042 31.6071 60.903C31.6962 60.903 31.6071 60.8138 31.518 60.8138Z" fill="#505050" fill-opacity="0.5"/>
<path d="M30.9833 62.1508C27.6856 63.3094 24.0315 64.8245 21.3577 66.9635C21.2686 67.0526 21.3577 67.2309 21.536 67.1418C24.7445 65.8049 27.8639 63.8441 31.0724 62.329C31.1615 62.329 31.0724 62.1508 30.9833 62.1508Z" fill="#505050" fill-opacity="0.5"/>
<path d="M31.9636 62.8637C28.7551 63.755 25.1901 65.5375 22.6946 67.6765C22.6055 67.7656 22.6946 67.8547 22.7837 67.8547C24.388 67.1417 25.814 66.1614 27.4182 65.3592C28.8443 64.468 30.4485 63.755 31.9636 62.8637Z" fill="#505050" fill-opacity="0.5"/>
<path d="M32.5875 63.4876C29.9138 64.8245 27.0618 66.1614 24.5662 67.9439C24.4771 68.033 24.5662 68.1221 24.6554 68.1221C27.4183 66.8744 30.092 65.181 32.5875 63.4876C32.6767 63.5767 32.5875 63.4876 32.5875 63.4876Z" fill="#505050" fill-opacity="0.5"/>
<path d="M32.5875 65.0027C30.6268 65.7157 28.7551 66.6961 27.1509 67.8548C27.0617 67.8548 27.1509 67.9439 27.24 67.9439C29.0225 66.8744 30.805 65.894 32.6766 65.0919L32.5875 65.0027Z" fill="#505050" fill-opacity="0.5"/>
<path d="M33.8353 65.4484C31.7854 66.5179 29.4681 67.6765 27.6856 69.1025C27.5965 69.1916 27.6856 69.1916 27.7748 69.1916C29.9138 68.3004 31.9636 66.8744 33.8353 65.4484C33.9244 65.4484 33.9244 65.4484 33.8353 65.4484Z" fill="#505050" fill-opacity="0.5"/>
<path d="M35.083 66.607C33.3896 67.2309 31.7854 68.2112 30.5376 69.5481C30.4485 69.6373 30.5376 69.7264 30.6267 69.7264C32.0528 68.6569 33.4788 67.6765 35.083 66.8744C35.2613 66.7852 35.2613 66.607 35.083 66.607Z" fill="#505050" fill-opacity="0.5"/>
<path d="M35.4395 68.033C34.9939 68.3895 34.6374 68.6568 34.1918 69.0133C34.7265 68.746 35.083 68.3895 35.4395 68.033C35.5287 68.033 35.5287 68.033 35.4395 68.033Z" fill="#505050" fill-opacity="0.5"/>
<path d="M38.9154 67.5873C35.9743 69.459 32.7658 71.1524 29.9137 73.2022C29.8246 73.2914 29.9137 73.3805 30.0029 73.3805C33.1223 71.9545 36.1525 69.7264 39.0045 67.6765C39.0937 67.6765 39.0045 67.5873 38.9154 67.5873Z" fill="#505050" fill-opacity="0.5"/>
<path d="M37.6677 68.9243C34.8157 70.885 31.6963 72.311 28.666 73.8262C28.5769 73.9153 28.666 74.0044 28.7551 74.0044C32.0528 73.024 35.083 71.2415 37.8459 69.1025C37.935 69.0134 37.8459 68.8351 37.6677 68.9243Z" fill="#505050" fill-opacity="0.5"/>
<path d="M64.1379 66.1614C65.7422 67.7657 66.3661 69.7264 66.9899 71.8654C66.9899 71.9546 67.1682 71.9546 67.1682 71.8654C67.5247 69.5482 66.0987 67.32 64.3162 65.9832C64.1379 65.894 64.0488 66.0723 64.1379 66.1614Z" fill="#505050" fill-opacity="0.5"/>
<path d="M64.4944 71.2415C65.4748 73.024 65.2965 74.7174 64.94 76.589C64.94 76.7673 65.1183 76.8564 65.2074 76.6782C66.2769 74.9848 65.5639 72.6675 64.5835 71.1524C64.5835 71.0633 64.4944 71.1524 64.4944 71.2415Z" fill="#505050" fill-opacity="0.5"/>
<path d="M65.3857 72.2219C65.5639 72.8457 65.7422 73.4696 65.8313 74.0935C66.0096 74.9848 65.9204 75.7869 66.0096 76.6781C66.0096 76.7673 66.1878 76.8564 66.2769 76.6781C66.6334 75.2521 66.1878 73.4696 65.5639 72.1327C65.4748 72.0436 65.2966 72.1327 65.3857 72.2219Z" fill="#505050" fill-opacity="0.5"/>
<path d="M66.0987 71.8654C66.2769 73.2914 66.1878 74.6283 66.1878 76.0543C66.3661 76.0543 66.4552 76.0543 66.6335 75.9652C66.5443 75.6087 66.5443 75.163 66.5443 74.7174C66.5443 74.6283 66.4552 74.6283 66.4552 74.7174C66.3661 75.0739 66.3661 75.5195 66.2769 75.9652C66.1878 76.2325 66.6335 76.3217 66.7226 76.0543C66.99 74.6283 66.8117 73.2023 66.3661 71.7763C66.2769 71.6871 66.0987 71.6871 66.0987 71.8654Z" fill="#505050" fill-opacity="0.5"/>
<path d="M66.6334 70.6176C66.9008 71.9545 66.7225 73.3805 66.9899 74.8065C66.9899 74.8956 67.1682 74.8956 67.1682 74.8065C67.5247 73.4696 67.079 71.9545 66.8117 70.6176C66.7225 70.4394 66.6334 70.5285 66.6334 70.6176Z" fill="#505050" fill-opacity="0.5"/>
<path d="M62.801 65.6266C65.0292 68.033 65.8313 70.885 66.1878 74.0935C66.1878 74.1826 66.2769 74.1826 66.2769 74.0935C66.7226 70.7959 65.2074 67.7656 62.8902 65.5375C62.801 65.4483 62.7119 65.5375 62.801 65.6266Z" fill="#505050" fill-opacity="0.5"/>
<path d="M61.4642 65.0919C62.4445 67.0526 63.5141 69.1916 64.9401 70.885C65.0292 70.9741 65.1183 70.885 65.1183 70.7959C64.2271 68.746 62.8902 66.8744 61.6424 65.0027C61.4642 65.0027 61.375 65.0027 61.4642 65.0919Z" fill="#505050" fill-opacity="0.5"/>
<path d="M56.2057 61.7051C58.7012 62.329 60.4838 63.5767 62.1771 65.5375C62.2663 65.6266 62.3554 65.5375 62.3554 65.4484C61.1968 63.3094 58.6121 61.7942 56.2057 61.616C56.1166 61.616 56.1166 61.7051 56.2057 61.7051Z" fill="#505050" fill-opacity="0.5"/>
<path d="M30.4485 38.3542C30.4485 36.8391 29.379 39.4237 29.2899 39.602C29.0225 40.2259 28.8443 40.8497 28.666 41.4736C28.1313 43.0779 27.7748 44.9495 27.953 46.6429C27.953 46.8211 28.2204 46.8211 28.2204 46.6429C28.3095 46.2864 28.3986 46.019 28.3986 45.6625C28.3986 45.6625 28.3986 45.5734 28.3986 45.6625C28.2204 45.7516 28.1313 45.9299 28.1313 46.1081C28.3095 46.1973 28.3986 46.1081 28.3986 46.019C28.4878 44.9495 28.666 43.88 28.8443 42.8996C29.2008 41.028 30.092 39.2455 30.805 37.463C30.8942 37.1956 30.5377 37.1065 30.4485 37.3738C30.2703 37.9086 30.3594 37.6412 30.4485 38.3542C30.3594 38.3542 30.4485 38.3542 30.4485 38.3542Z" fill="#505050" fill-opacity="0.5"/>
<path d="M30.805 38.5325C29.4681 40.5824 28.7551 43.5235 28.8442 46.019C28.8442 46.1082 28.9334 46.1082 28.9334 46.019C29.2008 44.8604 29.379 43.7018 29.6464 42.5431C30.0029 41.1171 30.5376 39.8694 30.805 38.5325C30.8941 38.5325 30.805 38.5325 30.805 38.5325Z" fill="#505050" fill-opacity="0.5"/>
<path d="M31.0724 38.889C30.2703 40.9389 29.4681 43.0779 29.0225 45.2169C28.9334 45.4843 29.379 45.5734 29.4681 45.306C30.2702 43.2561 30.805 41.028 31.2506 38.889C31.3398 38.7999 31.1615 38.7999 31.0724 38.889Z" fill="#505050" fill-opacity="0.5"/>
<path d="M31.4289 40.1367C31.0724 41.028 30.805 41.9193 30.5376 42.8105C30.2702 43.7018 29.8246 44.6821 29.8246 45.5734C29.8246 45.7516 30.0029 45.7516 30.092 45.6625C30.5376 44.9495 30.7159 44.1474 30.9832 43.3453C31.3397 42.2758 31.6071 41.2954 31.8745 40.2259C31.8745 40.0476 31.518 39.9585 31.4289 40.1367Z" fill="#505050" fill-opacity="0.5"/>
<path d="M32.4093 40.1367C31.7854 41.2953 31.0724 43.4344 31.4289 44.7712C31.4289 44.8604 31.6071 44.9495 31.6963 44.7712C31.9636 44.1474 31.9636 43.5235 32.0528 42.8105C32.231 41.9192 32.4984 41.1171 32.7658 40.315C32.8549 40.0476 32.5875 39.9585 32.4093 40.1367Z" fill="#505050" fill-opacity="0.5"/>
<path d="M34.8157 36.3935C33.5679 37.9977 32.3202 40.4932 32.3202 42.5431C32.3202 42.6323 32.4984 42.7214 32.5875 42.6323C33.0332 41.741 33.3005 40.6715 33.657 39.6911C34.1027 38.6216 34.6374 37.5521 35.0831 36.4826C35.0831 36.3043 34.8157 36.3043 34.8157 36.3935Z" fill="#505050" fill-opacity="0.5"/>
<path d="M34.1027 36.5717C33.3005 38.6216 32.4093 40.5824 31.6963 42.7214C31.8745 42.7214 32.0528 42.8105 32.231 42.8105C32.4093 40.8497 33.1223 39.2455 34.2809 37.7304C34.2809 37.6412 34.2809 37.6412 34.1918 37.6412C32.944 39.0672 32.231 40.8497 31.6963 42.7214C31.6072 43.0779 32.0528 43.167 32.231 42.8996C33.0332 40.8497 33.657 38.7999 34.2809 36.6609C34.2809 36.4826 34.1027 36.4826 34.1027 36.5717Z" fill="#505050" fill-opacity="0.5"/>
<path d="M47.5606 27.9266C45.4216 28.4613 43.4608 29.5308 41.5001 30.5112C39.2719 31.5807 36.8655 32.6502 34.9939 34.3436C34.8157 34.5219 34.9939 34.8784 35.2613 34.7892C37.3112 34.0762 39.1828 32.7393 41.1436 31.6698C43.2826 30.5112 45.689 29.5308 47.7388 28.2831C47.828 28.1048 47.7388 27.8375 47.5606 27.9266Z" fill="#505050" fill-opacity="0.5"/>
<path d="M53.2646 24.9854C50.5017 25.2528 47.9171 26.857 45.7781 28.6396C45.9563 28.7287 46.1346 28.8178 46.3128 28.9069C46.4911 28.6396 46.6693 28.3722 46.8476 28.0157C46.9367 28.0157 46.9367 27.8374 46.8476 27.8374C46.1346 27.8374 45.7781 28.1048 45.5998 28.8178C45.5107 29.1743 45.8672 29.3526 46.1346 29.1743C48.3627 27.4809 50.68 26.4114 53.1755 25.1637C53.3537 25.0745 53.3537 24.9854 53.2646 24.9854Z" fill="#505050" fill-opacity="0.5"/>
<path d="M51.0365 25.3419C48.0953 26.6788 44.7086 27.9266 42.1239 29.9765C41.9457 30.0656 42.1239 30.333 42.3022 30.2438C45.3325 29.0852 48.1845 26.9462 51.0365 25.3419C51.1256 25.4311 51.1256 25.3419 51.0365 25.3419Z" fill="#505050" fill-opacity="0.5"/>
<path d="M47.2041 26.7679C46.5802 27.0353 40.3414 30.1547 40.5197 30.4221C40.5197 30.5112 40.6979 30.4221 40.6979 30.333V30.2438C40.6979 30.1547 40.6088 30.1547 40.6088 30.1547C40.5197 30.1547 40.5197 30.1547 40.4306 30.1547C40.3414 30.1547 40.3414 30.1547 40.3414 30.2438C40.3414 30.2438 40.3414 30.333 40.2523 30.333C40.1632 30.4221 40.2523 30.5112 40.3414 30.6003C41.0544 31.1351 42.3022 29.9765 42.9261 29.62C44.4412 28.7287 45.8672 27.8374 47.3823 26.9462C47.3823 26.8571 47.2932 26.6788 47.2041 26.7679Z" fill="#505050" fill-opacity="0.5"/>
<path d="M46.5802 26.4114C43.9064 27.7483 40.9653 29.0852 38.5589 30.9568C38.3807 31.0459 38.5589 31.3133 38.7372 31.3133C41.5 30.1547 44.1738 28.283 46.5802 26.5897C46.7584 26.5005 46.6693 26.4114 46.5802 26.4114Z" fill="#505050" fill-opacity="0.5"/>
<path d="M43.9956 27.6592C41.6783 29.0852 39.361 30.4221 37.222 32.1155C37.1329 32.2046 37.222 32.3829 37.3112 32.2937C39.6284 31.046 41.8566 29.5308 44.0847 28.0157C44.4412 27.8375 44.2629 27.5701 43.9956 27.6592Z" fill="#505050" fill-opacity="0.5"/>
<path d="M53.7993 34.3436C51.5712 36.5717 49.3431 39.5128 48.0062 42.2757C48.0062 42.3648 48.0953 42.3648 48.0953 42.3648C49.1648 41.2062 49.967 39.8693 50.9473 38.6216C52.0168 37.1956 53.0863 35.8587 54.0667 34.4327C54.0667 34.3436 53.8885 34.2544 53.7993 34.3436Z" fill="#505050" fill-opacity="0.5"/>
<path d="M53.2646 33.8088C50.68 36.037 47.4715 38.7999 46.7585 42.3649C46.7585 42.454 46.9367 42.5431 46.9367 42.454C48.541 39.0672 50.7691 36.5717 53.2646 33.8088C53.4429 33.898 53.3537 33.8088 53.2646 33.8088Z" fill="#505050" fill-opacity="0.5"/>
<path d="M51.9277 33.9871C49.4322 35.4131 47.2932 37.8195 46.1346 40.4932C46.1346 40.5823 46.2237 40.5823 46.2237 40.4932C47.828 37.9977 49.6105 35.8587 51.9277 33.9871C52.0169 34.0762 52.0169 33.9871 51.9277 33.9871Z" fill="#505050" fill-opacity="0.5"/>
<path d="M50.7691 34.0762C49.0757 35.2349 47.3823 36.8391 46.3128 38.6216C46.2237 38.7108 46.402 38.7999 46.402 38.7108C47.828 37.1956 49.254 35.5914 50.7691 34.1654C50.9473 34.1654 50.8582 34.0762 50.7691 34.0762Z" fill="#505050" fill-opacity="0.5"/>
<path d="M49.4322 33.8088C48.541 34.7892 47.7388 35.6805 46.9367 36.75C46.9367 36.75 46.9367 36.8391 47.0258 36.8391C47.9171 35.9478 48.7192 34.9675 49.6105 33.9871C49.6105 33.8088 49.5213 33.7197 49.4322 33.8088Z" fill="#505050" fill-opacity="0.5"/>
<path d="M46.6693 40.9389C45.0651 43.4344 43.9064 46.2864 43.7282 49.2275C43.7282 49.2275 43.8173 49.3167 43.8173 49.2275C44.3521 46.2864 45.2433 43.6126 46.8476 41.028C46.8476 40.9389 46.7584 40.8497 46.6693 40.9389Z" fill="#505050" fill-opacity="0.5"/>
<path d="M46.2237 38.6216C45.2433 40.6715 44.2629 42.6322 43.4608 44.7712C43.4608 44.7712 43.5499 44.8604 43.5499 44.7712C44.5303 42.7214 45.4216 40.6715 46.2237 38.6216C46.3128 38.5325 46.2237 38.5325 46.2237 38.6216Z" fill="#505050" fill-opacity="0.5"/>
<path d="M46.402 37.1956C45.4216 38.889 44.5303 40.6715 43.8173 42.454C43.8173 42.5431 43.9064 42.5431 43.9064 42.5431C44.8868 40.9388 45.7781 39.0672 46.5802 37.2847C46.5802 37.1956 46.4911 37.1065 46.402 37.1956Z" fill="#505050" fill-opacity="0.5"/>
<path d="M44.7086 38.6216C44.2629 39.6911 43.9064 40.9389 43.6391 42.0975C43.6391 42.1866 43.7282 42.1866 43.7282 42.0975C44.1738 41.028 44.5303 39.7802 44.7977 38.6216C44.8868 38.6216 44.7086 38.5325 44.7086 38.6216Z" fill="#505050" fill-opacity="0.5"/>
<path d="M61.1968 25.7876C57.8991 28.3722 54.4232 31.6698 51.9277 35.0566C51.7495 35.2349 52.106 35.4131 52.1951 35.324C53.7102 33.9871 55.0471 32.3828 56.5623 30.8677C58.1665 29.1743 59.8599 27.6592 61.375 25.9658C61.4642 25.7876 61.2859 25.6984 61.1968 25.7876Z" fill="#505050" fill-opacity="0.5"/>
<path d="M61.7315 26.9462C58.7904 29.4417 55.4036 31.759 52.9081 34.7001C52.819 34.7892 52.9081 34.8784 52.9972 34.7892C56.2057 32.6502 58.9686 29.62 61.7315 26.9462C61.8206 26.9462 61.7315 26.8571 61.7315 26.9462Z" fill="#505050" fill-opacity="0.5"/>
<path d="M60.3055 27.3918C57.81 29.62 55.2254 31.9372 52.9972 34.4327C52.9081 34.5219 52.9972 34.611 53.1755 34.611C55.7601 32.472 58.1665 29.9765 60.3055 27.3918C60.4838 27.4809 60.3947 27.3918 60.3055 27.3918Z" fill="#505050" fill-opacity="0.5"/>
<path d="M60.3055 25.7876C57.097 28.3722 54.1559 31.4916 51.5712 34.611C51.5712 34.611 51.5712 34.7001 51.5712 34.611C54.4232 31.6698 57.4535 28.8178 60.3055 25.7876Z" fill="#505050" fill-opacity="0.5"/>
<path d="M58.0774 27.3918C55.4036 29.0852 52.5516 31.3133 51.0365 34.0762C51.0365 34.1653 51.1256 34.2545 51.1256 34.1653C52.1951 33.0067 53.0864 31.759 54.1559 30.6895C55.4036 29.5308 56.7405 28.4613 58.0774 27.3918C58.1665 27.4809 58.1665 27.3918 58.0774 27.3918Z" fill="#505050" fill-opacity="0.5"/>
<path d="M57.1861 26.5005C55.1362 28.2831 52.9081 30.1547 51.2147 32.2937C51.2147 32.3828 51.2147 32.472 51.3038 32.3828C53.4429 30.7786 55.4036 28.5504 57.1861 26.5005C57.2752 26.5005 57.1861 26.5005 57.1861 26.5005Z" fill="#505050" fill-opacity="0.5"/>
<path d="M61.9098 22.8464C60.662 23.7376 59.5034 24.6289 58.3448 25.6984C58.2557 25.7875 58.3448 25.9658 58.4339 25.8766C59.6817 24.9854 60.8403 24.005 61.9098 22.9355C61.9989 22.9355 61.9098 22.8464 61.9098 22.8464Z" fill="#505050" fill-opacity="0.5"/>
<path d="M81.963 37.7304C83.2108 40.6715 83.7455 43.4344 84.1911 46.5538C84.1911 46.732 84.4585 46.732 84.4585 46.5538C84.5477 43.4344 83.5673 40.315 82.1413 37.6412C82.0521 37.5521 81.8739 37.6412 81.963 37.7304Z" fill="#505050" fill-opacity="0.5"/>
<path d="M82.676 37.0173C83.2108 38.2651 83.6564 39.602 84.0129 40.9389C84.2803 42.0084 84.9933 44.0582 84.7259 45.0386C84.7259 44.9495 84.6368 44.9495 84.6368 44.9495C84.4585 45.306 84.4585 45.5734 84.9042 45.7516C84.9933 45.8408 85.1715 45.7516 85.1715 45.5734C85.0824 42.6322 84.1912 39.6911 82.676 37.0173C82.7652 37.0173 82.676 37.0173 82.676 37.0173Z" fill="#505050" fill-opacity="0.5"/>
<path d="M84.1911 38.3542C84.4585 39.1564 84.815 39.9585 85.0824 40.8497C85.3498 41.8301 85.3498 42.8105 85.528 43.7909C85.528 43.88 85.7063 43.88 85.7954 43.7909C86.241 42.0084 85.4389 39.7802 84.3694 38.3542C84.2803 38.2651 84.102 38.2651 84.1911 38.3542Z" fill="#505050" fill-opacity="0.5"/>
<path d="M79.4675 33.8979C80.2696 34.7001 80.8935 35.6805 81.5174 36.6608C82.0521 37.7303 82.3195 38.7998 82.676 39.8693C82.676 39.9585 82.8543 39.9585 82.8543 39.8693C82.7651 37.5521 81.25 35.324 79.6458 33.7197C79.5566 33.7197 79.3784 33.8088 79.4675 33.8979Z" fill="#505050" fill-opacity="0.5"/>
<path d="M80.4479 33.5414C82.2304 35.0566 83.2108 36.75 83.9238 38.9781C83.9238 39.0672 84.102 39.0672 84.102 38.9781C83.9238 36.75 82.4977 34.6109 80.6261 33.3632C80.4479 33.2741 80.3587 33.4523 80.4479 33.5414Z" fill="#505050" fill-opacity="0.5"/>
<path d="M77.3285 29.9765C78.7545 31.759 79.824 33.6306 80.9826 35.5022C81.0718 35.5914 81.1609 35.5022 81.1609 35.4131C80.2696 33.3632 78.9327 31.4916 77.5067 29.7982C77.4176 29.7982 77.3285 29.8873 77.3285 29.9765Z" fill="#505050" fill-opacity="0.5"/>
</svg>
