<svg width="166" height="88" viewBox="0 0 166 88" fill="none" xmlns="http://www.w3.org/2000/svg">
<path d="M158.888 61.3872C149.938 59.5466 140.746 60.7914 131.74 61.1338C127.237 61.305 122.63 61.2197 118.193 60.3071C113.665 59.4542 109.805 57.6413 105.872 55.4214C105.662 55.2998 105.434 55.6449 105.644 55.7665C111.759 61.1002 121.225 61.9498 128.995 61.9018C138.964 61.8357 148.912 59.9626 158.857 61.5376C159.007 61.5686 159.038 61.4182 158.888 61.3872Z" fill="#C99846" fill-opacity="0.5"/>
<path d="M105.828 55.2555C109.537 57.0375 114.127 57.5895 118.144 58.2589C122.477 58.915 126.856 59.3454 131.313 59.3998C135.77 59.4542 140.288 59.2078 144.745 59.2622C149.668 59.3343 154.212 60.1119 158.963 61.4027C159.113 61.4336 159.235 61.2235 159.1 61.1173C151.546 57.4472 142.053 58.6302 133.951 58.7667C129.163 58.8008 124.345 58.5939 119.621 57.9357C117.409 57.6375 115.138 57.2487 112.957 56.8002C110.625 56.3207 108.296 55.4497 105.918 55.1958C105.783 55.0896 105.752 55.2401 105.828 55.2555Z" fill="#C99846" fill-opacity="0.5"/>
<path d="M139.178 58.5091C136.893 57.804 134.606 57.4904 132.352 56.6349C130.098 55.7794 127.996 54.5633 126.076 53.2278C122.731 50.8154 119.63 47.9827 116.498 45.3004C113.23 42.5119 109.963 39.7235 106.711 36.8599C103.519 34.0869 100.344 30.8473 96.7275 28.6141C96.5925 28.5079 96.4709 28.7181 96.6059 28.8242C99.7783 32.4554 104.023 35.4449 107.696 38.5517C111.248 41.4772 114.785 44.4779 118.248 47.4632C121.38 50.1454 124.406 52.9627 127.979 55.03C131.115 56.9293 135.427 58.835 139.222 58.675C139.237 58.5998 139.253 58.5246 139.178 58.5091Z" fill="#C99846" fill-opacity="0.5"/>
<path d="M96.4842 29.0344C105.635 32.5626 112.405 39.2851 119.552 45.6935C126.295 51.7834 133.641 57.6056 142.955 58.8158C143.407 58.9086 143.561 58.1566 143.11 58.0638C123.579 55.4577 114.478 34.5382 96.5461 28.7336C96.3957 28.7026 96.3338 29.0034 96.4842 29.0344Z" fill="#C99846" fill-opacity="0.5"/>
<path d="M151.325 59.2831C144.841 55.3629 138.342 51.5178 131.965 47.4627C126.623 44.0907 122.139 40.7385 118.977 35.15C118.917 35.0593 118.752 35.1036 118.721 35.254C120.197 40.6527 125.643 44.2811 130.085 47.076C136.958 51.3898 144.012 55.5842 151.203 59.4932C151.338 59.5994 151.46 59.3892 151.325 59.2831Z" fill="#C99846" fill-opacity="0.5"/>
<path d="M119.229 35.8289C129.456 43.6544 141.047 49.8009 150.197 59.051C150.527 59.354 151.026 58.8297 150.697 58.5267C146.354 54.1062 141.375 50.4953 136.289 47.0194C130.723 43.2096 125.204 39.1742 119.442 35.559C119.216 35.5126 119.095 35.7228 119.229 35.8289Z" fill="#C99846" fill-opacity="0.5"/>
<path d="M133.98 59.0078C126.535 57.4765 119.426 55.0737 112.319 52.2794C105.497 49.6222 99.2017 47.0732 93.658 42.0138C93.4633 41.8169 93.2355 42.162 93.3705 42.2682C98.4609 47.6263 105.329 50.058 112.091 52.6245C119.213 55.3436 126.367 57.9123 133.858 59.218C134.069 59.3396 134.13 59.0388 133.98 59.0078Z" fill="#C99846" fill-opacity="0.5"/>
<path d="M93.4499 41.5007C99.9489 45.3457 106.934 48.3502 113.845 51.3391C120.545 54.2065 127.26 56.9987 134.144 59.3551C134.429 59.4922 134.628 58.906 134.327 58.8441C127.43 56.1714 120.518 53.5739 113.683 50.6004C106.923 47.6424 100.331 44.2486 93.4963 41.2751C93.4211 41.2596 93.3902 41.41 93.4499 41.5007Z" fill="#C99846" fill-opacity="0.5"/>
<path d="M105.467 55.103C105.677 55.2246 105.947 55.4369 106.157 55.5585C106.367 55.6801 106.578 55.8017 106.819 55.7729C106.894 55.7884 106.909 55.7132 106.925 55.638C106.805 55.4567 106.595 55.3351 106.385 55.2134C106.1 55.0764 105.814 54.9393 105.604 54.8177C105.438 54.862 105.332 54.9969 105.467 55.103Z" fill="#C99846" fill-opacity="0.5"/>
<path d="M105.345 55.3131C105.525 55.5851 105.779 55.8726 106.064 56.0097C106.275 56.1313 106.635 56.2838 106.847 56.0139C106.863 55.9387 106.878 55.8635 106.878 55.8635C106.759 55.6822 106.443 55.6955 106.232 55.5739C105.947 55.4368 105.737 55.3152 105.542 55.1184C105.423 54.9371 105.226 55.1318 105.345 55.3131Z" fill="#C99846" fill-opacity="0.5"/>
<path d="M116.476 57.6024C113.248 55.7628 109.672 54.4785 106.398 52.8645C103.124 51.2506 99.8833 49.0947 96.4879 47.6909C96.3375 47.66 96.2314 47.7949 96.3663 47.901C99.2907 50.0702 102.881 51.6709 106.17 53.2096C109.519 54.839 112.912 56.6343 116.476 57.6024C116.46 57.6776 116.476 57.6024 116.476 57.6024Z" fill="#C99846" fill-opacity="0.5"/>
<path d="M96.7135 47.7373C99.0118 48.7587 101.447 49.4947 103.73 50.5913C106.013 51.6879 108.28 52.8597 110.563 53.9563C114.573 55.8002 119.276 57.708 123.721 57.0547C123.962 57.0259 124.04 56.6498 123.739 56.588C118.486 56.213 114.036 54.9841 109.244 52.7445C105.475 50.8719 101.108 48.0925 96.7135 47.7373Z" fill="#C99846" fill-opacity="0.5"/>
<path d="M110.463 52.9168C111.514 53.5249 112.611 53.9073 113.693 54.3649C114.564 54.7009 115.42 55.1122 116.294 55.0567C116.444 55.0876 116.491 54.862 116.34 54.8311C115.546 54.119 114.493 53.9025 113.546 53.551C112.525 53.184 111.578 52.8326 110.525 52.616C110.375 52.5851 110.253 52.7952 110.463 52.9168Z" fill="#C99846" fill-opacity="0.5"/>
<path d="M111.047 53.5072C112.399 54.1771 113.812 54.5462 115.285 55.0059C116.699 55.375 118.141 55.9852 119.632 55.9783C119.873 55.9494 119.844 55.7084 119.709 55.6022C118.448 54.8726 116.853 54.623 115.44 54.2539C114.026 53.8848 112.553 53.425 111.078 53.3568C111.003 53.3413 110.972 53.4917 111.047 53.5072Z" fill="#C99846" fill-opacity="0.5"/>
<path d="M115.752 55.0235C116.805 55.24 117.842 55.5318 118.955 55.839C119.842 56.0998 120.848 56.542 121.737 56.4113C121.903 56.3671 121.934 56.2166 121.874 56.126C121.215 55.5201 120.206 55.4694 119.304 55.2838C118.176 55.0518 116.942 54.9547 115.783 54.8731C115.708 54.8576 115.677 55.008 115.752 55.0235Z" fill="#C99846" fill-opacity="0.5"/>
<path d="M107.756 52.36C108.988 52.8485 110.521 53.399 111.815 53.5867C111.965 53.6176 112.087 53.4075 111.952 53.3014C110.766 52.5872 109.187 52.2624 107.787 52.2096C107.636 52.1786 107.605 52.329 107.756 52.36Z" fill="#C99846" fill-opacity="0.5"/>
<path d="M107.532 51.922C108.178 52.2117 108.884 52.592 109.576 52.656C109.727 52.6869 109.757 52.5365 109.623 52.4303C109.067 52.081 108.24 51.9108 107.579 51.6964C107.503 51.681 107.473 51.8314 107.532 51.922Z" fill="#C99846" fill-opacity="0.5"/>
<path d="M120.97 56.3319C121.346 56.4092 121.631 56.5463 122.007 56.6237C122.383 56.701 122.699 56.6877 123.076 56.765C123.151 56.7805 123.182 56.6301 123.106 56.6146C122.73 56.5373 122.445 56.4002 122.069 56.3228C121.693 56.2455 121.377 56.2588 121.001 56.1815C120.926 56.166 120.895 56.3164 120.97 56.3319Z" fill="#C99846" fill-opacity="0.5"/>
<path d="M132.494 58.2318C133.907 58.6009 135.561 58.9412 136.964 58.6025C137.054 58.5428 137.085 58.3924 136.919 58.4366C135.475 58.2179 133.969 58.3001 132.434 58.1411C132.449 58.0659 132.418 58.2163 132.494 58.2318Z" fill="#C99846" fill-opacity="0.5"/>
<path d="M104.792 51.9072C101.107 51.1492 97.3136 50.9178 93.6131 50.235C90.1383 49.5987 86.785 48.7523 83.403 47.6647C75.9775 45.2753 69.3724 41.5652 63.1785 36.999C63.0435 36.8929 62.8467 37.0876 62.9817 37.1937C68.3595 42.2975 75.2234 45.5121 82.2131 47.7335C85.9557 48.9736 89.6849 49.8974 93.5358 50.6111C97.1611 51.2783 101.072 52.0826 104.761 52.0576C104.836 52.073 104.867 51.9226 104.792 51.9072Z" fill="#C99846" fill-opacity="0.5"/>
<path d="M63.4947 36.9856C65.9391 38.8209 68.9739 40.0722 71.7677 41.3523C74.8468 42.7694 78.032 44.0516 81.2327 45.2587C87.3488 47.5356 93.708 49.3922 100.147 50.4814C100.372 50.5278 100.434 50.227 100.209 50.1806C93.668 48.4434 87.1274 46.7062 80.7105 44.3674C77.6448 43.2665 74.61 42.0153 71.6813 40.629C68.9627 39.3644 66.3658 37.8897 63.5854 36.9259C63.435 36.895 63.435 36.895 63.4947 36.9856Z" fill="#C99846" fill-opacity="0.5"/>
<path d="M111.911 49.6872C106.826 46.2113 102.846 41.5519 97.5169 38.4962C91.9934 35.2437 86.8881 32.626 83.5914 26.9313C83.5471 26.7654 83.2906 26.8694 83.3348 27.0353C85.0522 32.4052 90.8632 35.4032 95.4421 37.9127C98.6849 39.6771 101.565 41.6804 104.337 44.2101C106.644 46.3308 109.133 48.332 111.865 49.9129C111.925 50.0035 112.046 49.7934 111.911 49.6872Z" fill="#C99846" fill-opacity="0.5"/>
<path d="M83.6244 26.3894C87.8588 31.3363 93.2782 34.3322 98.5894 37.8546C104.531 41.7417 110.077 46.4097 115.094 51.3609C115.289 51.5577 115.592 51.2281 115.397 51.0313C110.559 46.3521 105.599 41.8831 100.034 38.0732C97.4987 36.2977 94.8111 34.8827 92.1699 33.242C89.0641 31.1923 86.5334 28.6338 83.6244 26.3894C83.6399 26.3142 83.6244 26.3894 83.6244 26.3894Z" fill="#C99846" fill-opacity="0.5"/>
<path d="M122.234 53.6134C118.244 50.9114 114.558 47.4882 110.992 44.2465C107.501 41.0201 104.207 37.5991 101.201 33.9237C101.141 33.8331 100.96 33.9525 101.019 34.0432C103.814 37.9885 107.123 41.3343 110.674 44.6513C114.224 47.9683 117.91 51.3914 121.976 54.1089C122.292 54.0955 122.52 53.7505 122.234 53.6134Z" fill="#C99846" fill-opacity="0.5"/>
<path d="M100.948 33.2448C100.86 32.913 100.862 32.5215 100.683 32.2495C100.698 32.1743 100.608 32.234 100.608 32.234C100.681 32.641 100.844 32.9882 100.948 33.2448C100.933 33.32 100.933 33.32 100.948 33.2448Z" fill="#C99846" fill-opacity="0.5"/>
<path d="M97.7157 48.9624C91.2545 46.4577 84.5347 44.4485 77.7221 42.8906C77.4213 42.8287 77.313 43.3551 77.6138 43.417C84.3358 45.0347 90.9804 47.0284 97.6096 49.0973C97.76 49.1283 97.7909 48.9779 97.7157 48.9624Z" fill="#C99846" fill-opacity="0.5"/>
<path d="M79.7041 43.9252C81.613 44.553 83.5683 44.9552 85.4772 45.5829C87.3862 46.2107 89.158 47.1238 91.1133 47.526C91.3389 47.5724 91.4008 47.2716 91.2658 47.1654C89.7505 46.1483 87.7355 45.6555 86.0213 45.2245C83.9465 44.641 81.8872 43.9823 79.8103 43.7903C79.5249 43.6532 79.4785 43.8788 79.7041 43.9252Z" fill="#C99846" fill-opacity="0.5"/>
<path d="M83.0265 44.9221C84.3183 45.5013 85.7162 45.9456 87.0389 46.3744C88.5873 46.8497 90.1644 47.566 91.7901 47.6652C92.1064 47.6519 92.2435 47.3665 91.9736 47.1542C89.6177 45.6507 85.8575 44.8773 83.1481 44.7119C82.9822 44.7562 82.9667 44.8314 83.0265 44.9221Z" fill="#C99846" fill-opacity="0.5"/>
<path d="M84.3337 45.4261C87.3376 46.8278 91.6024 48.9592 94.9466 48.7064C95.1876 48.6776 95.1588 48.4365 95.0239 48.3303C93.5684 47.4039 91.748 47.1079 90.1244 46.6172C88.2001 46.0646 86.3509 45.5275 84.4111 45.0501C84.2452 45.0944 84.1081 45.3797 84.3337 45.4261Z" fill="#C99846" fill-opacity="0.5"/>
<path d="M88.5563 47.0001C90.0582 47.7009 91.622 48.1009 93.1549 48.6514C94.7033 49.1266 96.2052 49.8274 97.8464 49.8514C97.9968 49.8824 98.1339 49.597 97.9989 49.4909C96.8442 48.6263 95.4153 48.3324 94.0926 47.9036C92.3186 47.382 90.5447 46.8603 88.6934 46.7147C88.4677 46.6683 88.3307 46.9536 88.5563 47.0001Z" fill="#C99846" fill-opacity="0.5"/>
<path d="M82.2279 44.993C82.9181 45.4485 83.7144 45.7691 84.5107 46.0896C85.307 46.4102 86.0879 46.8059 86.946 46.8257C87.1717 46.8721 87.3839 46.6022 87.1893 46.4054C86.5146 45.8747 85.7028 45.6293 84.9065 45.3088C84.1102 44.9882 83.3139 44.6677 82.4711 44.5727C82.2301 44.6015 82.0178 44.8714 82.2279 44.993Z" fill="#C99846" fill-opacity="0.5"/>
<path d="M87.7067 45.4144C84.8666 44.36 82.5992 43.1882 80.3362 41.2334C78.343 39.4909 76.3653 37.6732 74.1753 36.1254C71.7 34.4405 69.0124 33.0255 66.5371 31.3406C64.002 29.565 62.4025 27.4331 60.7298 24.8943C60.6104 24.713 60.429 24.8325 60.4578 25.0735C62.204 30.6845 69.1916 33.2975 73.6025 36.2427C77.9382 39.1725 82.1064 45.2032 87.7067 45.4144C87.7664 45.5051 87.7664 45.5051 87.7067 45.4144Z" fill="#C99846" fill-opacity="0.5"/>
<path d="M60.7762 24.6687C66.6672 29.5645 73.4206 33.697 79.7206 38.1282C85.3305 42.1039 90.79 46.0486 97.4346 48.0424C97.7355 48.1042 97.8283 47.653 97.5429 47.5159C90.5089 45.1286 84.4212 40.4275 78.3755 36.2838C72.6152 32.2772 67.0075 27.91 60.9885 24.3989C60.8381 24.3679 60.6413 24.5626 60.7762 24.6687Z" fill="#C99846" fill-opacity="0.5"/>
<path d="M80.6984 38.3292C77.0672 30.4493 67.8876 26.6801 65.6608 18.07C65.6165 17.9041 65.3754 17.9329 65.4197 18.0988C65.4448 21.788 68.0486 24.7535 70.5197 27.2214C72.1523 28.8114 73.8911 30.2664 75.433 31.9161C77.2891 33.9439 78.8577 36.2262 80.5325 38.3735C80.5922 38.4642 80.7581 38.4199 80.6984 38.3292Z" fill="#C99846" fill-opacity="0.5"/>
<path d="M65.4794 18.1894C70.5943 24.5716 76.5253 30.4162 82.0339 36.4091C86.5845 41.3427 91.7522 46.3249 98.6113 47.6572C98.8369 47.7036 98.8987 47.4028 98.6886 47.2812C91.5906 45.5862 86.5157 40.1528 81.6952 35.0069C76.4256 29.3767 71.324 23.3108 65.7514 18.0102C65.6165 17.9041 65.4197 18.0988 65.4794 18.1894Z" fill="#C99846" fill-opacity="0.5"/>
<path d="M97.8304 47.2615C98.2507 47.5047 98.7771 47.613 99.3036 47.7212C99.7548 47.8141 100.191 47.9821 100.688 47.8493C100.779 47.7895 100.794 47.7143 100.735 47.6236C100.405 47.3207 99.8631 47.2876 99.4118 47.1948C98.8854 47.0865 98.359 46.9783 97.8768 47.0359C97.7109 47.0801 97.68 47.2306 97.8304 47.2615Z" fill="#C99846" fill-opacity="0.5"/>
<path d="M107.51 53.1717C99.8422 53.8677 92.0546 54.3824 84.3619 54.0544C76.0522 53.6778 68.3968 52.0249 60.6593 48.8658C60.5841 48.8503 60.478 48.9852 60.5532 49.0007C74.803 56.3211 92.1565 55.0305 107.524 53.488C107.69 53.4437 107.676 53.1275 107.51 53.1717Z" fill="#C99846" fill-opacity="0.5"/>
<path d="M60.7345 48.8812C64.2003 48.4183 67.8037 50.3352 71.0972 51.091C74.5411 51.8777 78.0315 52.4388 81.5682 52.7743C88.04 53.3215 94.7108 53.2826 101.118 51.857C101.284 51.8127 101.255 51.5716 101.03 51.5252C93.7374 52.2986 86.5226 52.6959 79.1638 51.8878C75.7929 51.5081 72.4685 50.9027 69.1905 50.0717C66.4986 49.4397 63.5699 48.0535 60.7655 48.7308C60.5996 48.7751 60.6439 48.941 60.7345 48.8812Z" fill="#C99846" fill-opacity="0.5"/>
<path d="M109.741 58.3335C99.5644 57.8866 89.6406 60.7837 80.582 65.1914C80.582 65.1914 80.5665 65.2666 80.582 65.1914C89.7911 60.8147 99.6775 59.2424 109.77 58.5746C109.936 58.5303 109.907 58.2893 109.741 58.3335Z" fill="#C99846" fill-opacity="0.5"/>
<path d="M80.6107 65.4326C81.1596 66.9564 82.9863 66.0779 84.1032 65.6022C87.529 64.1904 91.0433 63.1103 94.7502 62.6186C100.733 61.7327 107.054 62.249 112.685 59.6446C113.032 59.4809 112.84 58.8926 112.492 59.0563C107.377 61.0612 102.047 61.0623 96.6676 61.6804C94.3475 61.9087 92.0562 62.378 89.8091 63.0133C88.4821 63.3674 87.1396 63.7968 85.8569 64.3168C84.5144 64.7461 81.9911 66.3435 80.6107 65.4326C80.6262 65.3574 80.6262 65.3574 80.6107 65.4326Z" fill="#C99846" fill-opacity="0.5"/>
<path d="M81.3473 65.6624C81.0177 65.3595 81.2167 64.7733 81.5793 64.5344C81.942 64.2954 82.4839 64.3285 82.8621 64.0144C82.9528 63.9546 82.9837 63.8042 82.8333 63.7733C82.1874 63.4837 81.1767 63.8245 80.8273 64.3797C80.4934 64.8597 80.4737 65.7179 81.135 65.9323C81.27 66.0385 81.4668 65.8438 81.3473 65.6624Z" fill="#C99846" fill-opacity="0.5"/>
<path d="M81.7319 64.1738C83.163 64.0762 84.5364 63.4965 85.8788 63.0671C87.3872 62.5935 88.9707 62.1353 90.4503 61.4206C90.541 61.3609 90.4812 61.2702 90.406 61.2548C88.8689 61.4873 87.4357 61.9764 86.0026 62.4655C84.5694 62.9546 83.0168 63.2623 81.7629 64.0234C81.6722 64.0832 81.6567 64.1584 81.7319 64.1738Z" fill="#C99846" fill-opacity="0.5"/>
<path d="M139.782 60.9066C132.616 63.3521 128.924 72.1557 121.27 73.168C121.194 73.1526 121.163 73.303 121.314 73.3339C124.505 73.4417 127.365 70.9727 129.649 69.0126C133.068 66.1101 135.675 62.9622 139.842 60.9973C139.917 61.0128 139.857 60.9221 139.782 60.9066Z" fill="#C99846" fill-opacity="0.5"/>
<path d="M121.78 73.3515C123.541 70.8916 126.783 69.9908 128.873 67.8339C131.25 65.4226 133.238 62.6176 136.646 61.6725C137.053 61.5994 136.86 61.0111 136.453 61.0842C133.211 61.9851 131.179 64.6241 128.892 66.9757C127.499 68.4137 125.942 69.5044 124.175 70.4735C123.027 71.0997 121.789 71.7856 121.646 73.2454C121.615 73.3958 121.765 73.4267 121.78 73.3515Z" fill="#C99846" fill-opacity="0.5"/>
<path d="M135.204 61.0623C132.959 61.3061 131.07 62.4853 129.062 63.4832C126.45 64.7489 123.719 65.8332 120.943 66.7517C115.301 68.6483 109.681 69.2952 103.789 70.1214C103.623 70.1657 103.667 70.3315 103.818 70.3625C109.208 70.4521 114.801 69.1726 119.915 67.5592C122.6 66.7005 125.165 65.6604 127.746 64.5452C130.177 63.399 132.503 61.9962 135.232 61.3034C135.339 61.1685 135.294 61.0026 135.204 61.0623Z" fill="#C99846" fill-opacity="0.5"/>
<path d="M103.909 70.3027C103.515 70.6921 103.546 70.5417 103.648 71.1897C103.708 71.2804 103.767 71.3711 103.858 71.3113C113.24 71.0463 124.279 70.73 131.933 64.3873C132.114 64.2678 131.935 63.9958 131.754 64.1153C127.78 66.6685 123.735 68.4232 119.137 69.4371C116.679 69.9508 114.178 70.2985 111.632 70.4804C110.352 70.6089 109.086 70.6622 107.746 70.7001C107.505 70.7289 103.876 70.8446 104.119 70.4243C104.225 70.2894 104.015 70.1678 103.909 70.3027Z" fill="#C99846" fill-opacity="0.5"/>
<path d="M142.522 58.2563C143.365 58.3512 144.327 58.6275 145.156 58.4062C145.247 58.3464 145.262 58.2712 145.187 58.2558C144.375 58.0104 143.396 58.2008 142.537 58.1811C142.462 58.1656 142.447 58.2408 142.522 58.2563Z" fill="#C99846" fill-opacity="0.5"/>
<path d="M114.851 40.7289C112.444 37.5688 110.26 34.8465 108.926 31.0447C107.74 27.6653 107.398 23.9893 106.378 20.5657C106.349 20.3246 105.942 20.3977 105.971 20.6388C106.612 27.4333 109.062 36.4812 114.67 40.8484C114.745 40.8639 114.911 40.8196 114.851 40.7289Z" fill="#C99846" fill-opacity="0.5"/>
<path d="M106.199 20.2936C108.818 23.1839 109.096 27.5521 110.749 30.9491C112.326 34.3306 114.704 37.2497 117.28 39.9741C120.065 42.8202 123.078 45.3211 126.166 47.8375C129.719 50.763 133.207 54.3808 137.185 56.7666C137.395 56.8882 137.532 56.6028 137.412 56.4215C134.3 52.881 129.948 50.0264 126.336 47.0103C123.323 44.5093 120.235 41.9929 117.525 39.1624C114.545 36.1195 111.943 32.7625 110.505 28.7042C109.332 25.6411 108.988 22.3566 106.577 19.9794C106.292 19.8424 106.08 20.1122 106.199 20.2936Z" fill="#C99846" fill-opacity="0.5"/>
<path d="M107.582 56.6354C101.156 55.8625 94.3865 57.5271 87.9968 58.4861C80.4769 59.6045 73.5054 59.5816 66.2767 56.9974C66.1263 56.9665 66.0202 57.1014 66.1551 57.2076C71.9949 60.4467 79.5259 60.036 85.9599 59.2429C89.5761 58.8109 93.1635 58.1378 96.7354 57.5399C100.367 57.0327 103.921 56.9015 107.551 56.7858C107.701 56.8167 107.657 56.6508 107.582 56.6354Z" fill="#C99846" fill-opacity="0.5"/>
<path d="M66.6969 57.2407C68.1589 56.9927 70.0368 57.7708 71.5564 58.005C73.0759 58.2391 74.5512 58.3074 76.042 58.3005C79.7312 58.2754 83.2877 57.7527 86.9194 57.2455C94.0323 56.2002 101.194 54.5377 108.479 54.9388C108.63 54.9697 108.617 54.6534 108.526 54.7132C101.211 54.071 94.0963 55.5078 86.937 56.7788C83.365 57.3767 79.7334 57.8839 76.0596 57.8338C74.1021 57.8231 72.1756 57.662 70.2049 57.3351C68.9861 57.1628 67.4399 56.2961 66.3076 56.847C66.2169 56.9068 66.2014 56.982 66.186 57.0572C66.1838 57.4487 66.1993 57.3735 66.3785 57.6455C66.3785 57.6455 66.4537 57.661 66.5289 57.6764C66.6196 57.6167 66.6948 57.6322 66.7103 57.557C66.8164 57.422 66.7876 57.1809 66.6969 57.2407Z" fill="#C99846" fill-opacity="0.5"/>
<path d="M89.1851 61.4739C80.902 61.7299 73.1992 66.0245 65.6996 68.95C65.5337 68.9943 65.5779 69.1601 65.7284 69.1911C67.5354 69.1708 69.1963 68.3366 70.8417 67.5777C72.7591 66.6395 74.7363 65.792 76.698 65.0197C80.7873 63.4308 85.0227 62.6558 89.1696 61.5491C89.2603 61.4894 89.2758 61.4142 89.1851 61.4739Z" fill="#C99846" fill-opacity="0.5"/>
<path d="M66.0313 68.8615C67.3604 68.1159 68.5237 67.4145 69.8971 66.8348C71.2705 66.255 72.5687 65.6598 73.9421 65.08C76.5076 64.04 79.1483 63.0154 81.8332 62.1567C87.369 60.395 93.157 59.3123 98.9387 59.4041C99.255 59.3907 99.1974 58.9086 98.8811 58.9219C92.5575 58.7971 86.4975 60.059 80.5084 62.1194C77.4762 63.1418 74.4883 64.3301 71.4849 65.5936C70.0208 66.2331 68.5568 66.8726 67.0927 67.5121C66.3982 67.8396 65.7347 68.0167 65.2792 68.7069C65.2638 68.7821 65.2483 68.8573 65.3235 68.8727C65.5027 69.1448 65.5027 69.1448 65.8035 69.2066C65.8787 69.2221 65.8787 69.2221 65.8942 69.1469C65.9097 69.0717 66.0003 69.012 66.0003 69.012C66.1817 68.8925 66.122 68.8018 66.0313 68.8615Z" fill="#C99846" fill-opacity="0.5"/>
<path d="M119.453 61.0367C114.705 62.0196 109.532 63.5424 105.213 65.8678C100.29 68.461 96.6015 73.8165 90.5809 73.362C90.5057 73.3466 90.4593 73.5722 90.5345 73.5877C95.6484 74.6395 99.3899 70.5491 103.154 67.8743C108.081 64.4981 114.139 63.6277 119.482 61.2777C119.664 61.1583 119.619 60.9924 119.453 61.0367Z" fill="#C99846" fill-opacity="0.5"/>
<path d="M90.2492 73.4507C94.8473 72.4368 98.8235 69.4921 102.663 66.8328C107.137 63.7553 111.184 61.6091 116.565 60.5994C116.731 60.5551 116.686 60.3893 116.536 60.3583C112.245 60.2596 107.895 62.7355 104.465 64.9303C99.7654 67.9614 95.442 71.0698 90.1761 73.0437C89.9041 73.223 90.0081 73.4795 90.2492 73.4507Z" fill="#C99846" fill-opacity="0.5"/>
<path d="M71.142 42.8697C68.6182 41.8019 65.9241 41.5614 63.2899 41.4115C59.7377 41.1512 56.5327 40.7271 53.1197 39.79C52.9693 39.7591 52.9229 39.9847 53.0579 40.0908C55.5199 41.4595 58.4549 41.6712 61.2242 41.9272C64.6259 42.1566 67.8618 42.4302 71.1554 43.186C71.1708 43.1108 71.2018 42.9604 71.142 42.8697Z" fill="#C99846" fill-opacity="0.5"/>
<path d="M52.7305 39.3964C54.8319 40.6124 57.7494 41.2909 60.2023 41.5602C60.3527 41.5912 60.3991 41.3656 60.2487 41.3346C57.9041 40.5388 55.2586 39.6812 52.8211 39.3366C52.6862 39.2305 52.5955 39.2902 52.7305 39.3964Z" fill="#C99846" fill-opacity="0.5"/>
<path d="M54.6857 39.7986C56.5637 40.5768 58.3995 40.7976 60.4012 40.9741C63.1107 41.1395 65.7583 41.6056 68.4523 41.8462C68.6027 41.8771 68.6337 41.7267 68.4987 41.6206C66.8176 40.6477 64.7097 40.6061 62.7832 40.445C60.0737 40.2797 57.3488 40.1895 54.7476 39.4978C54.6569 39.5575 54.626 39.7079 54.6857 39.7986Z" fill="#C99846" fill-opacity="0.5"/>
<path d="M61.9074 40.892C62.9006 41.0179 63.9091 41.0685 64.9023 41.1944C65.8202 41.3048 66.6474 41.475 67.5365 41.3443C67.7024 41.3 67.7334 41.1496 67.5984 41.0435C66.0367 40.252 63.5817 40.3741 61.8941 40.5757C61.8034 40.6354 61.8322 40.8765 61.9074 40.892Z" fill="#C99846" fill-opacity="0.5"/>
<path d="M83.0713 47.7532C75.6021 47.8631 68.6167 44.8586 61.1453 45.3599C57.5755 45.5663 54.0479 46.3301 50.5666 46.8683C46.9195 47.4507 43.259 47.7168 39.5388 47.8923C39.4636 47.8768 39.4327 48.0272 39.5079 48.0427C46.7317 48.7446 54.0345 46.0138 61.1741 45.601C65.3013 45.3525 69.0769 46.0507 73.0473 46.9457C76.2656 47.686 79.829 48.654 83.0713 47.7532C83.1465 47.7687 83.1465 47.7687 83.0713 47.7532Z" fill="#C99846" fill-opacity="0.5"/>
<path d="M39.2688 47.68C45.5657 47.1722 51.7031 45.5343 57.9712 44.7855C61.1959 44.3513 64.403 44.3839 67.6234 44.7327C70.6183 45.0351 73.507 45.4725 76.5349 45.233C77.017 45.1754 76.9151 44.5274 76.5237 44.5252C70.094 44.5354 63.987 43.3577 57.5376 44.226C51.4951 45.0212 45.1364 45.8298 39.24 47.4389C39.0144 47.3925 39.0278 47.7088 39.2688 47.68Z" fill="#C99846" fill-opacity="0.5"/>
<path d="M54.6137 44.722C50.1655 43.1016 45.2111 43.18 40.5287 43.0792C34.747 42.9875 29.3281 42.6568 24.0105 40.3089C23.9352 40.2934 23.8291 40.4284 23.9043 40.4438C28.0165 42.9357 33.0131 43.4147 37.7707 43.531C43.4616 43.6825 48.9425 43.7123 54.4611 45.0826C54.6713 45.2042 54.8238 44.8436 54.6137 44.722Z" fill="#C99846" fill-opacity="0.5"/>
<path d="M23.6189 40.3068C26.8772 41.9959 31.1548 41.7783 34.6339 41.6317C38.8053 41.549 42.8263 41.4354 47.0244 41.9853C53.9011 42.851 61.3441 44.7738 68.0741 42.1603C68.24 42.1161 68.136 41.8595 67.9701 41.9038C60.4769 43.6548 53.4077 42.2008 45.914 41.2866C42.6029 40.9975 39.3051 41.0247 35.9166 41.1116C31.6545 41.254 27.8325 40.7815 23.6653 40.0812C23.5901 40.0657 23.4685 40.2758 23.6189 40.3068Z" fill="#C99846" fill-opacity="0.5"/>
<path d="M72.5539 46.2955C67.0155 45.7835 61.4952 47.4699 56.1872 48.8865C49.3554 50.852 43.0851 51.9923 36.0138 50.9298C35.9386 50.9143 35.9077 51.0647 35.9829 51.0802C41.5437 53.0078 48.0417 51.5224 53.5156 50.0615C59.8189 48.3793 65.912 46.5755 72.5075 46.5211C72.658 46.5521 72.6292 46.311 72.5539 46.2955Z" fill="#C99846" fill-opacity="0.5"/>
<path d="M36.1641 50.9607C37.2522 50.2439 39.088 50.4647 40.3686 50.3361C41.6338 50.2828 42.9144 50.1543 44.1198 50.0103C46.5306 49.7223 48.8816 49.3436 51.1729 48.8742C55.4238 48.0241 59.6017 46.7669 63.899 45.6912C63.9742 45.7066 63.9299 45.5407 63.8547 45.5253C61.4594 45.7381 59.1814 46.5237 56.8591 47.1435C54.0392 47.896 51.1751 48.4827 48.2667 48.9036C45.5993 49.2956 42.9474 49.6124 40.311 49.854C38.88 49.9516 36.9844 49.6401 36.1641 50.9607C36.0889 50.9452 36.0889 50.9452 36.1641 50.9607Z" fill="#C99846" fill-opacity="0.5"/>
<path d="M90.3196 49.4791C85.7833 50.1922 81.8199 50.788 77.2015 49.9949C73.8019 49.374 70.7937 48.7553 67.3258 49.6098C67.1599 49.654 67.2485 49.9858 67.4143 49.9415C71.4705 48.8945 75.6489 50.3026 79.7718 50.8371C83.3837 51.188 86.9556 50.5901 90.3196 49.4791C90.3793 49.5698 90.3948 49.4946 90.3196 49.4791Z" fill="#C99846" fill-opacity="0.5"/>
<path d="M65.1807 50.8931C62.3875 52.2782 60.0279 54.2228 57.1461 55.2762C54.1892 56.3141 51.3271 56.5093 48.2395 56.6581C48.1643 56.6427 48.1334 56.7931 48.2086 56.8085C54.7977 57.9286 60.0721 54.3887 65.3002 51.0744C65.466 51.0301 65.3466 50.8488 65.1807 50.8931Z" fill="#C99846" fill-opacity="0.5"/>
<path d="M48.1952 56.4923C51.0305 55.6645 53.9389 55.2437 56.7455 54.1748C59.2955 53.21 61.6818 51.8979 64.1278 50.6765C64.3843 50.5725 64.1454 50.2098 63.8888 50.3138C61.1708 51.7144 58.4373 53.1902 55.4958 54.1529C53.052 54.9828 50.3558 55.1338 48.1354 56.4016C48.0448 56.4613 48.1045 56.552 48.1952 56.4923Z" fill="#C99846" fill-opacity="0.5"/>
<path d="M64.7976 49.3249C66.8479 48.8844 68.7941 48.1873 70.9484 48.0033C72.7863 47.8326 74.6376 47.9782 76.5044 48.0486C76.7455 48.0198 76.7476 47.6283 76.522 47.5819C72.8813 46.9899 68.0154 47.4 64.7534 49.1591C64.6627 49.2188 64.707 49.3847 64.7976 49.3249Z" fill="#C99846" fill-opacity="0.5"/>
<path d="M60.39 40.2663C57.2421 37.6593 54.0014 35.5034 51.1565 32.5667C49.7938 31.189 48.4465 29.7361 47.1744 28.2987C45.6325 26.649 43.2036 24.7385 43.5636 22.2259C43.6409 21.8498 43.1145 21.7416 43.0372 22.1176C41.9806 25.3492 46.9003 28.8694 48.847 30.8375C52.1411 34.2585 55.8666 38.6305 60.3591 40.4168C60.3591 40.4168 60.4498 40.357 60.39 40.2663Z" fill="#C99846" fill-opacity="0.5"/>
<path d="M43.1124 22.1331C46.3158 25.6138 49.7314 28.8247 52.9502 32.2302C55.9898 35.3637 59.182 38.1367 62.8585 40.4605C63.2036 40.6883 63.5529 40.133 63.1326 39.8898C55.3573 35.3904 49.6605 28.0262 43.3247 21.8632C43.2052 21.6819 42.9177 21.9363 43.1124 22.1331Z" fill="#C99846" fill-opacity="0.5"/>
<path d="M91.973 44.4891C89.0396 41.2206 87.5568 36.9964 84.714 33.6682C83.3225 32.0495 81.6435 30.6851 80.2364 29.1416C78.4113 26.9633 77.4907 24.5792 76.4661 21.9385C76.3467 21.7572 76.0304 21.7705 76.0592 22.0116C76.4693 26.8774 80.126 30.0595 83.4067 33.1642C85.369 35.0571 86.6677 37.1271 87.9046 39.4979C88.9334 41.3556 90.022 43.304 91.8072 44.5334C91.9421 44.6395 92.0328 44.5798 91.973 44.4891Z" fill="#C99846" fill-opacity="0.5"/>
<path d="M76.3003 21.9827C78.0236 23.5129 78.8689 25.8816 80.2893 27.7414C81.5459 29.254 82.9086 30.6317 84.3466 32.0249C87.6118 35.2048 90.8328 38.2188 93.0542 42.2814C93.1737 42.4628 93.4457 42.2836 93.4014 42.1177C91.7064 38.1634 88.47 35.2245 85.4591 32.3321C83.6916 30.636 81.8643 28.8492 80.3842 26.8987C79.0834 25.2202 78.2513 23.1678 76.4971 21.788C76.3467 21.7571 76.1653 21.8766 76.3003 21.9827Z" fill="#C99846" fill-opacity="0.5"/>
<path d="M93.1736 42.4628C93.2136 43.4117 93.7203 44.3781 94.2734 45.1189C94.7513 45.8443 95.4393 46.6913 96.2511 46.9366C96.3263 46.9521 96.4325 46.8172 96.3727 46.7265C95.8948 46.0011 95.0697 45.4395 94.5918 44.7141C94.1139 43.9888 93.8174 43.1439 93.4302 42.3588C93.2952 42.2527 93.1891 42.3876 93.1736 42.4628Z" fill="#C99846" fill-opacity="0.5"/>
<path d="M100.994 38.7411C100.454 38.3165 99.8989 37.9672 99.3436 37.6178C98.7287 37.1778 98.1137 36.7378 97.3926 36.4327C97.3174 36.4172 97.2267 36.4769 97.2865 36.5676C97.751 36.9767 98.3815 37.3415 98.9367 37.6909C99.5671 38.0557 100.182 38.4957 100.903 38.8008C100.978 38.8163 101.054 38.8317 100.994 38.7411Z" fill="#C99846" fill-opacity="0.5"/>
<path d="M86.04 27.9836C84.3188 26.0619 82.8388 24.1114 81.7523 21.7715C80.6947 19.6727 80.3005 17.3968 79.5746 15.2095C79.5149 15.1189 79.349 15.1631 79.3335 15.2383C79.4893 19.8167 82.6532 25.0138 85.9493 28.0433C86.0688 28.2246 86.1749 28.0897 86.04 27.9836Z" fill="#C99846" fill-opacity="0.5"/>
<path d="M79.7692 15.4064C81.3133 16.6646 81.9197 18.6706 82.8136 20.4222C83.7828 22.1892 84.8425 23.8965 86.0837 25.4843C88.1478 28.0253 90.7847 30.4489 93.8659 31.4745C94.0164 31.5055 94.0628 31.2799 93.9124 31.2489C90.0855 28.8941 86.9819 26.4529 84.5481 22.6602C83.4729 21.0281 82.6696 19.2168 81.7757 17.4652C81.3597 16.439 80.8973 15.6384 79.7692 15.4064C79.7847 15.3312 79.7692 15.4064 79.7692 15.4064Z" fill="#C99846" fill-opacity="0.5"/>
<path d="M94.2244 32.0185C96.0693 33.3386 98.0801 34.6144 99.9405 35.8593C102.086 37.2412 104.139 39.0744 106.453 40.0206C106.528 40.0361 106.543 39.9609 106.468 39.9454C104.836 38.3554 102.719 37.2146 100.858 35.9697C98.7281 34.5126 96.5979 33.0554 94.3615 31.7332C94.2111 31.7023 94.0895 31.9124 94.2244 32.0185Z" fill="#C99846" fill-opacity="0.5"/>
<path d="M53.299 40.0621C52.2173 39.6044 51.1954 39.2375 50.1292 38.7046C49.198 38.278 48.4038 37.5659 47.4416 37.2896C47.2912 37.2587 47.1696 37.4688 47.2293 37.5595C48.2891 39.2668 51.3106 40.2018 53.2526 40.2877C53.3433 40.2279 53.3742 40.0775 53.299 40.0621Z" fill="#C99846" fill-opacity="0.5"/>
<path d="M47.2026 36.9269C48.1781 37.5195 49.2443 38.0523 50.2353 38.5697C51.0162 38.9654 51.7815 39.4364 52.7149 39.4716C52.8653 39.5025 52.9117 39.2769 52.7768 39.1708C52.133 38.4897 51.1708 38.2134 50.2993 37.8774C49.2929 37.4352 48.2709 37.0683 47.249 36.7013C47.1893 36.6106 47.0677 36.8208 47.2026 36.9269Z" fill="#C99846" fill-opacity="0.5"/>
<path d="M49.2774 37.5104C50.7639 38.2865 52.4451 39.2593 54.115 39.5244C54.2654 39.5554 54.3716 39.4204 54.2366 39.3143C52.8718 38.3281 50.9474 37.7755 49.3393 37.2096C49.1889 37.1787 49.127 37.4795 49.2774 37.5104Z" fill="#C99846" fill-opacity="0.5"/>
<path d="M48.6737 37.7782C50.0983 38.8551 52.1379 40.3719 54.0356 40.2919C54.2014 40.2477 54.323 40.0375 54.1881 39.9314C53.4537 39.31 52.5512 39.1244 51.6952 38.7132C50.7639 38.2865 49.8172 37.935 48.8108 37.4928C48.6758 37.3867 48.479 37.5814 48.6737 37.7782Z" fill="#C99846" fill-opacity="0.5"/>
<path d="M49.9014 39.0497C51.3724 39.901 53.6243 41.148 55.4335 40.7362C55.5993 40.6919 55.5705 40.4509 55.4356 40.3447C54.6702 39.8738 53.7368 39.8386 52.8499 39.5777C51.8877 39.3015 50.9255 39.0252 49.9788 38.6737C49.8129 38.718 49.7665 38.9436 49.9014 39.0497Z" fill="#C99846" fill-opacity="0.5"/>
<path d="M51.3964 38.2598C47.304 34.9097 41.9223 33.2542 37.3744 30.5943C32.6163 27.8128 29.0811 24.4206 26.3973 19.5574C26.3375 19.4667 26.1717 19.511 26.1407 19.6614C27.5771 24.1112 31.5191 27.4304 35.3305 29.8604C37.8213 31.4701 40.5244 32.8099 43.1677 34.059C45.946 35.4143 48.6027 36.9797 51.381 38.335C51.381 38.335 51.4716 38.2753 51.3964 38.2598Z" fill="#C99846" fill-opacity="0.5"/>
<path d="M26.6075 19.679C29.7623 23.7769 34.3967 27.16 38.9004 29.654C41.7075 31.2504 44.7423 32.5016 47.5494 34.098C50.5666 35.816 53.2809 37.8635 56.0549 40.0018C56.3248 40.2141 56.7184 39.8247 56.4485 39.6124C51.9533 35.5525 46.5472 32.8729 41.2317 30.1335C35.6906 27.3477 31.3592 23.635 26.8795 19.4998C26.6384 19.5286 26.5477 19.5884 26.6075 19.679Z" fill="#C99846" fill-opacity="0.5"/>
<path d="M48.5366 38.0635C46.4239 36.1397 43.0152 34.4196 40.0625 34.6745C39.8214 34.7033 39.8502 34.9444 40.0759 34.9908C41.6087 35.5412 43.1592 35.625 44.6766 36.2506C45.9839 36.7546 47.2602 37.4091 48.5366 38.0635C48.5211 38.1387 48.5056 38.2139 48.5366 38.0635Z" fill="#C99846" fill-opacity="0.5"/>
<path d="M39.2309 35.2874C41.5756 36.0832 43.7522 37.3147 46.1124 38.0353C46.2628 38.0662 46.3092 37.8406 46.234 37.8251C44.2696 36.3237 41.6684 35.6319 39.368 35.002C39.1424 34.9556 39.096 35.1812 39.2309 35.2874Z" fill="#C99846" fill-opacity="0.5"/>
<path d="M43.0643 36.4677C45.1236 37.1264 47.0458 38.0705 49.0299 38.7137C49.1051 38.7292 49.2112 38.5942 49.1515 38.5036C47.5168 37.3051 45.1566 36.5845 43.1261 36.1669C42.9757 36.1359 42.9138 36.4368 43.0643 36.4677Z" fill="#C99846" fill-opacity="0.5"/>
<path d="M46.0415 37.2369C41.2749 36.0213 36.6746 37.4267 31.884 37.8523C25.8127 38.4065 20.5815 36.7818 14.9609 34.7636C14.8857 34.7481 14.8703 34.8233 14.9455 34.8388C19.1174 37.4213 24.4878 38.3691 29.3516 38.3505C34.9828 38.4113 40.461 36.1674 46.0415 37.2369C46.1013 37.3275 46.1167 37.2523 46.0415 37.2369Z" fill="#C99846" fill-opacity="0.5"/>
<path d="M15.202 34.7347C17.2149 35.619 19.5329 35.7822 21.7138 36.2308C23.9699 36.6948 26.1817 36.993 28.4709 36.9151C33.516 36.777 38.2821 35.3273 43.3053 36.4389C43.4557 36.4698 43.5928 36.1845 43.4424 36.1535C39.2198 34.5796 34.7411 35.7748 30.4769 36.3087C27.6592 36.6698 25.0403 36.4447 22.2423 35.9476C19.911 35.4681 17.5664 34.6723 15.202 34.7347C15.2174 34.6595 15.202 34.7347 15.202 34.7347Z" fill="#C99846" fill-opacity="0.5"/>
<path d="M41.1287 35.2074C35.1257 34.2862 28.9526 34.1923 22.996 33.0456C16.7386 31.837 11.421 29.4891 6.44365 25.4867C6.29324 25.4558 6.1871 25.5907 6.32204 25.6969C10.1382 30.0091 16.1194 32.1799 21.6092 33.3091C28.0016 34.6238 34.6835 35.2927 41.142 35.5236C41.2924 35.5546 41.3543 35.2538 41.1287 35.2074Z" fill="#C99846" fill-opacity="0.5"/>
<path d="M6.26233 25.6062C8.8214 25.7406 11.3101 27.7418 13.6238 28.6879C15.4266 29.4507 17.32 30.1536 19.2156 30.4651C19.2908 30.4806 19.3969 30.3457 19.2465 30.3147C16.6474 29.2315 13.971 28.5242 11.4626 27.3812C9.82572 26.5742 8.08697 25.1192 6.18713 25.5907C6.2026 25.5155 6.18713 25.5907 6.26233 25.6062Z" fill="#C99846" fill-opacity="0.5"/>
<path d="M20.3591 30.622C27.767 33.4782 35.873 32.5587 43.2654 35.4901C43.4756 35.6117 43.6281 35.2511 43.4025 35.2047C36.1936 31.7624 27.7537 33.1619 20.3746 30.5468C20.2994 30.5313 20.2839 30.6065 20.3591 30.622Z" fill="#C99846" fill-opacity="0.5"/>
<path d="M37.3883 33.5758C34.3422 31.6167 30.9623 30.1377 27.7947 28.3888C25.9631 27.385 24.4478 26.3679 23.147 24.6894C22.1448 23.4642 21.3239 22.1196 20.2908 21.0449C20.0962 20.8481 19.8087 21.1025 19.9127 21.359C21.5677 24.3645 23.6915 26.9962 26.8149 28.5792C30.2081 30.3745 33.6899 32.5016 37.3573 33.7262C37.4325 33.7416 37.4635 33.5912 37.3883 33.5758Z" fill="#C99846" fill-opacity="0.5"/>
<path d="M20.5298 21.4076C25.2767 23.4813 28.9558 28.0789 34.3262 29.0267C34.4766 29.0577 34.5231 28.8321 34.3726 28.8011C31.8066 27.176 28.8604 26.2564 26.2944 24.6313C24.6884 23.6739 22.5336 21.1927 20.47 21.3169C20.5607 21.2572 20.47 21.3169 20.5298 21.4076Z" fill="#C99846" fill-opacity="0.5"/>
<path d="M44.9412 31.9154C44.866 31.9 44.7908 31.8845 44.7001 31.9442C44.6249 31.9288 44.6095 32.004 44.6847 32.0194C44.7599 32.0349 44.8351 32.0504 44.8948 32.141C45.0452 32.172 45.0916 31.9464 44.9412 31.9154Z" fill="#C99846" fill-opacity="0.5"/>
<path d="M29.2311 21.7863C28.9324 21.333 28.4833 20.8487 28.2907 20.2604C27.7729 18.5862 29.6444 20.5388 30.2439 21.054C31.2482 21.8877 32.1464 22.8563 33.2259 23.7054C35.1748 25.282 37.3051 26.7392 39.6033 27.7606C42.1117 28.9036 44.6511 29.8961 47.0379 31.2493C49.5751 32.6334 51.6722 34.6324 54.0126 36.2112C54.2825 36.4235 54.4505 35.9877 54.2558 35.7909C50.8445 31.7971 45.3764 29.4183 40.5986 27.4949C37.8491 26.3807 35.4181 24.8617 33.2147 22.9976C31.476 21.5426 30.0114 19.5169 27.7707 18.9776C27.6203 18.9467 27.5142 19.0817 27.5739 19.1723C27.8993 20.2582 28.2865 21.0434 29.1559 21.7709C29.2001 21.9367 29.2156 21.8615 29.2311 21.7863Z" fill="#C99846" fill-opacity="0.5"/>
<path d="M55.7848 34.4589C55.8158 34.3079 55.5894 34.2614 55.5584 34.4123C55.5273 34.5632 55.7537 34.6098 55.7848 34.4589Z" fill="#C99846" fill-opacity="0.5"/>
<path d="M55.4831 34.3972C53.6088 30.1708 49.9388 26.6725 49.9201 21.8087C49.9356 21.7335 49.7852 21.7026 49.7697 21.7778C49.2769 23.7928 49.7793 25.5423 50.733 27.3845C52.0296 29.846 53.5518 32.3538 55.3769 34.5321C55.3769 34.5321 55.5428 34.4878 55.4831 34.3972Z" fill="#C99846" fill-opacity="0.5"/>
<path d="M49.9799 21.8995C52.3827 25.8426 54.5423 30.2061 57.3077 33.9103C59.655 36.9798 63.42 39.6354 67.041 41.0856C67.4768 41.2536 67.7509 40.6829 67.3306 40.4397C63.4131 38.1447 59.5553 35.9403 56.9712 32.1166C54.7012 28.671 52.6126 25.106 50.4333 21.6008C50.3447 21.269 49.8007 21.6275 49.9799 21.8995Z" fill="#C99846" fill-opacity="0.5"/>
<path d="M67.1467 38.2855C65.4853 36.4544 63.5363 34.8778 61.8749 33.0468C60.2732 31.3064 56.8288 27.8545 56.7067 25.3994C56.6624 25.2335 56.4368 25.1871 56.4059 25.3376C56.0389 26.3595 56.353 26.7376 56.8752 27.6289C57.8155 29.1548 58.9969 30.652 60.134 31.9833C62.0787 34.3429 64.2932 36.9147 67.0251 38.4956C67.1003 38.5111 67.2219 38.3009 67.1467 38.2855Z" fill="#C99846" fill-opacity="0.5"/>
<path d="M56.7531 25.1738C59.198 29.6743 64.2372 33.3759 68.3627 36.184C70.7031 37.7628 73.2249 39.2221 75.8085 40.3805C78.527 41.6451 81.1239 43.1199 83.827 44.4597C83.962 44.5658 84.0836 44.3557 84.0393 44.1898C82.2429 42.2526 79.6129 41.3198 77.2395 40.2829C74.7311 39.1399 72.3133 37.9372 70.0327 36.4491C67.5419 34.8394 65.1727 33.0196 62.9849 31.0803C60.8722 29.1564 59.1532 26.8432 57.0406 24.9194C56.8149 24.873 56.7088 25.0079 56.7531 25.1738Z" fill="#C99846" fill-opacity="0.5"/>
<path d="M114.726 55.4395C115.024 55.8929 115.354 56.1958 115.743 56.5894C116.133 56.9831 116.447 57.3612 116.867 57.6044C116.942 57.6199 117.033 57.5602 116.973 57.4695C116.675 57.0161 116.27 56.6977 115.865 56.3793C115.535 56.0763 115.146 55.6827 114.726 55.4395Z" fill="#C99846" fill-opacity="0.5"/>
<path d="M116.212 56.2156C116.436 56.6535 116.916 56.9874 117.321 57.3058C117.65 57.6087 118.039 58.0024 118.475 58.1704C118.55 58.1858 118.641 58.1261 118.581 58.0354C118.358 57.5975 117.938 57.3543 117.608 57.0514C117.203 56.733 116.739 56.3239 116.212 56.2156C116.228 56.1404 116.212 56.2156 116.212 56.2156Z" fill="#C99846" fill-opacity="0.5"/>
<path d="M117.595 56.7351C118.329 57.3565 119.108 58.1438 120.039 58.5705C120.114 58.5859 120.13 58.5107 120.055 58.4952C119.426 57.7389 118.451 57.1464 117.61 56.6599C117.55 56.5693 117.519 56.7197 117.595 56.7351Z" fill="#C99846" fill-opacity="0.5"/>
<path d="M118.95 56.622C119.34 57.0157 119.729 57.4093 120.209 57.7432C120.539 58.0461 120.868 58.3491 121.304 58.5171C121.379 58.5325 121.47 58.4728 121.41 58.3821C121.187 57.9442 120.691 57.6856 120.287 57.3671C119.882 57.0487 119.477 56.7303 119.057 56.4871C118.981 56.4716 118.875 56.6066 118.95 56.622Z" fill="#C99846" fill-opacity="0.5"/>
<path d="M120.62 56.8871C120.95 57.1901 121.339 57.5837 121.669 57.8867C121.923 58.1741 122.253 58.4771 122.629 58.5544C122.704 58.5699 122.72 58.4947 122.735 58.4195C122.571 58.0723 122.151 57.829 121.806 57.6013C121.476 57.2984 121.056 57.0551 120.727 56.7522C120.651 56.7367 120.545 56.8717 120.62 56.8871Z" fill="#C99846" fill-opacity="0.5"/>
<path d="M122.111 56.8802C122.516 57.1987 122.846 57.5016 123.25 57.82C123.58 58.123 123.91 58.4259 124.345 58.5939C124.421 58.6094 124.511 58.5497 124.452 58.459C124.137 58.0808 123.717 57.8376 123.297 57.5944C122.877 57.3512 122.547 57.0482 122.127 56.805C122.051 56.7896 122.036 56.8648 122.111 56.8802Z" fill="#C99846" fill-opacity="0.5"/>
<path d="M123.584 57.34C123.854 57.5523 124.199 57.78 124.454 58.0675C124.724 58.2798 124.978 58.5673 125.279 58.6291C125.354 58.6446 125.37 58.5694 125.37 58.5694C125.19 58.2974 124.905 58.1603 124.635 57.948C124.365 57.7358 124.02 57.508 123.75 57.2957C123.6 57.2648 123.509 57.3245 123.584 57.34Z" fill="#C99846" fill-opacity="0.5"/>
<path d="M124.369 56.9527C124.938 57.6183 125.672 58.2397 126.484 58.4851L126.5 58.4098C125.703 58.0893 125.013 57.6338 124.369 56.9527Z" fill="#C99846" fill-opacity="0.5"/>
<path d="M125.528 57.0343C126.172 57.7154 126.951 58.5027 127.822 58.8387C127.898 58.8542 127.913 58.779 127.913 58.779C127.194 58.0824 126.354 57.596 125.528 57.0343C125.544 56.9591 125.544 56.9591 125.528 57.0343Z" fill="#C99846" fill-opacity="0.5"/>
<path d="M126.926 57.4787C127.435 58.0536 128.229 58.7657 129.103 58.7102C129.178 58.7257 129.209 58.5753 129.149 58.4846C128.789 58.332 128.413 58.2547 128.068 58.027C127.707 57.8744 127.302 57.556 126.957 57.3282C126.942 57.4035 126.926 57.4787 126.926 57.4787Z" fill="#C99846" fill-opacity="0.5"/>
<path d="M127.813 57.7395C128.158 57.9672 128.519 58.1198 128.864 58.3475C129.149 58.4846 129.419 58.6969 129.811 58.699C129.886 58.7145 129.992 58.5795 129.932 58.4889C129.753 58.2168 129.302 58.124 129.017 57.987C128.656 57.8344 128.296 57.6819 127.92 57.6045C127.769 57.5736 127.754 57.6488 127.813 57.7395Z" fill="#C99846" fill-opacity="0.5"/>
<path d="M129.167 58.0179C129.813 58.3075 130.443 58.6723 131.18 58.9022C131.255 58.9176 131.286 58.7672 131.211 58.7518C130.58 58.3869 129.935 58.0973 129.273 57.8829C129.138 57.7768 129.092 58.0024 129.167 58.0179Z" fill="#C99846" fill-opacity="0.5"/>
<path d="M128.779 51.9023C130.276 53.3861 132.586 55.1153 134.723 55.398C134.798 55.4134 134.904 55.2785 134.829 55.263C133.944 54.6107 132.922 54.2438 131.931 53.7264C130.88 53.1184 129.845 52.4351 128.794 51.8271C128.81 51.7519 128.779 51.9023 128.779 51.9023Z" fill="#C99846" fill-opacity="0.5"/>
<path d="M129.486 51.8912C130.776 52.8619 132.38 54.2108 133.913 54.7612C134.063 54.7921 134.26 54.5975 134.125 54.4913C132.957 53.3105 131.095 52.4571 129.593 51.7562C129.442 51.7253 129.411 51.8757 129.486 51.8912Z" fill="#C99846" fill-opacity="0.5"/>
<path d="M130 51.6832C130.75 52.2293 131.515 52.7003 132.28 53.1713C132.355 53.1867 132.371 53.1115 132.296 53.0961C131.621 52.5654 130.84 52.1696 130 51.6832Z" fill="#C99846" fill-opacity="0.5"/>
<path d="M120.125 45.576C123.348 48.1986 126.874 50.4915 130.294 52.9194C130.369 52.9349 130.46 52.8751 130.4 52.7845C127.177 50.1619 123.804 47.5084 120.231 45.4411C120.081 45.4102 120.05 45.5606 120.125 45.576Z" fill="#C99846" fill-opacity="0.5"/>
<path d="M114.446 40.4104C115.676 41.2905 116.815 42.2302 117.939 43.2452C118.014 43.2607 118.03 43.1855 118.03 43.1855C117.012 42.0356 115.798 41.0803 114.446 40.4104C114.462 40.3352 114.462 40.3352 114.446 40.4104Z" fill="#C99846" fill-opacity="0.5"/>
<path d="M115.349 40.5961C117.444 42.9867 119.899 45.5297 122.494 47.396C122.569 47.4114 122.66 47.3517 122.585 47.3362C120.596 44.8108 117.928 42.5376 115.439 40.5364C115.38 40.4457 115.273 40.5806 115.349 40.5961Z" fill="#C99846" fill-opacity="0.5"/>
<path d="M116.835 41.3721C118.543 42.9776 120.218 45.1249 122.335 46.2658C122.41 46.2812 122.501 46.2215 122.441 46.1308C121.036 44.1958 118.74 42.7829 116.941 41.2372C116.851 41.2969 116.835 41.3721 116.835 41.3721Z" fill="#C99846" fill-opacity="0.5"/>
<path d="M118.173 41.7258C119.521 43.1787 120.912 44.7974 122.547 45.9959C122.682 46.102 122.863 45.9826 122.744 45.8012C121.578 44.2289 119.824 42.849 118.28 41.5908C118.235 41.425 118.114 41.6351 118.173 41.7258Z" fill="#C99846" fill-opacity="0.5"/>
<path d="M120.155 42.7605C120.485 43.0635 120.815 43.3664 121.144 43.6694C121.219 43.6848 121.31 43.6251 121.235 43.6096C120.905 43.3067 120.576 43.0037 120.246 42.7008C120.186 42.6101 120.08 42.745 120.155 42.7605Z" fill="#C99846" fill-opacity="0.5"/>
<path d="M90.8157 52.4031C92.2776 52.1551 93.859 52.0884 95.2767 51.6745C95.3674 51.6148 95.3231 51.4489 95.2325 51.5086C93.7108 51.666 92.2931 52.0799 90.8311 52.3279C90.7559 52.3124 90.725 52.4628 90.8157 52.4031Z" fill="#C99846" fill-opacity="0.5"/>
<path d="M87.823 51.7092C89.8092 51.9609 92.2179 52.0644 94.1796 51.2921C94.2703 51.2324 94.2106 51.1417 94.1353 51.1262C93.1268 51.0756 92.0563 51.3257 91.0168 51.4254C89.9773 51.5252 88.9532 51.5497 87.8539 51.5588C87.7787 51.5433 87.7478 51.6937 87.823 51.7092Z" fill="#C99846" fill-opacity="0.5"/>
<path d="M87.5397 51.1806C89.422 51.1758 91.5144 51.2926 93.3235 50.8809C93.4894 50.8366 93.3854 50.5801 93.2947 50.6398C91.3373 50.6291 89.4529 51.0254 87.5397 51.1806C87.4645 51.1651 87.4645 51.1651 87.5397 51.1806Z" fill="#C99846" fill-opacity="0.5"/>
<path d="M88.5504 50.8398C89.1233 50.7225 89.7713 50.6206 90.3287 50.5785C90.886 50.5363 91.4125 50.6446 91.9101 50.5118C91.9853 50.5273 91.9256 50.4366 91.941 50.3614C91.0253 49.8595 89.4417 50.3176 88.5062 50.6739C88.4155 50.7337 88.4752 50.8243 88.5504 50.8398Z" fill="#C99846" fill-opacity="0.5"/>
<path d="M88.4176 50.3421C89.0656 50.2403 89.7734 50.2291 90.4369 50.052C90.5276 49.9923 90.4678 49.9016 90.3926 49.8861C89.7601 49.9128 89.0966 50.0899 88.4485 50.1917C88.2981 50.1608 88.2517 50.3864 88.4176 50.3421Z" fill="#C99846" fill-opacity="0.5"/>
<path d="M70.0487 50.0914C72.0194 50.4183 74.0654 50.7608 76.098 50.7869C76.1732 50.8024 76.2042 50.652 76.129 50.6365C74.1737 50.2343 72.0968 50.0423 70.0796 49.941C70.0044 49.9255 69.9734 50.0759 70.0487 50.0914Z" fill="#C99846" fill-opacity="0.5"/>
<path d="M68.6795 49.8882C70.7121 49.9144 72.7426 50.332 74.7598 50.4333C74.835 50.4488 74.8814 50.2232 74.8062 50.2077C72.9128 49.5047 70.6545 49.4322 68.6661 49.5719C68.5003 49.6162 68.5291 49.8573 68.6795 49.8882Z" fill="#C99846" fill-opacity="0.5"/>
<path d="M69.3718 49.9522C71.6434 50.3411 73.9902 50.7454 76.3082 50.9086C76.3834 50.924 76.4143 50.7736 76.3391 50.7582C74.083 50.2941 71.7053 50.0403 69.3873 49.877C69.3276 49.7864 69.2966 49.9368 69.3718 49.9522Z" fill="#C99846" fill-opacity="0.5"/>
<path d="M72.621 50.5421C75.554 51.1453 78.6064 51.9299 81.6167 52.1571C81.6919 52.1726 81.7229 52.0222 81.6477 52.0067C78.6859 51.1624 75.6004 50.9197 72.621 50.5421C72.5613 50.4514 72.5458 50.5266 72.621 50.5421Z" fill="#C99846" fill-opacity="0.5"/>
<path d="M75.3594 50.9485C79.3452 51.7683 83.6185 52.3337 87.6726 51.6782C87.7632 51.6185 87.7787 51.5433 87.6283 51.5123C83.5187 51.2942 79.4823 51.483 75.3594 50.9485C75.3748 50.8733 75.3594 50.9485 75.3594 50.9485Z" fill="#C99846" fill-opacity="0.5"/>
<path d="M56.282 36.9915C56.8351 37.7323 57.4944 38.3382 58.2443 38.8844C58.4544 39.006 60.5559 40.222 60.5404 40.2972C60.5559 40.222 60.4807 40.2066 60.4652 40.2818L60.4497 40.357L60.4343 40.4322C60.5537 40.6135 60.7041 40.6445 60.8103 40.5095L60.8257 40.4343C60.7084 39.8615 59.6556 39.6449 59.1601 39.3863C58.1093 38.7782 57.1802 37.96 56.417 37.0976C56.3882 36.8565 56.2975 36.9163 56.282 36.9915Z" fill="#C99846" fill-opacity="0.5"/>
<path d="M55.6826 36.4762C57.3307 37.991 59.1756 39.311 61.1576 40.3458C61.2328 40.3612 61.2482 40.286 61.173 40.2706C59.5249 38.7558 57.68 37.4357 55.7135 36.3258C55.6383 36.3103 55.6229 36.3855 55.6826 36.4762Z" fill="#C99846" fill-opacity="0.5"/>
<path d="M56.9589 37.1307C58.2331 38.1767 59.7617 39.5101 61.2791 40.1357C61.4296 40.1666 61.5357 40.0317 61.4008 39.9256C60.0668 38.789 58.4299 37.982 56.9899 36.9803C56.9899 36.9803 56.8837 37.1153 56.9589 37.1307Z" fill="#C99846" fill-opacity="0.5"/>
<path d="M57.3546 36.3498C58.2838 37.168 59.0758 38.2715 60.2172 38.8198C60.2924 38.8353 60.4737 38.7158 60.3388 38.6097C59.6065 37.5968 58.4208 36.8826 57.4762 36.1397C57.3258 36.1087 57.2197 36.2437 57.3546 36.3498Z" fill="#C99846" fill-opacity="0.5"/>
<path d="M44.0019 24.6676C44.7918 26.1626 46.1988 27.7062 47.776 28.4225C47.9264 28.4534 48.0325 28.3185 47.8976 28.2123C47.3135 27.6219 46.5636 27.0757 45.9044 26.4698C45.2452 25.8639 44.6766 25.1983 44.0926 24.6079L44.0019 24.6676Z" fill="#C99846" fill-opacity="0.5"/>
<path d="M44.754 24.8223C45.9221 26.0032 46.9994 27.2438 48.3643 28.2299C48.4395 28.2454 48.5302 28.1857 48.455 28.1702C47.3776 26.9296 46.1034 25.8837 44.9199 24.778C44.7097 24.6564 44.6036 24.7914 44.754 24.8223Z" fill="#C99846" fill-opacity="0.5"/>
<path d="M44.3513 24.1124C44.8158 24.5214 45.2649 25.0057 45.8202 25.3551C45.8954 25.3706 45.986 25.3108 45.9263 25.2201C45.5524 24.7513 44.9972 24.402 44.4574 23.9774C44.3822 23.9619 44.2915 24.0217 44.3513 24.1124Z" fill="#C99846" fill-opacity="0.5"/>
<path d="M66.6842 37.4849C68.1974 38.8935 70.1927 40.2445 72.3603 40.3768C72.4355 40.3922 72.4664 40.2418 72.3912 40.2264C70.3783 39.342 68.4539 38.7895 66.6842 37.4849C66.6997 37.4097 66.609 37.4694 66.6842 37.4849Z" fill="#C99846" fill-opacity="0.5"/>
<path d="M67.1376 37.1862C68.4715 38.3228 70.1969 39.4615 71.805 40.0274C71.8802 40.0429 71.8957 39.9677 71.8957 39.9677C70.637 38.8466 68.8209 37.7676 67.2283 37.1265C67.153 37.111 67.1376 37.1862 67.1376 37.1862Z" fill="#C99846" fill-opacity="0.5"/>
<path d="M68.1616 37.1616C69.4822 37.9819 70.7874 38.8774 72.245 39.4124C72.3202 39.4279 72.4109 39.3681 72.3512 39.2774C71.1367 38.3222 69.6193 37.6966 68.2678 37.0266C68.1328 36.9205 68.1019 37.0709 68.1616 37.1616Z" fill="#C99846" fill-opacity="0.5"/>
<path d="M69.3515 37.0929C70.358 37.535 71.1676 38.1719 72.1277 38.8397C72.2029 38.8551 72.2936 38.7954 72.2338 38.7047C71.6365 37.798 70.4951 37.2497 69.4577 36.9579C69.3073 36.927 69.2763 37.0774 69.3515 37.0929Z" fill="#C99846" fill-opacity="0.5"/>
<path d="M71.8029 40.4189C73.9796 41.6505 76.6539 42.7492 79.014 43.4698C79.0892 43.4852 79.1201 43.3348 79.0449 43.3194C76.8528 42.163 74.2537 41.0798 71.8029 40.4189C71.8184 40.3437 71.8029 40.4189 71.8029 40.4189Z" fill="#C99846" fill-opacity="0.5"/>
<path d="M101.157 61.1929C104.126 60.8628 107.14 60.307 110.064 59.811C110.139 59.8265 110.17 59.6761 110.02 59.6451C107.129 59.5993 103.829 60.0179 101.157 61.1929C101.098 61.1023 101.082 61.1775 101.157 61.1929Z" fill="#C99846" fill-opacity="0.5"/>
<path d="M102.352 60.3412C104.869 59.9182 107.474 59.827 110.022 59.2537C110.113 59.1939 110.144 59.0435 109.993 59.0126C107.556 58.668 104.676 59.3299 102.307 60.1753C102.217 60.235 102.261 60.4009 102.352 60.3412Z" fill="#C99846" fill-opacity="0.5"/>
<path d="M104.225 59.237C105.295 58.9869 106.319 58.9623 107.419 58.9533C107.494 58.9687 107.509 58.8935 107.434 58.8781C106.291 58.7212 105.236 58.8962 104.225 59.237C104.15 59.2215 104.15 59.2215 104.225 59.237Z" fill="#C99846" fill-opacity="0.5"/>
<path d="M93.7481 61.3934C96.4442 61.2424 99.0651 61.076 101.702 60.8344C99.0209 60.9102 96.3999 61.0766 93.7481 61.3934C93.6883 61.3027 93.6728 61.3779 93.7481 61.3934Z" fill="#C99846" fill-opacity="0.5"/>
<path d="M86.5381 63.6729C90.07 62.1262 93.6265 61.6035 97.4662 61.6094C97.5414 61.6249 97.5568 61.5497 97.4816 61.5342C93.675 60.9864 89.8908 61.8542 86.4784 63.5823L86.5381 63.6729Z" fill="#C99846" fill-opacity="0.5"/>
<path d="M94.9226 61.3999C97.4683 61.218 100.134 61.2175 102.666 60.7193C102.741 60.7348 102.772 60.5844 102.622 60.5534C100.047 60.4942 97.4395 60.9769 94.8783 61.234C94.8628 61.3092 94.8473 61.3844 94.9226 61.3999Z" fill="#C99846" fill-opacity="0.5"/>
<path d="M88.303 29.9385C89.6657 31.3161 91.4354 32.6208 93.3907 33.0229C93.4659 33.0384 93.5721 32.9034 93.4216 32.8725C91.6498 31.9594 89.9223 31.2121 88.303 29.9385C88.2432 29.8478 88.2278 29.923 88.303 29.9385Z" fill="#C99846" fill-opacity="0.5"/>
<path d="M88.2588 29.7726C89.6989 30.7742 91.3646 31.8223 92.9726 32.3882C93.0479 32.4037 93.1385 32.3439 93.0788 32.2533C91.7294 31.1919 89.9421 30.3539 88.3649 29.6376C88.2897 29.6222 88.1836 29.7571 88.2588 29.7726Z" fill="#C99846" fill-opacity="0.5"/>
<path d="M89.2076 29.7325C90.2717 30.6569 91.7117 31.6585 93.0654 31.9369C93.1406 31.9524 93.2468 31.8175 93.1716 31.802C92.6318 31.3774 91.9704 31.163 91.34 30.7982C90.6344 30.4179 89.9287 30.0376 89.3138 29.5976C89.2386 29.5821 89.2231 29.6573 89.2076 29.7325Z" fill="#C99846" fill-opacity="0.5"/>
<path d="M89.8732 29.164C90.7869 30.0573 91.9704 31.163 93.218 31.5764C93.2932 31.5918 93.3241 31.4414 93.3241 31.4414C92.8595 31.0323 92.3795 30.6985 91.884 30.4398C91.269 29.9997 90.6541 29.5597 90.0391 29.1197C89.829 28.9981 89.8135 29.0733 89.8732 29.164Z" fill="#C99846" fill-opacity="0.5"/>
<path d="M80.2984 17.7883C80.4578 18.9185 80.7832 20.0044 81.3496 21.0616C81.8718 21.9528 82.5577 23.1913 83.4734 23.6932C83.5487 23.7087 83.5641 23.6335 83.5641 23.6335C83.0574 22.667 82.2633 21.955 81.6659 21.0482C81.084 20.0663 80.6834 18.9649 80.3736 17.8038C80.389 17.7286 80.3138 17.7131 80.2984 17.7883Z" fill="#C99846" fill-opacity="0.5"/>
<path d="M80.8381 18.2129C81.2365 19.7058 82.1304 21.4574 83.4046 22.5033C83.4046 22.5033 83.4799 22.5188 83.4953 22.4436C83.1678 21.7491 82.6745 21.099 82.347 20.4045C81.9443 19.6946 81.5726 18.8343 81.1699 18.1244C80.9597 18.0028 80.7939 18.047 80.8381 18.2129Z" fill="#C99846" fill-opacity="0.5"/>
<path d="M81.9043 18.7458C82.3646 19.9378 82.9001 21.1454 83.7076 22.1737C83.7673 22.2644 83.9332 22.2201 83.8889 22.0542C83.5039 20.8776 82.7273 19.6989 82.0702 18.7015C81.9352 18.5953 81.8446 18.6551 81.9043 18.7458Z" fill="#C99846" fill-opacity="0.5"/>
<path d="M111.685 46.9756C112.298 47.8071 113.017 48.5037 113.645 49.26C114.408 50.1224 115.096 50.9694 115.966 51.6969C116.025 51.7876 116.132 51.6527 116.072 51.562C115.534 50.7459 114.831 49.9742 114.127 49.2024C113.364 48.3399 112.676 47.493 111.807 46.7654C111.731 46.75 111.55 46.8694 111.685 46.9756Z" fill="#C99846" fill-opacity="0.5"/>
<path d="M112.813 47.2077C113.607 47.9198 114.386 48.707 115.165 49.4943C115.943 50.2815 116.616 51.2037 117.41 51.9157C117.545 52.0219 117.726 51.9024 117.607 51.721C116.578 49.8633 114.629 48.2867 112.919 47.0728C112.859 46.9821 112.753 47.1171 112.813 47.2077Z" fill="#C99846" fill-opacity="0.5"/>
<path d="M114.51 48.1053C116.202 49.7859 117.861 52.0084 119.963 53.2245C120.098 53.3306 120.219 53.1205 120.16 53.0298C118.77 51.0196 116.399 49.5912 114.616 47.9703C114.541 47.9549 114.435 48.0898 114.51 48.1053Z" fill="#C99846" fill-opacity="0.5"/>
<path d="M113.74 48.4174C114.833 49.5828 115.789 51.0335 117.094 51.929C117.154 52.0197 117.26 51.8848 117.2 51.7941C116.379 50.4495 114.954 49.3726 113.846 48.2824C113.786 48.1917 113.68 48.3267 113.74 48.4174Z" fill="#C99846" fill-opacity="0.5"/>
<path d="M106.767 43.064C109.196 44.9745 111.413 47.1549 113.826 49.1406C113.886 49.2312 113.992 49.0963 113.933 49.0056C112.094 46.5111 109.44 44.5542 106.874 42.929C106.798 42.9135 106.708 42.9733 106.767 43.064Z" fill="#C99846" fill-opacity="0.5"/>
<path d="M105.303 41.0382C107.898 42.9045 110.342 44.7398 112.649 46.8604C112.725 46.8759 112.74 46.8007 112.74 46.8007C110.705 44.5008 108.172 42.3338 105.409 40.9033C105.318 40.963 105.228 41.0227 105.303 41.0382Z" fill="#C99846" fill-opacity="0.5"/>
<path d="M52.541 43.7471C53.8638 44.1759 55.5337 44.441 56.9493 44.4186C57.0245 44.4341 57.0554 44.2836 56.9802 44.2682C55.6575 43.8393 53.9875 43.5743 52.5874 43.5215C52.4216 43.5657 52.4658 43.7316 52.541 43.7471Z" fill="#C99846" fill-opacity="0.5"/>
<path d="M52.1917 44.3023C53.5011 44.4148 54.8857 44.5428 56.2415 44.4297C56.3167 44.4452 56.3476 44.2948 56.2724 44.2793C54.963 44.1668 53.5629 44.114 52.2226 44.1519C52.1319 44.2116 52.101 44.362 52.1917 44.3023Z" fill="#C99846" fill-opacity="0.5"/>
<path d="M47.2459 42.8147C49.0508 43.1859 50.9463 43.4974 52.7976 43.643C52.8728 43.6585 52.8883 43.5833 52.8131 43.5678C51.0237 43.1214 49.0972 42.9603 47.2613 42.7395C47.1861 42.724 47.1707 42.7992 47.2459 42.8147Z" fill="#C99846" fill-opacity="0.5"/>
<path d="M49.1436 42.7347C51.7314 43.1102 54.3172 43.8772 56.936 44.1023C57.0112 44.1177 57.0266 44.0425 56.9669 43.9519C54.578 42.9902 51.7778 42.8846 49.1436 42.7347C49.159 42.6595 49.1436 42.7347 49.1436 42.7347Z" fill="#C99846" fill-opacity="0.5"/>
<path d="M55.6132 43.6735C56.9226 43.786 58.2917 43.9892 59.6475 43.8761C59.7227 43.8916 59.7536 43.7412 59.6784 43.7257C58.4 43.4628 56.9535 43.6356 55.6132 43.6735C55.6286 43.5983 55.6132 43.6735 55.6132 43.6735Z" fill="#C99846" fill-opacity="0.5"/>
<path d="M28.7792 41.133C30.4182 41.5485 32.1479 41.9042 33.8179 42.1693C33.8931 42.1848 33.9085 42.1096 33.8333 42.0941C32.1943 41.6786 30.4646 41.3228 28.7947 41.0578C28.7194 41.0423 28.704 41.1175 28.7792 41.133Z" fill="#C99846" fill-opacity="0.5"/>
<path d="M29.5888 41.7698C32.6258 42.6296 35.8617 42.9032 38.9803 42.604C39.0555 42.6195 38.9958 42.5288 38.9958 42.5288C35.8196 42.3458 32.7341 42.1031 29.6043 41.6946C29.5446 41.6039 29.5136 41.7543 29.5888 41.7698Z" fill="#C99846" fill-opacity="0.5"/>
<path d="M32.661 41.6962C34.6761 42.1891 36.9631 42.5027 38.9824 42.2125C39.0576 42.228 39.0886 42.0776 39.0134 42.0621C36.9519 41.7949 34.7689 41.7378 32.661 41.6962C32.6765 41.621 32.661 41.6962 32.661 41.6962Z" fill="#C99846" fill-opacity="0.5"/>
<path d="M15.825 30.9435C17.5083 31.5249 19.2358 32.2721 20.981 32.5527C21.0562 32.5682 21.0871 32.4178 21.0119 32.4023C19.375 31.5953 17.5547 31.2993 15.825 30.9435C15.8405 30.8683 15.7498 30.9281 15.825 30.9435Z" fill="#C99846" fill-opacity="0.5"/>
<path d="M16.6256 30.4812C17.9328 30.9852 19.2998 31.5799 20.6535 31.8583C20.7287 31.8738 20.7442 31.7986 20.669 31.7831C19.3772 31.2039 17.9792 30.7596 16.641 30.406C16.5658 30.3905 16.5503 30.4657 16.6256 30.4812Z" fill="#C99846" fill-opacity="0.5"/>
<path d="M21.012 32.4024C24.3055 33.1581 27.8843 34.051 31.2285 33.7982C31.3037 33.8137 31.3501 33.588 31.2749 33.5726C27.8907 32.8765 24.3673 32.8573 21.012 32.4024C21.0274 32.3271 21.012 32.4024 21.012 32.4024Z" fill="#C99846" fill-opacity="0.5"/>
<path d="M30.6504 29.368C33.4132 30.7985 35.9637 32.4989 38.6956 34.0798C38.8305 34.1859 38.9521 33.9758 38.8172 33.8696C36.3883 31.9591 33.5502 30.5132 30.6504 29.368C30.6658 29.2928 30.6504 29.368 30.6504 29.368Z" fill="#C99846" fill-opacity="0.5"/>
<path d="M32.0504 29.4209C33.0413 29.9382 34.0323 30.4556 35.0233 30.9729C35.9988 31.5655 36.8682 32.293 37.8901 32.66C38.0405 32.6909 38.1467 32.556 38.0117 32.4498C36.6202 30.8311 34.1406 29.9292 32.1565 29.2859C32.0658 29.3457 32.0504 29.4209 32.0504 29.4209Z" fill="#C99846" fill-opacity="0.5"/>
<path d="M33.331 29.2924C35.3284 30.2519 36.9168 31.676 38.8081 32.7704C38.8833 32.7859 38.9739 32.7262 38.9142 32.6355C37.5381 30.9415 35.3151 29.9356 33.3464 29.2172C33.2867 29.1265 33.2712 29.2017 33.331 29.2924Z" fill="#C99846" fill-opacity="0.5"/>
<path d="M119.907 60.7381C120.453 59.9882 122.844 60.5583 123.627 60.5626C124.711 60.6287 125.854 60.7855 126.969 60.7013C127.044 60.7167 127.06 60.6415 126.984 60.6261C125.255 60.2703 123.297 60.2596 121.506 60.2047C120.979 60.0964 119.776 59.8489 119.907 60.7381C119.832 60.7226 119.907 60.7381 119.907 60.7381Z" fill="#C99846" fill-opacity="0.5"/>
<path d="M120.471 59.5214C122.517 59.8638 124.669 60.0713 126.823 59.8873C126.989 59.8431 126.945 59.6772 126.794 59.6462C124.671 59.6798 122.638 59.6537 120.471 59.5214Z" fill="#C99846" fill-opacity="0.5"/>
<path d="M121.813 59.0921C123.003 59.0233 124.056 59.2399 125.244 59.5625C125.319 59.578 125.334 59.5028 125.259 59.4873C124.177 59.0297 123.018 58.9481 121.828 59.0169C121.753 59.0014 121.738 59.0766 121.813 59.0921Z" fill="#C99846" fill-opacity="0.5"/>
<path d="M112.088 58.7378C115.275 59.6286 118.553 60.4595 121.895 60.5982C121.97 60.6137 122.001 60.4633 121.926 60.4478C118.692 59.7827 115.337 59.3277 112.119 58.5874C112.043 58.572 112.013 58.7224 112.088 58.7378Z" fill="#C99846" fill-opacity="0.5"/>
<path d="M43.332 70C40.4871 70 38.2205 69.2244 36.5323 67.6732C34.8441 66.122 34 64.0801 34 61.5475V60.2654C34 59.9488 34.1563 59.7905 34.4689 59.7905H35.9227C36.2353 59.7905 36.3916 59.9488 36.3916 60.2654V61.405C36.3916 63.3045 37.0169 64.8399 38.2674 66.0112C39.5492 67.1825 41.253 67.7682 43.3789 67.7682C45.411 67.7682 47.0054 67.23 48.1621 66.1536C49.3501 65.0456 49.9441 63.5736 49.9441 61.7374C49.9441 60.5661 49.6783 59.5531 49.1469 58.6983C48.6154 57.8119 47.8338 57.0047 46.8022 56.2765C45.8017 55.5484 44.3636 54.6778 42.4879 53.6648C40.4871 52.5568 38.9552 51.6229 37.8922 50.8631C36.8293 50.0717 35.9696 49.1378 35.313 48.0615C34.6565 46.9534 34.3283 45.5922 34.3283 43.9777C34.3283 41.4767 35.0942 39.5298 36.6261 38.1369C38.1892 36.7123 40.2838 36 42.9099 36C45.7548 36 48.0058 36.7914 49.6627 38.3743C51.3196 39.9255 52.1481 41.9991 52.1481 44.595V45.7346C52.1481 46.0512 51.9918 46.2095 51.6792 46.2095H50.1317C49.819 46.2095 49.6627 46.0512 49.6627 45.7346V44.6899C49.6627 42.7272 49.0531 41.1601 47.8338 39.9888C46.6146 38.8175 44.9576 38.2318 42.863 38.2318C40.956 38.2318 39.4554 38.7384 38.3612 39.7514C37.2982 40.7328 36.7668 42.1415 36.7668 43.9777C36.7668 45.149 37.0012 46.1304 37.4702 46.9218C37.9704 47.7132 38.6738 48.4255 39.5804 49.0587C40.5183 49.6918 41.9408 50.5307 43.8478 51.5754C45.9424 52.7467 47.5681 53.7598 48.7248 54.6145C49.9128 55.4693 50.8194 56.4507 51.4447 57.5587C52.1012 58.635 52.4295 59.9488 52.4295 61.5C52.4295 64.0642 51.601 66.122 49.9441 67.6732C48.3184 69.2244 46.1144 70 43.332 70Z" fill="#505050"/>
<path d="M68.0508 70C66.2063 70 64.5806 69.6043 63.1738 68.8128C61.7669 67.9898 60.6727 66.8501 59.8912 65.3939C59.1409 63.906 58.7657 62.1965 58.7657 60.2654V36.8547C58.7657 36.5382 58.922 36.3799 59.2346 36.3799H60.7822C61.0948 36.3799 61.2511 36.5382 61.2511 36.8547V60.4553C61.2511 62.6397 61.8607 64.4125 63.08 65.7737C64.3305 67.1034 65.9874 67.7682 68.0508 67.7682C70.0829 67.7682 71.7242 67.1034 72.9747 65.7737C74.2252 64.4125 74.8505 62.6397 74.8505 60.4553V36.8547C74.8505 36.5382 75.0068 36.3799 75.3194 36.3799H76.8669C77.1795 36.3799 77.3359 36.5382 77.3359 36.8547V60.2654C77.3359 62.1965 76.9451 63.906 76.1635 65.3939C75.4132 66.8501 74.3346 67.9898 72.9278 68.8128C71.521 69.6043 69.8953 70 68.0508 70Z" fill="#505050"/>
<path d="M103.243 36.7123C103.399 36.4907 103.587 36.3799 103.806 36.3799H105.447C105.759 36.3799 105.916 36.5382 105.916 36.8547V69.1453C105.916 69.4618 105.759 69.6201 105.447 69.6201H103.899C103.587 69.6201 103.43 69.4618 103.43 69.1453V41.7458C103.43 41.6508 103.399 41.6034 103.337 41.6034C103.274 41.5717 103.227 41.6034 103.196 41.6983L96.49 53.9497C96.3962 54.1713 96.2086 54.2821 95.9273 54.2821H95.5521C95.3333 54.2821 95.1457 54.1713 94.9894 53.9497L88.2366 41.7933C88.2053 41.6983 88.1584 41.6667 88.0959 41.6983C88.0334 41.6983 88.0021 41.7458 88.0021 41.8408V69.1453C88.0021 69.4618 87.8458 69.6201 87.5332 69.6201H85.9857C85.673 69.6201 85.5167 69.4618 85.5167 69.1453V36.8547C85.5167 36.5382 85.673 36.3799 85.9857 36.3799H87.5801C87.7989 36.3799 87.9865 36.4907 88.1428 36.7123L95.599 50.1034C95.6303 50.135 95.6772 50.1508 95.7397 50.1508C95.8022 50.1508 95.8491 50.135 95.8804 50.1034L103.243 36.7123Z" fill="#505050"/>
<path d="M129.984 69.6201C129.702 69.6201 129.53 69.4777 129.468 69.1927L127.78 62.9246C127.748 62.8296 127.67 62.7821 127.545 62.7821H115.728C115.603 62.7821 115.524 62.8296 115.493 62.9246L113.852 69.1927C113.789 69.4777 113.617 69.6201 113.336 69.6201H111.742C111.585 69.6201 111.46 69.5726 111.366 69.4777C111.304 69.3827 111.288 69.2561 111.32 69.0978L120.136 36.7598C120.198 36.5065 120.37 36.3799 120.652 36.3799H122.621C122.903 36.3799 123.074 36.5065 123.137 36.7598L131.953 69.0978L132 69.2402C132 69.4935 131.844 69.6201 131.531 69.6201H129.984ZM116.15 60.5028C116.118 60.5344 116.118 60.5819 116.15 60.6452C116.212 60.6769 116.275 60.6927 116.337 60.6927H126.935C126.998 60.6927 127.045 60.6769 127.076 60.6452C127.139 60.5819 127.154 60.5344 127.123 60.5028L121.73 40.0838C121.699 40.0205 121.652 39.9888 121.589 39.9888C121.558 39.9888 121.527 40.0205 121.496 40.0838L116.15 60.5028Z" fill="#505050"/>
</svg>
